{
  "title" : "",
  "description" : "",
  "author" : "",
  "targetLoudness" : -18.0,
  "shouldApplyLoudnessNormalization" : true,
  "videoFormatFrameRate" : 30,
  "audioFormatSampleRate" : 44100,
  "width" : 1364.0,
  "height" : 768.0,
  "version" : "3.0",
  "editRate" : 30,
  "authoringClientName" :  {
    "name" : "Camtasia",
    "platform" : "Windows",
    "version" : "19.0"
  },
  "sourceBin" : [
    {
      "id" : 1,
      "src" : "C:\\Users\\fula_\\Documents\\Camtasia\\Rec 12-22-19.trec",
      "rect" : [0, 0, 1364, 768],
      "lastMod" : "20191222T123534",
      "sourceTracks" : [
        {
          "range" : [0, 5385],
          "type" : 0,
          "editRate" : 30,
          "trackRect" : [0, 0, 1364, 768],
          "sampleRate" : 29,
          "bitDepth" : 0,
          "numChannels" : 0,
          "integratedLUFS" : 100.0,
          "peakLevel" : -1.0,
          "metaData" : "2b7b6a00-7a1f-11e2-83d0-0017f200be7f;2b7b6aef-7a1f-11e2-83d0-0017f200be7f;2b7b6af0-7a1f-11e2-83d0-0017f200be7f;2b7b6af1-7a1f-11e2-83d0-0017f200be7f;2b7b6af2-7a1f-11e2-83d0-0017f200be7f;2b7b6af3-7a1f-11e2-83d0-0017f200be7f;2b7b6af5-7a1f-11e2-83d0-0017f200be7f;2b7b6af6-7a1f-11e2-83d0-0017f200be7f;2b7b6af7-7a1f-11e2-83d0-0017f200be7f;2b7b6af8-7a1f-11e2-83d0-0017f200be7f;2b7b6af9-7a1f-11e2-83d0-0017f200be7f;2b7b6afa-7a1f-11e2-83d0-0017f200be7f;"
        },
        {
          "range" : [0, 5384000],
          "type" : 0,
          "editRate" : 30000,
          "trackRect" : [0, 0, 640, 480],
          "sampleRate" : 27,
          "bitDepth" : 0,
          "numChannels" : 0,
          "integratedLUFS" : 100.0,
          "peakLevel" : -1.0,
          "metaData" : ""
        },
        {
          "range" : [0, 7917568],
          "type" : 2,
          "editRate" : 44100,
          "trackRect" : [0, 0, 0, 0],
          "sampleRate" : 44100,
          "bitDepth" : 16,
          "numChannels" : 2,
          "integratedLUFS" : -32.9227513358522,
          "peakLevel" : 0.218658447265625,
          "metaData" : ""
        }
      ],
      "metadata" : {
        "timeAdded" : "20191222T123542.571288"
      }
    },
    {
      "id" : 2,
      "src" : "C:\\Users\\fula_\\Documents\\Camtasia\\Rec 12-22-19_001.trec",
      "rect" : [0, 0, 1364, 768],
      "lastMod" : "20191222T123931",
      "sourceTracks" : [
        {
          "range" : [0, 2023],
          "type" : 0,
          "editRate" : 30,
          "trackRect" : [0, 0, 1364, 768],
          "sampleRate" : 29,
          "bitDepth" : 0,
          "numChannels" : 0,
          "integratedLUFS" : 100.0,
          "peakLevel" : -1.0,
          "metaData" : "2b7b6a00-7a1f-11e2-83d0-0017f200be7f;2b7b6aef-7a1f-11e2-83d0-0017f200be7f;2b7b6af0-7a1f-11e2-83d0-0017f200be7f;2b7b6af1-7a1f-11e2-83d0-0017f200be7f;2b7b6af2-7a1f-11e2-83d0-0017f200be7f;2b7b6af3-7a1f-11e2-83d0-0017f200be7f;2b7b6af5-7a1f-11e2-83d0-0017f200be7f;2b7b6af6-7a1f-11e2-83d0-0017f200be7f;2b7b6af7-7a1f-11e2-83d0-0017f200be7f;2b7b6af8-7a1f-11e2-83d0-0017f200be7f;2b7b6af9-7a1f-11e2-83d0-0017f200be7f;2b7b6afa-7a1f-11e2-83d0-0017f200be7f;"
        },
        {
          "range" : [0, 2021000],
          "type" : 0,
          "editRate" : 30000,
          "trackRect" : [0, 0, 640, 480],
          "sampleRate" : 28,
          "bitDepth" : 0,
          "numChannels" : 0,
          "integratedLUFS" : 100.0,
          "peakLevel" : -1.0,
          "metaData" : ""
        },
        {
          "range" : [0, 2956288],
          "type" : 2,
          "editRate" : 44100,
          "trackRect" : [0, 0, 0, 0],
          "sampleRate" : 44100,
          "bitDepth" : 16,
          "numChannels" : 2,
          "integratedLUFS" : -30.6744774170775,
          "peakLevel" : 0.16790771484375,
          "metaData" : ""
        }
      ],
      "metadata" : {
        "timeAdded" : "20191222T123936.141761"
      }
    },
    {
      "id" : 3,
      "src" : "C:\\Users\\fula_\\Documents\\Camtasia\\Rec 12-22-19_002.trec",
      "rect" : [0, 0, 1364, 768],
      "lastMod" : "20191222T124216",
      "sourceTracks" : [
        {
          "range" : [0, 1518],
          "type" : 0,
          "editRate" : 30,
          "trackRect" : [0, 0, 1364, 768],
          "sampleRate" : 29,
          "bitDepth" : 0,
          "numChannels" : 0,
          "integratedLUFS" : 100.0,
          "peakLevel" : -1.0,
          "metaData" : "2b7b6a00-7a1f-11e2-83d0-0017f200be7f;2b7b6aef-7a1f-11e2-83d0-0017f200be7f;2b7b6af0-7a1f-11e2-83d0-0017f200be7f;2b7b6af1-7a1f-11e2-83d0-0017f200be7f;2b7b6af2-7a1f-11e2-83d0-0017f200be7f;2b7b6af3-7a1f-11e2-83d0-0017f200be7f;2b7b6af5-7a1f-11e2-83d0-0017f200be7f;2b7b6af6-7a1f-11e2-83d0-0017f200be7f;2b7b6af7-7a1f-11e2-83d0-0017f200be7f;2b7b6af8-7a1f-11e2-83d0-0017f200be7f;2b7b6af9-7a1f-11e2-83d0-0017f200be7f;2b7b6afa-7a1f-11e2-83d0-0017f200be7f;"
        },
        {
          "range" : [0, 1517000],
          "type" : 0,
          "editRate" : 30000,
          "trackRect" : [0, 0, 640, 480],
          "sampleRate" : 28,
          "bitDepth" : 0,
          "numChannels" : 0,
          "integratedLUFS" : 100.0,
          "peakLevel" : -1.0,
          "metaData" : ""
        },
        {
          "range" : [0, 2228224],
          "type" : 2,
          "editRate" : 44100,
          "trackRect" : [0, 0, 0, 0],
          "sampleRate" : 44100,
          "bitDepth" : 16,
          "numChannels" : 2,
          "integratedLUFS" : -33.5313037208243,
          "peakLevel" : 0.16571044921875,
          "metaData" : ""
        }
      ],
      "metadata" : {
        "timeAdded" : "20191222T124225.545744"
      }
    },
    {
      "id" : 4,
      "src" : "C:\\Users\\fula_\\Documents\\Camtasia\\Rec 12-22-19_003.trec",
      "rect" : [0, 0, 1364, 768],
      "lastMod" : "20191222T124447",
      "sourceTracks" : [
        {
          "range" : [0, 1858],
          "type" : 0,
          "editRate" : 30,
          "trackRect" : [0, 0, 1364, 768],
          "sampleRate" : 29,
          "bitDepth" : 0,
          "numChannels" : 0,
          "integratedLUFS" : 100.0,
          "peakLevel" : -1.0,
          "metaData" : "2b7b6a00-7a1f-11e2-83d0-0017f200be7f;2b7b6aef-7a1f-11e2-83d0-0017f200be7f;2b7b6af0-7a1f-11e2-83d0-0017f200be7f;2b7b6af1-7a1f-11e2-83d0-0017f200be7f;2b7b6af2-7a1f-11e2-83d0-0017f200be7f;2b7b6af3-7a1f-11e2-83d0-0017f200be7f;2b7b6af5-7a1f-11e2-83d0-0017f200be7f;2b7b6af6-7a1f-11e2-83d0-0017f200be7f;2b7b6af7-7a1f-11e2-83d0-0017f200be7f;2b7b6af8-7a1f-11e2-83d0-0017f200be7f;2b7b6af9-7a1f-11e2-83d0-0017f200be7f;2b7b6afa-7a1f-11e2-83d0-0017f200be7f;"
        },
        {
          "range" : [0, 1858000],
          "type" : 0,
          "editRate" : 30000,
          "trackRect" : [0, 0, 640, 480],
          "sampleRate" : 27,
          "bitDepth" : 0,
          "numChannels" : 0,
          "integratedLUFS" : 100.0,
          "peakLevel" : -1.0,
          "metaData" : ""
        },
        {
          "range" : [0, 2713600],
          "type" : 2,
          "editRate" : 44100,
          "trackRect" : [0, 0, 0, 0],
          "sampleRate" : 44100,
          "bitDepth" : 16,
          "numChannels" : 2,
          "integratedLUFS" : -35.1868791551174,
          "peakLevel" : 0.16070556640625,
          "metaData" : ""
        }
      ],
      "metadata" : {
        "timeAdded" : "20191222T124458.795542"
      }
    },
    {
      "id" : 5,
      "src" : "C:\\Users\\fula_\\Documents\\Camtasia\\Rec 12-22-19_004.trec",
      "rect" : [0, 0, 1364, 768],
      "lastMod" : "20191222T124747",
      "sourceTracks" : [
        {
          "range" : [0, 3113],
          "type" : 0,
          "editRate" : 30,
          "trackRect" : [0, 0, 1364, 768],
          "sampleRate" : 29,
          "bitDepth" : 0,
          "numChannels" : 0,
          "integratedLUFS" : 100.0,
          "peakLevel" : -1.0,
          "metaData" : "2b7b6a00-7a1f-11e2-83d0-0017f200be7f;2b7b6aef-7a1f-11e2-83d0-0017f200be7f;2b7b6af0-7a1f-11e2-83d0-0017f200be7f;2b7b6af1-7a1f-11e2-83d0-0017f200be7f;2b7b6af2-7a1f-11e2-83d0-0017f200be7f;2b7b6af3-7a1f-11e2-83d0-0017f200be7f;2b7b6af5-7a1f-11e2-83d0-0017f200be7f;2b7b6af6-7a1f-11e2-83d0-0017f200be7f;2b7b6af7-7a1f-11e2-83d0-0017f200be7f;2b7b6af8-7a1f-11e2-83d0-0017f200be7f;2b7b6af9-7a1f-11e2-83d0-0017f200be7f;2b7b6afa-7a1f-11e2-83d0-0017f200be7f;"
        },
        {
          "range" : [0, 3111000],
          "type" : 0,
          "editRate" : 30000,
          "trackRect" : [0, 0, 640, 480],
          "sampleRate" : 27,
          "bitDepth" : 0,
          "numChannels" : 0,
          "integratedLUFS" : 100.0,
          "peakLevel" : -1.0,
          "metaData" : ""
        },
        {
          "range" : [0, 4566016],
          "type" : 2,
          "editRate" : 44100,
          "trackRect" : [0, 0, 0, 0],
          "sampleRate" : 44100,
          "bitDepth" : 16,
          "numChannels" : 2,
          "integratedLUFS" : -37.7067673958148,
          "peakLevel" : 0.161163330078125,
          "metaData" : ""
        }
      ],
      "metadata" : {
        "timeAdded" : "20191222T124749.799867"
      }
    },
    {
      "id" : 6,
      "src" : "C:\\Users\\fula_\\Documents\\Camtasia\\Rec 12-22-19_005.trec",
      "rect" : [0, 0, 1364, 768],
      "lastMod" : "20191222T124848",
      "sourceTracks" : [
        {
          "range" : [0, 751],
          "type" : 0,
          "editRate" : 30,
          "trackRect" : [0, 0, 1364, 768],
          "sampleRate" : 29,
          "bitDepth" : 0,
          "numChannels" : 0,
          "integratedLUFS" : 100.0,
          "peakLevel" : -1.0,
          "metaData" : "2b7b6a00-7a1f-11e2-83d0-0017f200be7f;2b7b6aef-7a1f-11e2-83d0-0017f200be7f;2b7b6af0-7a1f-11e2-83d0-0017f200be7f;2b7b6af1-7a1f-11e2-83d0-0017f200be7f;2b7b6af2-7a1f-11e2-83d0-0017f200be7f;2b7b6af3-7a1f-11e2-83d0-0017f200be7f;2b7b6af5-7a1f-11e2-83d0-0017f200be7f;2b7b6af6-7a1f-11e2-83d0-0017f200be7f;2b7b6af7-7a1f-11e2-83d0-0017f200be7f;2b7b6af8-7a1f-11e2-83d0-0017f200be7f;2b7b6af9-7a1f-11e2-83d0-0017f200be7f;2b7b6afa-7a1f-11e2-83d0-0017f200be7f;"
        },
        {
          "range" : [0, 749000],
          "type" : 0,
          "editRate" : 30000,
          "trackRect" : [0, 0, 640, 480],
          "sampleRate" : 27,
          "bitDepth" : 0,
          "numChannels" : 0,
          "integratedLUFS" : 100.0,
          "peakLevel" : -1.0,
          "metaData" : ""
        },
        {
          "range" : [0, 1103872],
          "type" : 2,
          "editRate" : 44100,
          "trackRect" : [0, 0, 0, 0],
          "sampleRate" : 44100,
          "bitDepth" : 16,
          "numChannels" : 2,
          "integratedLUFS" : -31.3024714439803,
          "peakLevel" : 0.160003662109375,
          "metaData" : ""
        }
      ],
      "metadata" : {
        "timeAdded" : "20191222T124850.119997"
      }
    },
    {
      "id" : 7,
      "src" : "C:\\Users\\fula_\\Documents\\Camtasia\\Rec 12-22-19_006.trec",
      "rect" : [0, 0, 1364, 768],
      "lastMod" : "20191222T124945",
      "sourceTracks" : [
        {
          "range" : [0, 360],
          "type" : 0,
          "editRate" : 30,
          "trackRect" : [0, 0, 1364, 768],
          "sampleRate" : 29,
          "bitDepth" : 0,
          "numChannels" : 0,
          "integratedLUFS" : 100.0,
          "peakLevel" : -1.0,
          "metaData" : "2b7b6a00-7a1f-11e2-83d0-0017f200be7f;2b7b6aef-7a1f-11e2-83d0-0017f200be7f;2b7b6af0-7a1f-11e2-83d0-0017f200be7f;2b7b6af1-7a1f-11e2-83d0-0017f200be7f;2b7b6af2-7a1f-11e2-83d0-0017f200be7f;2b7b6af3-7a1f-11e2-83d0-0017f200be7f;2b7b6af5-7a1f-11e2-83d0-0017f200be7f;2b7b6af6-7a1f-11e2-83d0-0017f200be7f;2b7b6af7-7a1f-11e2-83d0-0017f200be7f;2b7b6af8-7a1f-11e2-83d0-0017f200be7f;2b7b6af9-7a1f-11e2-83d0-0017f200be7f;2b7b6afa-7a1f-11e2-83d0-0017f200be7f;"
        },
        {
          "range" : [0, 359000],
          "type" : 0,
          "editRate" : 30000,
          "trackRect" : [0, 0, 640, 480],
          "sampleRate" : 27,
          "bitDepth" : 0,
          "numChannels" : 0,
          "integratedLUFS" : 100.0,
          "peakLevel" : -1.0,
          "metaData" : ""
        },
        {
          "range" : [0, 530432],
          "type" : 2,
          "editRate" : 44100,
          "trackRect" : [0, 0, 0, 0],
          "sampleRate" : 44100,
          "bitDepth" : 16,
          "numChannels" : 2,
          "integratedLUFS" : -36.1103887637274,
          "peakLevel" : 0.092864990234375,
          "metaData" : ""
        }
      ],
      "metadata" : {
        "timeAdded" : "20191222T124947.094887"
      }
    },
    {
      "id" : 8,
      "src" : "C:\\Users\\fula_\\Documents\\ปี 3 เทอม 2\\Data mining\\ตัวอย่าง\\New folder\\PeynirY\\ui.jpg",
      "rect" : [0, 0, 1920, 1140],
      "lastMod" : "20190401T002556",
      "sourceTracks" : [
        {
          "range" : [0, 1],
          "type" : 1,
          "editRate" : 10000000,
          "trackRect" : [0, 0, 1920, 1140],
          "sampleRate" : 0,
          "bitDepth" : 24,
          "numChannels" : 0,
          "integratedLUFS" : 100.0,
          "peakLevel" : -1.0,
          "metaData" : ""
        }
      ],
      "metadata" : {
        "timeAdded" : "20191222T161436.629898"
      }
    },
    {
      "id" : 9,
      "src" : "C:\\ProgramData\\TechSmith\\Camtasia Studio 19\\Library 4.0\\Camtasia Libraries\\Camtasia 2019\\Intros\\cornercircles.asset\\Motion Graphics - Intro Clips - cornercircles-91.png",
      "rect" : [0, 0, 1920, 1080],
      "lastMod" : "20190205T075848",
      "sourceTracks" : [
        {
          "range" : [0, 1],
          "type" : 1,
          "editRate" : 10000000,
          "trackRect" : [0, 0, 1920, 1080],
          "sampleRate" : 0,
          "bitDepth" : 32,
          "numChannels" : 0,
          "integratedLUFS" : 100.0,
          "peakLevel" : -1.0,
          "metaData" : ""
        }
      ],
      "metadata" : {
        "assetLibraryId" : "05e456fc-c276-4145-b106-981acab50f11",
        "timeAdded" : "20191222T162312.869832"
      }
    },
    {
      "id" : 10,
      "src" : "C:\\Users\\fula_\\Desktop\\1.jpg",
      "rect" : [0, 0, 1920, 1140],
      "lastMod" : "20191222T163616",
      "sourceTracks" : [
        {
          "range" : [0, 1],
          "type" : 1,
          "editRate" : 10000000,
          "trackRect" : [0, 0, 1920, 1140],
          "sampleRate" : 0,
          "bitDepth" : 24,
          "numChannels" : 0,
          "integratedLUFS" : 100.0,
          "peakLevel" : -1.0,
          "metaData" : ""
        }
      ],
      "metadata" : {
        "timeAdded" : "20191222T164232.783750"
      }
    },
    {
      "id" : 11,
      "src" : "C:\\Users\\fula_\\Desktop\\2.jpg",
      "rect" : [0, 0, 1920, 1140],
      "lastMod" : "20191222T163815",
      "sourceTracks" : [
        {
          "range" : [0, 1],
          "type" : 1,
          "editRate" : 10000000,
          "trackRect" : [0, 0, 1920, 1140],
          "sampleRate" : 0,
          "bitDepth" : 24,
          "numChannels" : 0,
          "integratedLUFS" : 100.0,
          "peakLevel" : -1.0,
          "metaData" : ""
        }
      ],
      "metadata" : {
        "timeAdded" : "20191222T164232.840396"
      }
    },
    {
      "id" : 12,
      "src" : "C:\\Users\\fula_\\Desktop\\3.jpg",
      "rect" : [0, 0, 1920, 1140],
      "lastMod" : "20191222T163926",
      "sourceTracks" : [
        {
          "range" : [0, 1],
          "type" : 1,
          "editRate" : 10000000,
          "trackRect" : [0, 0, 1920, 1140],
          "sampleRate" : 0,
          "bitDepth" : 24,
          "numChannels" : 0,
          "integratedLUFS" : 100.0,
          "peakLevel" : -1.0,
          "metaData" : ""
        }
      ],
      "metadata" : {
        "timeAdded" : "20191222T164232.845399"
      }
    },
    {
      "id" : 13,
      "src" : "C:\\Users\\fula_\\Desktop\\4.jpg",
      "rect" : [0, 0, 1920, 1140],
      "lastMod" : "20191222T164111",
      "sourceTracks" : [
        {
          "range" : [0, 1],
          "type" : 1,
          "editRate" : 10000000,
          "trackRect" : [0, 0, 1920, 1140],
          "sampleRate" : 0,
          "bitDepth" : 24,
          "numChannels" : 0,
          "integratedLUFS" : 100.0,
          "peakLevel" : -1.0,
          "metaData" : ""
        }
      ],
      "metadata" : {
        "timeAdded" : "20191222T164232.851404"
      }
    },
    {
      "id" : 14,
      "src" : "C:\\Users\\fula_\\Desktop\\5.jpg",
      "rect" : [0, 0, 1920, 1140],
      "lastMod" : "20191222T164135",
      "sourceTracks" : [
        {
          "range" : [0, 1],
          "type" : 1,
          "editRate" : 10000000,
          "trackRect" : [0, 0, 1920, 1140],
          "sampleRate" : 0,
          "bitDepth" : 24,
          "numChannels" : 0,
          "integratedLUFS" : 100.0,
          "peakLevel" : -1.0,
          "metaData" : ""
        }
      ],
      "metadata" : {
        "timeAdded" : "20191222T164232.857407"
      }
    },
    {
      "id" : 15,
      "src" : "C:\\Users\\fula_\\Desktop\\6.jpg",
      "rect" : [0, 0, 1920, 1140],
      "lastMod" : "20191222T164220",
      "sourceTracks" : [
        {
          "range" : [0, 1],
          "type" : 1,
          "editRate" : 10000000,
          "trackRect" : [0, 0, 1920, 1140],
          "sampleRate" : 0,
          "bitDepth" : 24,
          "numChannels" : 0,
          "integratedLUFS" : 100.0,
          "peakLevel" : -1.0,
          "metaData" : ""
        }
      ],
      "metadata" : {
        "timeAdded" : "20191222T164232.864412"
      }
    },
    {
      "id" : 16,
      "src" : "C:\\ProgramData\\TechSmith\\Camtasia Studio 19\\Library 4.0\\Camtasia Libraries\\Camtasia 2019\\Music Tracks\\summerwhistling.asset\\Music Tracks - summerwhistling.mp3",
      "rect" : [0, 0, 0, 0],
      "lastMod" : "20180830T065426",
      "sourceTracks" : [
        {
          "range" : [0, 1490640000],
          "type" : 2,
          "editRate" : 10000000,
          "trackRect" : [0, 0, 0, 0],
          "sampleRate" : 48000,
          "bitDepth" : 0,
          "numChannels" : 2,
          "integratedLUFS" : -10.5753535559755,
          "peakLevel" : 1.14862465858459,
          "metaData" : ""
        }
      ],
      "metadata" : {
        "assetLibraryId" : "dfb9d0e1-525c-4dfe-853b-310a38692d82",
        "timeAdded" : "20191222T164950.591699"
      }
    },
    {
      "id" : 17,
      "src" : "C:\\Users\\fula_\\Desktop\\7.jpg",
      "rect" : [0, 0, 1920, 1140],
      "lastMod" : "20191222T170338",
      "sourceTracks" : [
        {
          "range" : [0, 1],
          "type" : 1,
          "editRate" : 10000000,
          "trackRect" : [0, 0, 1920, 1140],
          "sampleRate" : 0,
          "bitDepth" : 24,
          "numChannels" : 0,
          "integratedLUFS" : 100.0,
          "peakLevel" : -1.0,
          "metaData" : ""
        }
      ],
      "metadata" : {
        "timeAdded" : "20191222T170347.817321"
      }
    },
    {
      "id" : 18,
      "src" : "C:\\Users\\fula_\\Documents\\Camtasia\\Veri m\\Veri_m_First_Frame.png",
      "rect" : [0, 0, 1280, 720],
      "lastMod" : "20190401T235902",
      "sourceTracks" : [
        {
          "range" : [0, 1],
          "type" : 1,
          "editRate" : 10000000,
          "trackRect" : [0, 0, 1280, 720],
          "sampleRate" : 0,
          "bitDepth" : 32,
          "numChannels" : 0,
          "integratedLUFS" : 100.0,
          "peakLevel" : -1.0,
          "metaData" : ""
        }
      ],
      "metadata" : {
        "timeAdded" : "20191222T171230.145299"
      }
    }
  ],
  "timeline" : {
    "id" : 19,
    "sceneTrack" : {
      "scenes" : [
        {
          "duration" : 397.166666666667,
          "title" : "",
          "type" : "",
          "csml" : {
            "tracks" : [
              {
                "trackIndex" : 0,
                "medias" : [
                ]
              },
              {
                "trackIndex" : 1,
                "medias" : [
                  {
                    "id" : 20,
                    "_type" : "IMFile",
                    "src" : 18,
                    "trackNumber" : 0,
                    "trimStartSum" : 0,
                    "attributes" : {
                      "ident" : "Veri_m_First_Frame"
                    },
                    "parameters" : {
                      "translation0" : 3.9499070680904e-11,
                      "translation1" : -7.75202124714269e-12,
                      "scale0" : 1.06562500000001,
                      "scale1" : 1.06562500000001
                    },
                    "effects" : [

                    ],
                    "start" : 0,
                    "duration" : 239,
                    "mediaStart" : 0,
                    "mediaDuration" : 1,
                    "scalar" : 1,
                    "metadata" : {
                      "clipSpeedAttribute" : false,
                      "default-scale0" : 1.0,
                      "default-scale1" : 1.0,
                      "default-translation0" : 0.0,
                      "default-translation1" : 0.0
                    },
                    "animationTracks" : {

                    }
                  }
                ]
              },
              {
                "trackIndex" : 2,
                "medias" : [
                  {
                    "id" : 21,
                    "_type" : "Callout",
                    "def" : {
                      "kind" : "remix",
                      "shape" : "text",
                      "style" : "basic",
                      "height" : 391.176470588337,
                      "line-spacing" : 0.0,
                      "width" : 861.764705882486,
                      "word-wrap" : 1.0,
                      "horizontal-alignment" : "center",
                      "resize-behavior" : "resizeText",
                      "text" : "Değerlendirme soruları:",
                      "vertical-alignment" : "center",
                      "font" : {
                        "color-blue" : 1.0,
                        "color-green" : 1.0,
                        "color-red" : 1.0,
                        "size" : 96.0,
                        "tracking" : 0.0,
                        "name" : "Montserrat",
                        "weight" : "Regular"
                      },
                      "textAttributes" : {
                        "type" : "textAttributeList",
                        "keyframes" : [
                          {
                            "endTime" : 0,
                            "time" : 0,
                            "value" : [{"name":"underline","rangeEnd":25,"rangeStart":0,"value":0,"valueType":"int"},{"name":"fontSize","rangeEnd":25,"rangeStart":0,"value":96,"valueType":"double"},{"name":"fgColor","rangeEnd":25,"rangeStart":0,"value":"(113,57,57,255)","valueType":"color"},{"name":"kerning","rangeEnd":25,"rangeStart":0,"value":0,"valueType":"double"},{"name":"fontName","rangeEnd":2,"rangeStart":0,"value":"Montserrat","valueType":"string"},{"name":"fontWeight","rangeEnd":25,"rangeStart":0,"value":400,"valueType":"int"},{"name":"fontItalic","rangeEnd":25,"rangeStart":0,"value":0,"valueType":"int"},{"name":"fontName","rangeEnd":25,"rangeStart":4,"value":"Montserrat","valueType":"string"},{"name":"strikethrough","rangeEnd":25,"rangeStart":0,"value":0,"valueType":"int"},{"name":"fontName","rangeEnd":4,"rangeStart":2,"value":"Arial","valueType":"string"}],
                            "duration" : 0
                          }
                        ]
                      }
                    },
                    "attributes" : {
                      "autoRotateText" : true
                    },
                    "parameters" : {
                      "translation0" : 0.117647058861223,
                      "translation1" : -58.6470588238871
                    },
                    "effects" : [
                        {
                          "_type" : "GenericBehaviorEffect",
                          "effectName" : "pulsating",
                          "start" : 33,
                          "duration" : 305                        ,
                          "in" : {
                            "attributes" : {
                              "name" : "grow",
                              "type" : 1,
                              "characterOrder" : 6,
                              "offsetBetweenCharacters" : 1,
                              "suggestedDurationPerCharacter" : 18,
                              "overlapProportion" : "3/4",
                              "movement" : 30,
                              "springDamping" : 5.0,
                              "springStiffness" : 50.0,
                              "bounceBounciness" : 0.45
                            }
                          
                          },
                          "center" : {
                            "attributes" : {
                              "name" : "pulsate",
                              "type" : 1,
                              "characterOrder" : 6,
                              "offsetBetweenCharacters" : "21/10",
                              "secondsPerLoop" : 1,
                              "numberOfLoops" : -1,
                              "delayBetweenLoops" : 0,
                              "offsetBetweenCharacters" : "21/10"
                            },
                            "parameters" : {
                              "movement" : {
                                "type" : "int",
                                "valueBounds" : {
                                  "minValue" : 0,
                                  "maxValue" : 31,
                                  "defaultValue" : 27
                                },
                                "uiHints" : {
                                  "userInterfaceType" : 4,
                                  "unitType" : 0
                                },
                                "keyframes" : [
                                  {
                                    "endTime" : 0,
                                    "time" : 0,
                                    "value" : 27,
                                    "duration" : 0
                                  }
                                ]
                              },
                              "scale" : {
                                "type" : "double",
                                "defaultValue" : 1.08,
                                "valueBounds" : {
                                  "minValue" : 0.01,
                                  "maxValue" : 2.0,
                                  "defaultValue" : 1.08
                                },
                                "uiHints" : {
                                  "userInterfaceType" : 1,
                                  "unitType" : 1
                                }
                              }
                            }
                          
                          },
                          "out" : {
                            "attributes" : {
                              "name" : "shrink",
                              "type" : 1,
                              "characterOrder" : 6,
                              "offsetBetweenCharacters" : 1,
                              "suggestedDurationPerCharacter" : "29/2",
                              "overlapProportion" : "1/10",
                              "movement" : 11,
                              "springDamping" : 5.0,
                              "springStiffness" : 50.0,
                              "bounceBounciness" : 0.45
                            }
                          
                          }
                        }
                    ],
                    "start" : 33,
                    "duration" : 206,
                    "mediaStart" : 33,
                    "mediaDuration" : 206,
                    "scalar" : 1,
                    "metadata" : {
                      "clipSpeedAttribute" : false,
                      "default-HAlign" : "center",
                      "default-LineSpace" : 0.0,
                      "default-VAlign" : "center",
                      "default-translation0" : 0.0,
                      "default-translation1" : 0.0
                    },
                    "animationTracks" : {

                    }
                  },
                  {
                    "id" : 22,
                    "_type" : "ScreenVMFile",
                    "src" : 7,
                    "trackNumber" : 0,
                    "attributes" : {
                      "ident" : "Rec 12-22-19_006"
                    },
                    "parameters" : {
                      "cursorScale" : {
                        "type" : "double",
                        "defaultValue" : 1.0,
                        "interp" : "linr"
                      },
                      "cursorOpacity" : {
                        "type" : "double",
                        "defaultValue" : 1.0,
                        "interp" : "linr"
                      }
                    },
                    "effects" : [

                    ],
                    "start" : 239,
                    "duration" : 289,
                    "mediaStart" : 54,
                    "mediaDuration" : 289,
                    "scalar" : 1,
                    "metadata" : {
                      "AutoAppliedSmartFocus" : "False",
                      "clipSpeedAttribute" : false
                    },
                    "animationTracks" : {

                    }
                  },
                  {
                    "id" : 23,
                    "_type" : "AMFile",
                    "src" : 16,
                    "trackNumber" : 0,
                    "attributes" : {
                      "ident" : "summerwhistling",
                      "gain" : 1.0,
                      "mixToMono" : false
                    },
                      "channelNumber" : "0,1",
                    "parameters" : {
                      "volume" : {
                        "type" : "double",
                        "keyframes" : [
                          {
                            "endTime" : 0,
                            "time" : 0,
                            "value" : 1.0,
                            "duration" : 0
                          },
                          {
                            "endTime" : 109,
                            "time" : 109,
                            "value" : 1.40816326530612,
                            "duration" : 0
                          },
                          {
                            "endTime" : 131,
                            "time" : 131,
                            "value" : 0.0,
                            "duration" : 0
                          },
                          {
                            "endTime" : 132,
                            "time" : 132,
                            "value" : 1.0,
                            "duration" : 0
                          }
                        ]
                      }
                    },
                    "effects" : [

                    ],
                    "start" : 528,
                    "duration" : 131,
                    "mediaStart" : 0,
                    "mediaDuration" : 131,
                    "scalar" : 1,
                    "metadata" : {
                      "clipSpeedAttribute" : false
                    },
                    "animationTracks" : {

                    }
                  },
                  {
                    "id" : 24,
                    "_type" : "ScreenVMFile",
                    "src" : 1,
                    "trackNumber" : 0,
                    "attributes" : {
                      "ident" : "Rec 12-22-19"
                    },
                    "parameters" : {
                      "cursorScale" : {
                        "type" : "double",
                        "defaultValue" : 1.0,
                        "interp" : "linr"
                      },
                      "cursorOpacity" : {
                        "type" : "double",
                        "defaultValue" : 1.0,
                        "interp" : "linr"
                      }
                    },
                    "effects" : [

                    ],
                    "start" : 659,
                    "duration" : 2760,
                    "mediaStart" : 250,
                    "mediaDuration" : 2760,
                    "scalar" : 1,
                    "metadata" : {
                      "AutoAppliedSmartFocus" : "False",
                      "clipSpeedAttribute" : false
                    },
                    "animationTracks" : {

                    }
                  },
                  {
                    "id" : 25,
                    "_type" : "ScreenVMFile",
                    "src" : 1,
                    "trackNumber" : 0,
                    "attributes" : {
                      "ident" : "Rec 12-22-19"
                    },
                    "parameters" : {
                      "cursorScale" : {
                        "type" : "double",
                        "defaultValue" : 1.0,
                        "interp" : "linr"
                      },
                      "cursorOpacity" : {
                        "type" : "double",
                        "defaultValue" : 1.0,
                        "interp" : "linr"
                      }
                    },
                    "effects" : [

                    ],
                    "start" : 3420,
                    "duration" : 1247,
                    "mediaStart" : 3994,
                    "mediaDuration" : 1247,
                    "scalar" : 1,
                    "metadata" : {
                      "AutoAppliedSmartFocus" : "False",
                      "clipSpeedAttribute" : false
                    },
                    "animationTracks" : {

                    }
                  },
                  {
                    "id" : 26,
                    "_type" : "AMFile",
                    "src" : 16,
                    "trackNumber" : 0,
                    "attributes" : {
                      "ident" : "summerwhistling",
                      "gain" : 1.0,
                      "mixToMono" : false
                    },
                      "channelNumber" : "0,1",
                    "parameters" : {
                      "volume" : {
                        "type" : "double",
                        "keyframes" : [
                          {
                            "endTime" : 0,
                            "time" : 0,
                            "value" : 1.0,
                            "duration" : 0
                          },
                          {
                            "endTime" : 102,
                            "time" : 102,
                            "value" : 1.0,
                            "duration" : 0
                          },
                          {
                            "endTime" : 120,
                            "time" : 120,
                            "value" : 0.0,
                            "duration" : 0
                          },
                          {
                            "endTime" : 121,
                            "time" : 121,
                            "value" : 1.0,
                            "duration" : 0
                          }
                        ]
                      }
                    },
                    "effects" : [

                    ],
                    "start" : 4667,
                    "duration" : 153,
                    "mediaStart" : 0,
                    "mediaDuration" : 153,
                    "scalar" : 1,
                    "metadata" : {
                      "clipSpeedAttribute" : false
                    },
                    "animationTracks" : {

                    }
                  },
                  {
                    "id" : 27,
                    "_type" : "ScreenVMFile",
                    "src" : 2,
                    "trackNumber" : 0,
                    "attributes" : {
                      "ident" : "Rec 12-22-19_001"
                    },
                    "parameters" : {
                      "cursorScale" : {
                        "type" : "double",
                        "defaultValue" : 1.0,
                        "interp" : "linr"
                      },
                      "cursorOpacity" : {
                        "type" : "double",
                        "defaultValue" : 1.0,
                        "interp" : "linr"
                      }
                    },
                    "effects" : [

                    ],
                    "start" : 4820,
                    "duration" : 1577,
                    "mediaStart" : 314,
                    "mediaDuration" : 1577,
                    "scalar" : 1,
                    "metadata" : {
                      "AutoAppliedSmartFocus" : "False",
                      "clipSpeedAttribute" : false
                    },
                    "animationTracks" : {

                    }
                  },
                  {
                    "id" : 28,
                    "_type" : "AMFile",
                    "src" : 16,
                    "trackNumber" : 0,
                    "attributes" : {
                      "ident" : "summerwhistling",
                      "gain" : 1.0,
                      "mixToMono" : false
                    },
                      "channelNumber" : "0,1",
                    "parameters" : {
                      "volume" : {
                        "type" : "double",
                        "keyframes" : [
                          {
                            "endTime" : 0,
                            "time" : 0,
                            "value" : 1.0,
                            "duration" : 0
                          },
                          {
                            "endTime" : 99,
                            "time" : 99,
                            "value" : 1.0,
                            "duration" : 0
                          },
                          {
                            "endTime" : 116,
                            "time" : 116,
                            "value" : 0.0,
                            "duration" : 0
                          },
                          {
                            "endTime" : 117,
                            "time" : 117,
                            "value" : 1.0,
                            "duration" : 0
                          }
                        ]
                      }
                    },
                    "effects" : [

                    ],
                    "start" : 6397,
                    "duration" : 144,
                    "mediaStart" : 0,
                    "mediaDuration" : 144,
                    "scalar" : 1,
                    "metadata" : {
                      "clipSpeedAttribute" : false
                    },
                    "animationTracks" : {

                    }
                  },
                  {
                    "id" : 29,
                    "_type" : "ScreenVMFile",
                    "src" : 3,
                    "trackNumber" : 0,
                    "attributes" : {
                      "ident" : "Rec 12-22-19_002"
                    },
                    "parameters" : {
                      "cursorScale" : {
                        "type" : "double",
                        "defaultValue" : 1.0,
                        "interp" : "linr"
                      },
                      "cursorOpacity" : {
                        "type" : "double",
                        "defaultValue" : 1.0,
                        "interp" : "linr"
                      }
                    },
                    "effects" : [

                    ],
                    "start" : 6541,
                    "duration" : 1199,
                    "mediaStart" : 274,
                    "mediaDuration" : 1199,
                    "scalar" : 1,
                    "metadata" : {
                      "AutoAppliedSmartFocus" : "False",
                      "clipSpeedAttribute" : false
                    },
                    "animationTracks" : {

                    }
                  },
                  {
                    "id" : 30,
                    "_type" : "AMFile",
                    "src" : 16,
                    "trackNumber" : 0,
                    "attributes" : {
                      "ident" : "summerwhistling",
                      "gain" : 1.0,
                      "mixToMono" : false
                    },
                      "channelNumber" : "0,1",
                    "parameters" : {
                      "volume" : {
                        "type" : "double",
                        "keyframes" : [
                          {
                            "endTime" : 0,
                            "time" : 0,
                            "value" : 1.0,
                            "duration" : 0
                          },
                          {
                            "endTime" : 83,
                            "time" : 83,
                            "value" : 1.0,
                            "duration" : 0
                          },
                          {
                            "endTime" : 103,
                            "time" : 103,
                            "value" : 0.0,
                            "duration" : 0
                          },
                          {
                            "endTime" : 104,
                            "time" : 104,
                            "value" : 1.0,
                            "duration" : 0
                          }
                        ]
                      }
                    },
                    "effects" : [

                    ],
                    "start" : 7740,
                    "duration" : 165,
                    "mediaStart" : 0,
                    "mediaDuration" : 165,
                    "scalar" : 1,
                    "metadata" : {
                      "clipSpeedAttribute" : false
                    },
                    "animationTracks" : {

                    }
                  },
                  {
                    "id" : 31,
                    "_type" : "ScreenVMFile",
                    "src" : 4,
                    "trackNumber" : 0,
                    "attributes" : {
                      "ident" : "Rec 12-22-19_003"
                    },
                    "parameters" : {
                      "cursorScale" : {
                        "type" : "double",
                        "defaultValue" : 1.0,
                        "interp" : "linr"
                      },
                      "cursorOpacity" : {
                        "type" : "double",
                        "defaultValue" : 1.0,
                        "interp" : "linr"
                      }
                    },
                    "effects" : [

                    ],
                    "start" : 7906,
                    "duration" : 1588,
                    "mediaStart" : 199,
                    "mediaDuration" : 1588,
                    "scalar" : 1,
                    "metadata" : {
                      "AutoAppliedSmartFocus" : "False",
                      "clipSpeedAttribute" : false
                    },
                    "animationTracks" : {

                    }
                  },
                  {
                    "id" : 32,
                    "_type" : "AMFile",
                    "src" : 16,
                    "trackNumber" : 0,
                    "attributes" : {
                      "ident" : "summerwhistling",
                      "gain" : 1.0,
                      "mixToMono" : false
                    },
                      "channelNumber" : "0,1",
                    "parameters" : {
                      "volume" : {
                        "type" : "double",
                        "keyframes" : [
                          {
                            "endTime" : 0,
                            "time" : 0,
                            "value" : 1.0,
                            "duration" : 0
                          },
                          {
                            "endTime" : 79,
                            "time" : 79,
                            "value" : 1.0,
                            "duration" : 0
                          },
                          {
                            "endTime" : 96,
                            "time" : 96,
                            "value" : 0.0,
                            "duration" : 0
                          },
                          {
                            "endTime" : 97,
                            "time" : 97,
                            "value" : 1.0,
                            "duration" : 0
                          }
                        ]
                      }
                    },
                    "effects" : [
                        {
                          "effectName" : "NoiseReduction",
                          "category" : "categoryAudioEffects",
                          "parameters" : {
                            "denoiserAmount" : 20.0,
                            "denoiserThreshold" : 0.0,
                            "noiseProfile" : "DN75P7bO9z/1ofc/NZEHQL7uD0C1IAJAnFsUQKA2bECn2CZBdGeNQPGDr0BYi0hBDDSBQddO7kEc\r\nte1BN9dcQ9RzFkQBORlFjiUkRJ3iB0NeKVRELRemQ662SkKCYo5BhlEcQU2TAEGmBcxA6eq6QJfk\r\nkkAjY6JAkFgcQS15QEFwlAVBIb1OQWFuJUJFqIBCBk0aQbhYYkHIGWRCd+NfQu4WOENU84xFASHM\r\nQmK3BkL/ywdC4jQ3QoszJEHv/Y9ByQMiQQxrNUHSqUNB1flmQS91X0N+8YtB2O2MQa24l0HUycdB\r\nAy7rQbW/IEIhyn9CHIOWQ9bIJUWf9zVEL9w6Q1l/bUJwaExCIdyvQnhyOUKa/EVCHAqXQmE/F0Kd\r\n17lCSf+JQlClo0Kdi5ZC0hoRQ5fcyEJlV1ZDNqA1QystAES4XAxE0SPyRAUJIkWaFvNGXU3pRsJh\r\nMkVGoIlE0KIFRKdHpUOBjihDPBuSQ1wSxUJj3JNDEM9gRtf/g0X/kZFDoOffQrWqPEIFGJdCgn0T\r\nQmB3EkJKZjtC3BBZQrogfUH9fhBDs/FBQhwsvkFUABVCASOEQuF/5kHMgldB3WIUQgoQZkF1aP5A\r\n+7jbQOSQpEGLEktCPlyKQQ8OkEG6p1xB/G49Qi3ankF2ZphC1CORQ7M8rkGD4d1ApnVdQdE1mEDB\r\nBiZB8z1nQHgZ0EAMmkJBxdmlQNGaCEGUyq1BmMgGQZdI4kBoDshBm00mQW4aTkETH/JAJXUWQRVf\r\nl0C6+jVBUQfrQPjz/D8K9G5AIwBMQBz4qUCQMiJBajAwQTyjXUFIIss/Rs76P100AkGjKI5AbO86\r\nQSiraUEj+ZFBTyWxQMsLD0AtwD9AiunwQfGWbEHc/8JBPUB5QacvP0FMeoBBLvEsQT+Uh0D4PbFA\r\nvJlVQQiwpj/mXBRBSkm5QGNbcD9M1E4/agmOPwZrJkA21uFAaqhnQC6hiD/4T0NBa/+ZQHzfgkAh\r\nyQ9BuPfiQBmnz0Arg/VA/nWKQCyl00HG1DRA/EhxQdlwGUAGHVxBCpgSQcAXEEG0FsVBra8FQtQR\r\nzUEnPQpCMAEeQhP7KEEeeHZBwc55QNx2nkEamedAeGtJQIuMRUH8HsxAUyCcQHjQN0Au44dBUfQW\r\nQeqVmUCi2NhAZvGvQMwfBEEfdZo/7MxFP+oxtkDQOm5ALrIfQNGonz8tbuxA3kAmQH1b0kDhNjVA\r\nhzdRQfSoBEL2bdI/1lq/QSzCPUFB0uY/3zcXQZydd0DloMg/emLdQO02QEC61vU+Ok7BPl3ZDz9w\r\npdE+MMNsQP76uz95XO8/ENspQXCgPUEpxIRAgN+iQCLq7j/Cfhs/Md6RPpKX/T+mUJ8/c7nNP6v8\r\nsD8LCpk+gzLqPrDfmD/KnGM+sOp1PzWDOj/Q29I/Mcg0QDadfj/4ljpAFjaJQCAkrz/I+24/dqFc\r\nP8Nqiz8RBHI/IYW7P01zgT82sjI/GVk4PmBp8D64xjo/sJKXP/k5jT6oZIM/UzGKQFHK3j8uytQ+\r\nXlXFP/sAiz94pSY/kgHlP2EzVj+lsa0+BCntP6eWbz/gouU+suu3PhiC9T8zego/XpVAQJP4kT/y\r\nv3g/2Js8Pnx0yz/dfkFAmtPfP4EpmT9ua21AWHMrP4nusD/yMeM/B87zP/ZHNUBBoSk/J4UVQAiT\r\nc0BxD5s+8NsxQPY/zUDQWN8/HsVaPxA5+D+jCyJAv06kP9O01T3KSUlAccTsP9w5GT/h2xZA/uCS\r\nQGFRBkBoqpk+v6GqPzCzNEAm0+c+XoVyP3gEi0CKYDBA1+OcPuMpLT/tqI9AtXiPP5Qgxj9IXTNA\r\neusWP4RDeT6Lbc8+nMHYP/EWokAa/nU/vah7P0x9NEA8N/Y/F/4VP6Rx4D+3LSY/UPvLPUblDj9h\r\nLcM9OELIPqqrwj5Kh9w+pZUhP/Z6mz+uUgU/5FQjP/R92T6YwO0++eGYPbwVZD7yruQ+jrDmPnA0\r\nyT0iMZs+ELI+P0hjVj6M1+8+s3koP3qNaj5kxqs9rj21P5Ss3D9KVdA+8EawP7doAj+n6BE+ZGuN\r\nPgP/jD4Z7IQ/jsihPsydET86GG0+SzgGQDzejz/MGeQ+pnkoQPpntz/yLQM/1QmZPbkPjT/LV5g/\r\nWUoxPV9FSj5FRxRASvB6P5xSzT/SB2Q/twwVQBLR0D8ifDc/yg5NQGBfbkDO3lE/lGvpP/AxCEAi\r\njM8/3trjPkGftT+CNeM/eSnxPqmhhT7Ti7M/Qm71P3ZzTD48SO8+HnrBP2zAnT4FCYo9JgGGP4vt\r\n+z9gBdc+muK+PuwtlT4pBHw9ob6/PVLnFz8WhUg/jTuFPkmMCT4wqsM+jizjP9jWNj8eDQk/rmXt\r\nP7DO1z8g5bY9TNZdP1itNUDlDTY/dr4+PjIDVT9V7xI/j10xPpJbpj6LI4w/ZPqUPw2Olz6wTn0/\r\n3cfVP3J3fT86My4+q/sTQCUA5j9gJQs/aPsLQBg0K0Bb21A/xGnKP8Kb/T+4GQdAPeCNP52LBECm\r\nGXFAWN9TQMverj5IfYQ/nlIUQPeQmT8T1ns/jTA/QFhbuj/820Y/sAckQBf8j0DgOHQ/iG/0Py/j\r\nMUBlytw/sM6tPzdt/D+FyAdAPTo7QApLrj+9OABAG5+CQOIPU0Aey8Q/jGVGQDkCgUDmm9I/bKR0\r\nQJNdokAMayRAkr7oP+dTAEAN0c8/XMoRQJAuEUBZ+as/ppMrQBgnrz/h7PI+3BGvP3ZO5D/K9hg/\r\nvjQNP+7XYD/tkwY/+cooPkglwD82IoA/VeuNPpfVtT7u2Bs/6MLOPpIS7D4+UKc+VMEiPxpTbD9R\r\nnlI/QAmDPuDmhD+GwvE+shYoPW5oXD5ZJwU/5PUjPvUa7D2TpBk/mmjVPy0cxT4MIz8+xdMJP14g\r\n1j4MVYo+rliLPhpfiD+aJOQ/1syfPnb8yT3sm38/RgLRP1eIiT6ycoM/OGKVPwNXCD9ClwU/IVYF\r\nQO/2HECB89c/Fb37Prk1sj8SL8w/AhcmP5s1bT6Dcv0/22qtP2x5sz6h1AtAG4B9QIKOgT+pFiI+\r\nbjOwP1I7EkCJdBk/CczzPlqCsz/cfJY/RGkfPquS0T7q0/k/VJcPQHbo7D3T9bI/7ZAEQFPCcj8E\r\n+vo8Es2wP6i8pT/dMtM+JB4tPnlauT+xesw/qirqPkFK5D5MINw/Sv9rPz2tcT7oXtg+lUWcP/02\r\n5j5C0EM+tzwlP+CyFj/H0/U+C71QP8F6IT87pFg/Bo6ZPkYcyj1If4s+Kl3LPrP5Ej0YpvA9zKX0\r\nPfyElD6RnDY+g7mVPirP+Dx8TrA9uCHkPPAFBj0YZSk+h7uoPmKy/jwM1nQ9YFt8PdpAqT0khaw9\r\nZfb3PuqJcD2yezw9Icc1Pr/OHD6SCcw9oDLcPXyyBD4xDQ8+kmHgPH/2+T3WHOo+nBXpPivtwz3g\r\nSBQ/+8jmPggWCT7+q509637CPsb0Pz6+bvI83+UgPuakSj7vuME9gORmPXBxuz7rMQA99kCSPq/i\r\ntT4lwA89JiVRPm+Elz3MKKs9SsMAPry87DzOIH49nNNSPoP8Kz4Gb+o8Obw7Pf4u9T3XURw+gxs4\r\nPRMrFj5PLus86RMNPrxptT1aeOY9ViYsPkzs4jz6Wcg9MKorPbBDSj3IVo092AxvPi1GEz34Zbg9\r\nrLs6PcDyED3oNjU9kaIBPjJM6DwnLy8+rdjdPeeoZT0VoTk+zfgxPy3FGD/ol40/eU4lP5rD1z6+\r\njgA/UmELP7tp4j12+G4+6naaPaD96TyBDNw9Cp4tPgxlrD3PrTs+PjnwPeheIj2VfVE+XUUVP5MG\r\nlT4d/zs/0DvfPpTuzD7asik/QtJkP40DAz9VfVE/U5tBP1l+Mz/eJkg/HGKrP/CEIT/yqi0/1ZUj\r\nP1giSz9IbRc/BBi/P3Gcfz82cEQ/jxl6Pnaeaz4PO0E/TEsOP4dGOT6WkKg+2/C8PTnFLT2IAN09\r\nRd6CPugrVj5bag499YzHPYTAyjxsbc09HmKIPnCteT5kXcs9rMwUPiJ5KD5AAN89Ol9sPnzMaT5I\r\nhGI9XnjEPQ8YYT6vpS89aF4XPnnkuT2Olik+R1puPfFfID2ja8U8YqFsPvLexDzsp8Q8cl3EPPmK\r\nkj7dT7M9XwmAPWpewzw2iNs9QO3CPHqlbT5/x+E9IUuyPc9dYT05BOc9l67GPbMYkj40pl49tXV4\r\nPZBq5j2ycjA+IUJ4PU+YHz5VOjI+hxe0PajSoj0ILII+4AonPZazID5tzyM+4l4GPpyWhD30CAM+\r\nCrr9PKvlBT551DE9caO8PPpbFj0LCrs9OjBjPRVSkT5/Iws+pOrrPJXs5z1zyCs+OXzcPUWjYj6x\r\nM7o8gaQ+PmA4mz0UFsY802XlPX7gDT6m0PE9Szi5PcDjEz1cXpw9ro/CPdjtFT3Wvdw8EpEuPshN\r\nkT2tKtY8jWmBPUcPtzz0HaM9bYu2PBT4tjwxsbY86KS2PEKRtjyWjb48oJu+PCuHpz3V37Y8EuXJ\r\nPaCDnD4cp7A95BjZPLylvTza3Kc80FThPd4oSz0toT093cS3PN0gsTwKza88k6+wPPWfVT3p5Lc8\r\nnzM6Pna4xj0G2wI9G3YHPsZlQj7H+gs9PkeSPTNztD1JZok9sbKLPTHwuT5OlG8+ZoEXPez0mz3I\r\nRWA+o2UaPgBBQD6ioa88jGqzPT2e0TwyayY9cHsVPgl+lD5behQ9Wtk0Pax6rjxPv6081Gq6PbNZ\r\n6zwtu6w8aci8PA7FtzxScaw8zQ1YPSMkAj2GHq08bq4UPfoSkT1vMrQ+i8FuPq2aPj2i7q49VxUD\r\nPuvYjT2VfIw+iRLZPcZ6rDzcOoc9rQZvPmPnZD0bVnk9CferPIR25zxpmiw9bUeBPRjC6Dz5Wj4+\r\nEuKHPeWzjz2/Zgs9UB+rPLEIqzyO0/M8bx0CPQm1XD3pB/0850EtPjvBAz53MQ09KhBmPWM3qjxr\r\nLKo8Vo8PPTl/HD2u+iw9gUZ6PSmvuzxGSjs9gtoLPaQsOD1VbKk8U86cPRAApD0EPAI9pDQGPqCw\r\nXj1JWMU8zwWJPXmLMj5wnZM9KFHLPF+kqDxLsKg8fY2oPAzjrjxmdag8hyT/PFepHD2zaAM9MImu\r\nPIxrWj2v9jg9/ugfPcILOD1LlSo+4AzkPKFpsTytYUM947+nPAwojz3zoKc8oZenPI+Mpzy1yAI9\r\n3CZmPRrPET0KYwk9aigGPTRghT48oM89kiqnPAcUBz3DB/k8hg+nPCxxGD3v/6Y8gOgbPRzypjw4\r\nzO48g67IPM4H6jyGZUs9ZF1tPfg1HD37b2E9HE0fPYyEGj12cws9Rp/8PPGLpjydoNM84/HNPIGg\r\nMD16A+U8hHGmPNQykj1LBmw992GmPM3MBz3r7Sw9rzEpPcpSpjyamQw9Kl0LPRKgKj0MuiA9NOYQ\r\nPdZDpjx9/xA97DymPB56Ej1wmx09/PKzPHovpjwNyx49BdL7PD66LD031gA9zlTmPK8vpjxBGnk/\r\n2G56P1pmfz//iIo/nBqPP7wLoD8gJsc/HN73P9w4/EDaJXlA/c6QQECGBEGC+SRB5GaOQf100EGg\r\n691CTNgFQ+LB7UQuq9VDb62QQpeTH0IGev5B2lQhQdrYukClLpZAd0hwQPJeNEAoshpAnNwHQEJT\r\nJUATAGhADHOjQC2XDkB31IJA37I2QXhYwEFpTmdAvEeaQPcY8UB0iQJCo0tuQqDDIkQMRT1BHNjJ\r\nQOJeEEEXfXNAPiMYQHSJyz92vO8/iBgAQIOeoT9sogpAe5OAQV+2qECK/sE/BNqQQKjicUDgHr9A\r\nOXW3QBw5JUH8bxBCFmxRRKhp+kJE1/ZBhg0pQU5yz0AbqZNAMn3RQKdyEUC17hJBDtKVQEwqgkBn\r\n6itAcGc/QA2NgkDx389AWmXtQDznuUCQz/pAf8n9QT8tIULrGGlCkB0URNT4GUX6nFhEg/ptQnwZ\r\nuEGwi7xBa6q/QfaWFEIbr3VCAwHZQoj1mEPpOdRF/f8xRjhd2UMkzhJDSsyMQtwJN0JWrt9BWSYp\r\nQl89aUE+PzpBUcIUQTtoV0FgK8RAyAICQVPEjEF3/4xAJxzlQD7D2kHbAxpCSK0xQpjvgkK4PdFB\r\niktxQSLvI0L5ChZC+EafP+mun0D6og1AmXAOQDkXQEHBlVBC5ECYQD5WZ0EhS8JBN3vEQYkZbULB\r\niy1Ci6saQvHGI0LeAKBCOKgbQm1Bo0G6UxdCogOQQSA32EB2hQFA0gSDQJLuIUBfkUU/LuWcQL83\r\nF0GVKuZArWhNQdJr3kG+XdNBksO9Qeqd3EESwos/kphMQSmWfEECsG5BqCGuQfT0wz8ML6FBH+DX\r\nQBQpXkEsKkZBKdxYQBx9S0BWx7hAbmytPxM7xkB4YMRAGW6hQFpuVj8l1edAiRKxQMsnIkGFZcZB\r\nV4xxQYxVPkLMMrlCEtmbQkQBgELLBHJCXgCPQminiEKfufNBU6PYQWio+kHa9vFBSkmpQRofRkH2\r\nsPRAmiXfQOrT00FN39lBPOeCQGrOb0GWCFRB7c2QP4klhEFyKn1BS3ETQKON8T6y0YJAcZiPQMQU\r\nDUHNht9AzVzOQLYhkkFbS2xB4WadQN29QEEzA5JA9PZbP+So7T817NQ/7U++PuKvHz9I6hQ/uyq2\r\nP0iwEEDbzFM/ds36P7mfrkDCn1xAurk6QGi900DtIShAu/3oPkeMtj53s8o/ULflP82xIkBm2QJA\r\nQ91jPpS7KUDFHa8+BHv0P90n8ED0rnU/Hhb/P395YUBVKtE+yKKgPq7u0D7ywkg/4PWuPwLq/j8i\r\nwVlAvtPKQKhzb0BOhR9AZD8WQCUoLD9v3Gg/Q1tFPzQThz7NBmI/dY6XPt8xgD/XJPU/iFndP4mG\r\ncz9frDtAZErRP/DErj8GGM0/u45GP/wfTD5ivak9CAiFPcB9VT9ULlE/JIrnP37STUDXMwFAByBD\r\nQLRmCUAfnT9Av9MfQEqOtj9Ym7Q/OLpCPz3KhD1wM8k9s83BPVsS7D6A8Ww+VGuOP7WQQj9V1Ms/\r\nQwc9QD7usj/h2aM/P3cQQHJdhkDFVSlAjE0NQOU3KUDyyHw/3Oq0P/+6SD+uCME/nopuPsguID+u\r\nqoo/yhcLP10l1z4cUtY+IbMYPgcWgz9qt48/r5AMQCqHV0AdGAlA8JiQQOAmqUBe7oVAcHvpP8HA\r\npT+5IKA/+7qNPiEgqD4oD5E9PMykP7OQ4j9jUw1AYnb3Py3fiUBfqodANHieQKWLTEDTUU5AlC0J\r\nQB3j4j+hc7Y/iJaZPj46ND++wVE/ekQYP2OkA0DCLh1A17pAQC7NTEBA91lAoUAPQKKJZUBkirdA\r\nyh4LQJ5uBUCk4yRAb/61P/RusD+Jlxc960QZPga6Lj+nsVU/Qru+P6aXqj/8gcQ/IbW3P3RR4T/4\r\nuMk/ztZ8Pw0LGT8+bQw/NWYFPmnFVz9mydE/ZqEqQP8bIkDNPyVAcmQgQGfAA0DoLhtABPwDQDC8\r\nmD8cZDw9XAwFPbwfQz3wwHY9+1zSPUL3ED8igRI+7TPrPnkXiT8z8bs/II4uPwXgEkBxYPs/nUui\r\nPx7z3z+h4XA/gCppPrReJj4Sm3c+gFe2PAjqqT7QN7I+4sPDP8oq/z/AB+o/wh6pP3jxB0AAsCJA\r\nzsgrQBYfTkDz77c/LIuFPwKLRz8z+yk/VkcFPR4EzD7GuYI/1YDQP+46ZD9pp60/7LMQQHJQQkB3\r\nAENAON9vQKdkPEBfLng/pXuBPwJhGj9G/uw+4URSPqcUAz+Umzk/y3QDP3VZMj7MZwE/4V8FPxLj\r\nKj7pBIM+X2LmPp0XDD+LM3I+LTVBPyYBHj8qoTs/ykkEP6EmET/6+54+q8UtPMr3Uz48R/o9ntS5\r\nPfz9OD2OLWw+HopCPhLrmD7SWUI/sQjTP3Mnkz+j4J4/+crjP5ilwz/Wpa4/bmqgP4iLZD9YfKU+\r\nOcSiPvgLLD+kObk/MQVmPwrvYD+D+rw/RD77P67afz+6emU/ayYQQB7keD8ZSk4/uUe0P0sj5T+G\r\nwOk/uZT4P/L++j9WegFAdEMqQIojIUDwI0lAp93QP5xgC0BX3QVADUoUQJXGsj/CSNM/RpolQJ1m\r\nX0BUkAVALfolQDZ0b0BCzGtArlBNQGQsb0BoBalAQSZHQBHOK0CoekpA9NNFQD8EGEAVGRJABvMs\r\nQHu6M0Bnax9A0CxRQCvQgkA1ZSRAQjAFQPFwP0D9nUlAnm0OQEBUJkABRzlAbg3ZP9NCgD/G5ag/\r\n+E61P+Rwoz8TVm0/yAWOP8gHfT90i5o+lrgKP1xOfD81TTc/NTJRPrK9BD9sLUk/K8XrPqfGUT4i\r\nvi4/x7BHPyqaoT6vs889uYArP3VgaT92Fss+UpEyPltgSD/2hJs/ZusLP5wG1jw87+g+URClP+ZH\r\nLT++73I+vWDaPzipFUA7qUc/ZU9zP4iWuT/vzVY/iI0OPpZI3j5/ALA/pnCdP+nACD9f+eU/YvIN\r\nQGzxiT/2unw/Ug4zQCJ0O0Bzgo8/M53EP+dfI0B3U4k/wDzsPj9Inj8/4CFAcXCfP+h9NT8aiBtA\r\nj7xZQBybhD+WNHo/GYDtPwcLXj8dcxc9HkesPuyjqj9MmIE/IXzVPR4DPD8sXcY/f8yTPzqhZz7R\r\nouw/vHdHQItheT8OVvg+l38sQIJ+LkDcUlE/lP4UPzsMyT8WCYI/Qj8rPnN4Uj7aFTo/xH5yP8/z\r\nED++ydk/7poLQN1mej/g21I/MVzNP09Hlz+gkD0+uOrYPh5CHD89kIA+QEn6O777Nj3Qzbw9ySTx\r\nPfmGyDx9moA9YKjHPetrvD2DOgY++83ZPoAGiT5tKqk9f5QOPgzmgj0DMSY9uebpPcCc9Tz+ZLg7\r\nXUsuPaoyYj3vLWI9bE/+PZKo5j2Elb499jfIPf6q3j0bBcg9pJD5PtaCJz8wyfM+NWVhPrJQID7O\r\nI8o9fr/OPRAMET3yU8U9JNj5PUaiHD3j3kU9c6ZmPY7erz07GFQ9rWYGPaHRyD2LnrA++8/mPbkS\r\n4z76RY4+c5XAPeswdT6fmUM+/CBaPQzCKzw0H4I8PD53PSrWuj37ctU96hGsPcgOqD7dd1g+7cTN\r\nPTBFIj4SZlM+0jShPDiz7T1037E9QhpePaa7JD66O6s9GtaIPWxjoj6hPZM8lbAKPa9Ahj7Fy4s+\r\nDxqDPQJEkT5X8Sc/0urjPgm19z4xRZI9+BEoPYJTgD2ua789OWbrPQmgnz1WPBw+xDIGP8SoEz/3\r\nLz8+TK+PPlglnT6lH6I+aPOgPovfCD8pq6U++klsPloqJT4cPt49CiYZPhv8nz5QYsQ+E+V4Pyyt\r\nMT9JTAk/EKKCP8uU1D/9fqQ/mY2fP3UMvj9J9Zc/cIqjP9LS4T9AbeU/LCZdPw1f4D4teBE/0/Qe\r\nP1nfzj6Y/1U/pGGOPzyrBz901W0+ssakPt9+MT8OExA/oeASP6IiFj+d66Q+0CUsPF3HED32cYA9\r\n6OPCPa0nhzvLkcU9FjzwPVhIvT0sKGE9PnglPk6jfD3U55A8vsFkPDC+sT1oygQ+2puJPl2XAz4l\r\nVxk9se4ePQdxljvRKms90Ja7PRxRuj2obWY801YIPVmVbD17/tg9Zh0zPeTQhj2ik9U80F3FPZB/\r\nSD0ksqo89xndPMRfgT2mvc89TD7fPZFryTxz7G89UtGWPQQ0Gz6yA4E+aPT8PZVz2T0FWhc9i7Vz\r\nPReQRT6KGdM+va62PmZHCD9Vwcw+Lmv7Pd2omj1oPoY9mCGfPW/2sj02uH8+hMGYPkhmOz4yLvs7\r\n7lNGPd9fOD6x1/A8fXp1PTbqGT5+Wvk9hpSHPTYKbD3OUn89ancQPsrgYD4UmCo+wAdmPNWKdzvu\r\nF109rM/PPXH/DT1+A/08J70VPg4xVT7lp7A9aMh/PXgonj1QO/U9EPDMPSiCbT2fgHQ7vGIdPFrj\r\n/DtYy6k8KmyPPA9IND3sAnE9FdG1PVXCzT1xjJE9zC5ePXFXeD4Z6Ck+gyh0PIwXWDzjeQM9CG7s\r\nOxEhfzzaOM07xAlCPfH9fztfAqU8e5IlPsDyIT5uRD090sbePTibJD5Eoa49VoZyPATNpT1giK09\r\nYjWbPQpw+zzElFg8FJZuOw6B1D3zEjc+l2UsPl+Hez3gqCc9mMkFPgGboT3Ap/A8bc+kPRDztT1U\r\nOag9Yz0APVAo6Tvk4JY8EaqZOzC3kj0Z97Y9Oe9DPi+HDz5r4VQ8aVyXPH4ihztBuL48OB3wPNqd\r\nzT2YZcY9UR8oPKYmnTsjAk89hCppPc9hZz252Zo8jj5nO2un9j1lIoA+zps3PtJQqT3VR2U9DHvC\r\nPd9LzD2cW4Y9DZYHPfKF7j2YM9I99fVRPaZkZTsGTmU7gEiCO5wOZTt1wbM7S9JkO6dGfj2u+609\r\nK3yTPLmmJzwYf/c8GGA9PGpEZzwMxAY9Yod8PIq7Yztu7w49r5IFPkg2jz0c3/k8NTFjO4yoxDvb\r\njY08s8toPM5PdjsuTWM74zdiO1GMYjsggJo8mIZiO9x15DvhWmI7k0urPEFZCD7g7LI9pSgmPQKD\r\nKjyGEPQ869+SPZoo9zwCYHg7tVp3PFCrYDuSUnA7YhCzO5w6qDxo1gg8jQ1APHLEXDyAqMA8Dt8O\r\nPPBC1Dzg/NY8CZBKPdIaCTxYvUc88KsDPFEiZDt2qYk7sSSFO/9DWjuNdfI7xrEfPBobUjzwNag7\r\nwUGEO7zjqTsWJsQ8dLqXPae7sD3I3qE8nMofPEyS1zyczz08yFZeO+U7Xjs3Nl476XPeOxtvdDtD\r\nJl47zSVeO2ES0TtOt2Q7rBheO4X7ljsB/V07nTa7O0QVXjvMxl07ABJdPJ3NXTtpOdg7JNJrPL9I\r\ndDz66YA8ct8bPThNCT3w3B08mlL7PMRtMz1y2Zo8vInCOyafXTtYmV07rJZdO+kmiTsIHRo8Z/od\r\nPClTgDuSh1077oRdO4OQijtLOAk8EWYwPNwEhjvKd107/XmHO3bEYTsyaF07vG9dOw==",
                            "noiseTrainingType" : "default"
                          }
                        }
                    ],
                    "start" : 9494,
                    "duration" : 96,
                    "mediaStart" : 0,
                    "mediaDuration" : 96,
                    "scalar" : 1,
                    "metadata" : {
                      "clipSpeedAttribute" : false
                    },
                    "animationTracks" : {

                    }
                  },
                  {
                    "id" : 33,
                    "_type" : "ScreenVMFile",
                    "src" : 5,
                    "trackNumber" : 0,
                    "attributes" : {
                      "ident" : "Rec 12-22-19_004"
                    },
                    "parameters" : {
                      "cursorScale" : {
                        "type" : "double",
                        "defaultValue" : 1.0,
                        "interp" : "linr"
                      },
                      "cursorOpacity" : {
                        "type" : "double",
                        "defaultValue" : 1.0,
                        "interp" : "linr"
                      }
                    },
                    "effects" : [

                    ],
                    "start" : 9592,
                    "duration" : 1230,
                    "mediaStart" : 144,
                    "mediaDuration" : 1230,
                    "scalar" : 1,
                    "metadata" : {
                      "AutoAppliedSmartFocus" : "False",
                      "clipSpeedAttribute" : false
                    },
                    "animationTracks" : {

                    }
                  },
                  {
                    "id" : 34,
                    "_type" : "ScreenVMFile",
                    "src" : 5,
                    "trackNumber" : 0,
                    "attributes" : {
                      "ident" : "Rec 12-22-19_004"
                    },
                    "parameters" : {
                      "cursorScale" : {
                        "type" : "double",
                        "defaultValue" : 1.0,
                        "interp" : "linr"
                      },
                      "cursorOpacity" : {
                        "type" : "double",
                        "defaultValue" : 1.0,
                        "interp" : "linr"
                      }
                    },
                    "effects" : [

                    ],
                    "start" : 10822,
                    "duration" : 298,
                    "mediaStart" : 2774,
                    "mediaDuration" : 298,
                    "scalar" : 1,
                    "metadata" : {
                      "AutoAppliedSmartFocus" : "False",
                      "clipSpeedAttribute" : false
                    },
                    "animationTracks" : {

                    }
                  },
                  {
                    "id" : 35,
                    "_type" : "AMFile",
                    "src" : 16,
                    "trackNumber" : 0,
                    "attributes" : {
                      "ident" : "summerwhistling",
                      "gain" : 1.0,
                      "mixToMono" : false
                    },
                      "channelNumber" : "0,1",
                    "parameters" : {
                      "volume" : {
                        "type" : "double",
                        "keyframes" : [
                          {
                            "endTime" : 0,
                            "time" : 0,
                            "value" : 1.0,
                            "duration" : 0
                          },
                          {
                            "endTime" : 100,
                            "time" : 100,
                            "value" : 1.0,
                            "duration" : 0
                          },
                          {
                            "endTime" : 121,
                            "time" : 121,
                            "value" : 0.0,
                            "duration" : 0
                          },
                          {
                            "endTime" : 122,
                            "time" : 122,
                            "value" : 1.0,
                            "duration" : 0
                          }
                        ]
                      }
                    },
                    "effects" : [

                    ],
                    "start" : 11121,
                    "duration" : 121,
                    "mediaStart" : 0,
                    "mediaDuration" : 121,
                    "scalar" : 1,
                    "metadata" : {
                      "clipSpeedAttribute" : false
                    },
                    "animationTracks" : {

                    }
                  },
                  {
                    "id" : 36,
                    "_type" : "ScreenVMFile",
                    "src" : 6,
                    "trackNumber" : 0,
                    "attributes" : {
                      "ident" : "Rec 12-22-19_005"
                    },
                    "parameters" : {
                      "translation0" : {
                        "type" : "double",
                        "defaultValue" : -2.04067873710301e-10,
                        "interp" : "eioe"
                      },
                      "translation1" : {
                        "type" : "double",
                        "defaultValue" : 2.29647412197665e-11,
                        "interp" : "eioe"
                      },
                      "cursorScale" : {
                        "type" : "double",
                        "defaultValue" : 1.0,
                        "interp" : "linr"
                      },
                      "cursorOpacity" : {
                        "type" : "double",
                        "defaultValue" : 1.0,
                        "interp" : "linr"
                      }
                    },
                    "effects" : [

                    ],
                    "start" : 11242,
                    "duration" : 531,
                    "mediaStart" : 220,
                    "mediaDuration" : 531,
                    "scalar" : 1,
                    "metadata" : {
                      "AutoAppliedSmartFocus" : "False",
                      "clipSpeedAttribute" : false,
                      "default-scale0" : 1.0,
                      "default-scale1" : 1.0,
                      "default-translation0" : 0.0,
                      "default-translation1" : 0.0
                    },
                    "animationTracks" : {

                    }
                  },
                  {
                    "id" : 37,
                    "_type" : "AMFile",
                    "src" : 16,
                    "trackNumber" : 0,
                    "attributes" : {
                      "ident" : "summerwhistling",
                      "gain" : 1.0,
                      "mixToMono" : false
                    },
                      "channelNumber" : "0,1",
                    "parameters" : {
                      "volume" : {
                        "type" : "double",
                        "keyframes" : [
                          {
                            "endTime" : 0,
                            "time" : 0,
                            "value" : 1.0,
                            "duration" : 0
                          },
                          {
                            "endTime" : 82,
                            "time" : 82,
                            "value" : 1.0,
                            "duration" : 0
                          },
                          {
                            "endTime" : 142,
                            "time" : 142,
                            "value" : 0.0,
                            "duration" : 0
                          },
                          {
                            "endTime" : 143,
                            "time" : 143,
                            "value" : 1.0,
                            "duration" : 0
                          }
                        ]
                      }
                    },
                    "effects" : [

                    ],
                    "start" : 11773,
                    "duration" : 142,
                    "mediaStart" : 0,
                    "mediaDuration" : 142,
                    "scalar" : 1,
                    "metadata" : {
                      "clipSpeedAttribute" : false
                    },
                    "animationTracks" : {

                    }
                  }
                ],
                "transitions" : [
                  {
                    "name" : "Fade",
                    "duration" : 30,
                    "trivial" : false,
                    "reverse" : false,
                    "useAudioPreRoll" : true,
                    "useVisualPreRoll" : true,
                    "rightMedia" : 24
                  }
                ]
              },
              {
                "trackIndex" : 3,
                "medias" : [
                  {
                    "id" : 38,
                    "_type" : "AMFile",
                    "src" : 16,
                    "trackNumber" : 0,
                    "attributes" : {
                      "ident" : "summerwhistling",
                      "gain" : 1.0,
                      "mixToMono" : false
                    },
                      "channelNumber" : "0,1",
                    "parameters" : {
                      "volume" : {
                        "type" : "double",
                        "keyframes" : [
                          {
                            "endTime" : 0,
                            "time" : 0,
                            "value" : 1.0,
                            "duration" : 0
                          },
                          {
                            "endTime" : 248,
                            "time" : 248,
                            "value" : 0.890109890109891,
                            "duration" : 0
                          },
                          {
                            "endTime" : 338,
                            "time" : 338,
                            "value" : 0.0,
                            "duration" : 0
                          },
                          {
                            "endTime" : 339,
                            "time" : 339,
                            "value" : 1.0,
                            "duration" : 0
                          }
                        ]
                      }
                    },
                    "effects" : [

                    ],
                    "start" : 0,
                    "duration" : 239,
                    "mediaStart" : 0,
                    "mediaDuration" : 239,
                    "scalar" : 1,
                    "metadata" : {
                      "clipSpeedAttribute" : false
                    },
                    "animationTracks" : {

                    }
                  },
                  {
                    "id" : 39,
                    "_type" : "UnifiedMedia",
                    "video" : 
                        {
                          "id" : 40,
                          "_type" : "VMFile",
                          "src" : 7,
                          "trackNumber" : 1,
                          "attributes" : {
                            "ident" : "Rec 12-22-19_006"
                          },
                          "parameters" : {
                            "translation0" : 602.0,
                            "translation1" : -282.823529411888,
                            "scale0" : 0.25,
                            "scale1" : 0.25
                          },
                          "effects" : [

                          ],
                          "start" : 239,
                          "duration" : 289,
                          "mediaStart" : 54,
                          "mediaDuration" : 289,
                          "scalar" : 1,
                          "animationTracks" : {

                          }
                        },
                    "audio" : 
                        {
                          "id" : 41,
                          "_type" : "AMFile",
                          "src" : 7,
                          "trackNumber" : 2,
                          "attributes" : {
                            "ident" : "",
                            "gain" : 1.0,
                            "mixToMono" : false
                          },
                            "channelNumber" : "0,1",
                          "effects" : [
                              {
                                "effectName" : "NoiseReduction",
                                "category" : "categoryAudioEffects",
                                "parameters" : {
                                  "denoiserAmount" : 20.0,
                                  "denoiserThreshold" : 0.0,
                                  "noiseProfile" : "w8jnQkqnkUEtowNB7SWDQM5kU0EAm4w/HKJ7P/cnfz+IIec+NDqVPiF0XT7s6bs+VIwNPsENhj6C\r\nds4+Z+ORPkIxFD6/wN49A9/1PQs19D3K24U9IhdcPr/IPT4ko1w+gAWyPYhvSz6OeXY9Rk1nPSSg\r\n0T0sbZc9SXq1PaBZFj3WbVo+3ASOPdSuMj6CMqM9iPU1Pn9vIT5LQI89F4i0PbzYFj6keD4+DeB7\r\nPyRdIz8nwFU+dgANPv9Tuj6DZnw+buH8PeDrgD3fnAU9tLibPeeIaT13lw0+3TnDPVr9vD3Jw2E9\r\noNoQPrcZvz27+Bo9RWIvPSriRD2JpVk9ync2PetcXz1tmaQ9Ni7OPZ4BYj3F6ng9xOYqPX5imj31\r\nbGA9+lKkPQTq+j3tr549rwR+PS/HhD34fGY9KES2PZaIoj0gksA9ys/WPK3DUD1JLiw9rtepPWwN\r\npD0omEI982maPQz1cT056Ys919eFPWmtQD3UDDA906D+PDg4yz0Ay2E913I9Pfa/hD1ggrk9CGH5\r\nPCQrGz2saSM+R0AUPQLMHj0wJAs93nPJPIpq3DwAIgU98bg1PRrsqjxptXA9bzohPSd1GD0N9gM9\r\nSmVCPUOaqTwCFAY9xrLdPLSa2zxPocQ87uDyPGFuFj0U1Nc8PMy9PLZlhzw9BMc8AVItPZDn4zzp\r\nRos8oFXcPF4TBj2atQA9bXe5PNwZnDyWo5k8LgSdPESCujzthY48ruaXPCg0Hz2Vhis9kpHHPFM1\r\nFT3g2o08/Eb2PETa+TxtIPQ8DB/YPNMtuDyywSg96B1hPDUnqzy75sE8odOwPGgbFz1cTpI8jhXx\r\nPKYifTwKpqM8qbb3PAE1dDys7rg8UjnSPKEDqTyw7848YCN0PGrqKDxgMJg8CB2kPPB2fDz45Mc8\r\nxh2TPICbhjxIJKM8IXJPPJFSqDwmJIs8G8oJPD1huDxNoVk8pK6ZPA57qzxQbxY8+n5kPLyMPDwV\r\nXfY8s4uoPKUYZzyCqHo8evUZPB2/IjzytVk8LXaLPD63vjzo5oc8NS6XPI647TvMfqA8QHrRPF3a\r\nhTx2/ZY8h0QdPPEMOTy68WQ8SrunPEL0lzwxAXI88ggQPPP6Ozzyi9U8W+ZqPKeojzxcvWY8CVmg\r\nPOWSTDwQRrs8+NQsPbD3njy6d5Y8uE4vPKNB0jwy/ps85bF2PGtC6TwQz2Q8dxYhPPCBRDySHDk8\r\nLYqFPChepjwHheQ8A/MpPNxDpjvaqYk8kXxZPIb6YzxK0gM8iFdSPLlTLDxuKZY8O7a5PBp2OzwA\r\nXgI9/WuqPNeTiDxc5mk8ZanBO7haYjyV0bs8/Ac8PGuORDw18/A8mobkPDGYNzxn8Mc7havHPEQ5\r\nCDzJ8lQ8AkF9PIIfJj3E0m880G9pPLICWTz0KOk7gv8kPDQozzvC4zI8niYIPMpU5TsJLR08lsE6\r\nPM1q6DtXPu07NgOHPBX7sjwwU7g83JFnPLwnKjzDuYo8SMjaPMyYZDxSxDw8z/cnPJgfcDxk6GA8\r\nfO+gPPEOJTw6glY8J+HPPOWtwTzu9lc8e6YhPAcllTwHUvY7DVQtPHwSoTyoRWg8T6tyPPS7gTxR\r\nYJ48y3ryO18ZljycJmE820NQPOb9Vjxxx1c8Co3uO0/MXDyzFzw8H24bPAziWjyoIkA8B1XYO6a9\r\nejyruUI8+8YsPOI6gTzaCHk8bOATPCuyfzzhUBY8wpDOO2uSJjywR5M8/6nYO+hvLzzUgUI8t3+F\r\nPDZ94Dtl0JI8WJ0bPH8ocDwBBw48RI8wPOL5njuCFoY8GcqTPIXBQTyn5aM8qogsPM8iaDzo9nA8\r\nDb74O3gBNTxuP+g8sDKlPEeYLDxYjKE8dmebPLaR3zvTnHk82kkqPHbyNDy4upg8XQ12PBT35Tzk\r\nAIk8rA2cPHCZSTxA9rU8L4ibPF+dgzxXPY48rAGyPEf/jzyXC7o81E3ZPOABWD1upQQ9kPlyPWLw\r\nPj7IrWU/LuNpP9NL6z2ChqY9Ru+FPWGINj2AadU8i+7tPJu7oDwXays9uOKtPPTDrDy+76o8EvF5\r\nPG9JlDxdoC48TJ2JPPozOjynY0c8+BhRPBqQCj00ffg7I6dgPKItSzy71P07VGsQPNijMDwZdi08\r\nd3UHPPXIKzxsYUw8CI41PFcnFzy/Sgk8kPWzO5D2NjxDGVI8GN5EPIEwvzwJw1Y80OENPJ+HLDzO\r\nD4w7uFDeO4Rt5jtjS088fFtIPOOtrDyjZtw7aIsBPMN3RTzAkcc8lco4PG4+/ztgMUI8H16QPLv1\r\neTwKH208PgNSPLPnBDwinIE8o/MtPHquTjwymOw7i1tGPJy5CTy6S448phkMPKe0kTx7Src7F7QS\r\nPN9FYTyJMyM8o2EDPC7RKDxZ6EY8PEAoPMsG9DuSJiw8tlQuPD7iwzs/sW08zYZxO7BpLjwZvSg8\r\nRvjnO7SC0zuwgC888iVUPOjvRzw4vUE8om4EPBxf4ztZZTQ8u0JZPKhYvTtjjdc7Gq1xPKVzkTuY\r\n0iU8AeARPO6YTzx5Xw48RSVvPC7IzztkbSE8Rpv/OwQ3izs8x0M8PMGuO+9LiDvC+TI8mmUaPNIi\r\nXzzqZkw797BqPHq1CzzecAk8kgJsPJpO8DvyGX88FApkPKBxMzy7GKY7Ii8DPGJUyTsp1eI78tYV\r\nPDv3yTw43GI85Mp3PCXqJzyGJfg7zVq+O+3nIjzvTik8A30SPPZzmzw1LQY8FDzfOxyjkTzkNM87\r\nTh1iPJ7VKzzOztk7zK9EPJ6zCDyU7SY8yH1KPM2ZQT3EWYM8XLOvPGXE4jxkA0k83b1HPPprGDyh\r\n9Uw87UcHPH79wzuhsgU8E2xmPLE3NTyp9Rc8nE22O+S0DDx6MRs8IoY4POb8uDxcxvw7nYlRPEFg\r\ngDu/61M8FOUHPIvWhDwcEmg8pYgKPPkK1DsCQTs8M2EsPJqWUDzWKzY8fP4GPOYDDTx489U7Oesa\r\nPHBmHTzH01Q8GVsoPEf7tDvzm2Q8UWcwPJYQ/zsstTY8dYb2O11CsTwuVSk8zad7PG+4Jzy8nDg8\r\ngLrzO1tCVTw68WI8L3GZPFgZRTxk7vU72jCrPLTdSjwUiQA8HJgIPDtWPzwY+m08L6UUPLmVDjyi\r\nSBE8V6gFPIpZ0DxEsEM7gmSGPAN+Czwk5pc8xNI1PBKsfzz6+508qca3O/YXdDxAIBU808PoPJVl\r\nHjzNREU8k6QXPOv6yztY3uk7a5coPOTmYTw0lic8gJgVPAKmfTvi3Z47Zk2+Ox1mNTyYabQ7U8+b\r\nPCv3DTy6p6Y8FBkEPSOpCDzGJy48rqMiPMXRAzwRyOU7R3uuO+xM9juLEyk8BBtUPAmhBzyrPDo8\r\nNI5HPGDfETyyFxc8WdFdPHHwcjz3teU7Vwv2O5eRQTwgLxs8ZNWYPPWsiDzSvg485N0yPNbdrjv1\r\nJBw8279dPMQfSjysAg08pAsVPBY0ejyIXAg8WdDKO8CX1zs6jkA821aZPAaiJDz97GE8XQwWPGT/\r\npTteFwg8cuOgOxZk0jtGqDg8ORq9PMqN+jskN3o8AvbOO/h7wzuHjRQ8pq76O24RCTzowUc88nsC\r\nPEnItTwQoZ87MiU3PJgQsTtioaU7AXPYOwqjuzsXVT486CurO/TvLjxCFjo8LihYPML5DTyeZDQ8\r\niA49PFDRgTwoPWc8AX+dPN1RgTxp1fA7EB/aO2iozTsMIUs814W+O8GFnjtk+hs8YbC9PFOE9zvN\r\njqo7R8c0PHpDCzwynbA7fuSVOywisjuDEXQ7iu2ZO57z2TszJfk7IkQDPI0T2DsNJhw8jo5tOyK6\r\nrjuBSS482YufOxt0+TvhKLI72eohPFoCjztlNTw8L3vkO2wB8TumU1w8U9VHPFIuajw+vXw8AOk3\r\nPPBzvzvPyJI81wAJPH77tDsQQF88ZhcGPCy66zsoFCE8y4FRPKzZITwMoiw85WhRPKBpgjzebX88\r\nMDFoPDSSnjwef4Q/Wg2MPI/4SDy0Eqo8gVttPP78CDxu6b484844PEb4Uzzq8ew7wBl0POTrjzzZ\r\nwTg8zsREPCp3UDw48wc8teggPEmhEDxKH3A8SPN/O7/7PzzY7hs89IyYO2h5kTx3R5k7he20O9KV\r\ngzz5nhA8A2Q9PNOyBDzGZvo7kwqDPCfB3jsOOSA88MVmPMjJ6Ts0AFM8Yr+rPP6cOTxqwDA8dHoc\r\nPFYPYzxbkxM86eogPAoPwzvfPco7KghiPHyzmzwzktE7iSn4O9TuIDx+oIg8SIz2O5iAoTusApc7\r\nTEnOOw61WDwnew08SsmYPKQnjzzC/vI7kH8GPM8/OTwso+M7v0vKO9NkHjwM2GE8T9EQPBd7Dzwi\r\nCwM8nnTiO8Gs6TsMBxg86DbOO+B1PzynxTI86uOjO8a09Tvzvms8qE8lPN8nZDwj4QU8dfDeO/XT\r\n1zvy7EA8WU2FO5x15TuppY47my0qPL16/TvBJEU83044PHNpkTxUcU88pztPPBugkjyTtWM8DePI\r\nO5uO9js5V5w8eIkYPEDnCzw06jk8iL7xO1oRyTsjK7M8TYUtPPeu5Ttn1R88I3JRPBBZPjwqGhk8\r\na6aCPI8DHzxML9A7QKXBO7gV2Dve5jQ86i9JPF6UBjxJkIw7x6EDPO7GGjzuv9w7/JwGPPpjvjvh\r\n6Vo8XhpdPPp0dD0bilc9GAGOPLfsfjxwNfU7uoaRPOWThzwxhSQ8nV5CPBH+qTutENs7C+DtO5j0\r\nFDwRx7o7Q77dOzyf8TvCASk88igaPEEYHzxEKDQ83msSPc68Jz0cx2o9yhjbPKhjrDzirxk8050l\r\nPBonbDxeI5c7FwQSPACkXTzk/tY7RecJPOqK/Ts40eU7hoMePOJMSDymhoA8DEDwO2t7AT1O0Tg8\r\n9EHxO3XiODxyl0s8dMMqPIZORjzpJkE86JKTO4TFBzyue8c83MoRPPheOjxZ2FA8BusYPNGCszv/\r\nyYU81hxOPKo2/DsQElQ8UevIOxdE+jtBWLc73T5GPIO3Qjx6eGc7wVgDPNrTcDztZC88VUnoO8fR\r\nKzwpHy081Ud4PPx1EzxbNhg8V0H2O1zDsTsIj/M7HPelPMLNhDvOMJA722ePO+LfCjyEgMo7Ud7P\r\nO1hwMTygzzU8uJZJPNDCHjwIh7k7xgu4O2gOFjy2MMQ7Jo1UPPPahzz+lGs8uIQ4PO7ZIjyCitc7\r\nSbMzPFhVQDzSo987q0VFO7KhrjsrTbQ7pbuBO44yjztoaQA8zs7JO20f0DsIU0U7/7wdPEaVAjzd\r\nvgU8D6Y0PBR9czxDVG88QMphPCxx8DsqADM88oVlPAtFLzwzF5Y7YVmfOzZjVjsKGmE7TK3EO3Dr\r\nXjsC6pw7tgCDO0NmDTuYrYg7JwB+PAQcvTuUL0k8q648PCObqDvIl/E7XMHiOzo71jv/wNA7onDi\r\nOzZZzTu9rdU78iOsO7EFADxgCbk7jCZrO42YtTviN5074QPnO+17ujvoeoQ7iZ1tO0jwyDt21+ZC\r\n7AKQQXJL3UAeL35APipTQXImhz+Sy5A/DqxMP6Nv4T4J+IQ+2WWRPmzW2D6a1fc9fhpIPmy/ij79\r\nCqQ+F8BiPpbJzz2F4wI+cuDNPc1jgD0b2nw+wS08Pu8PRT7jYuw9zqgLPuYouD05ZVQ9monHPaFD\r\npD2GCO09nncRPdrYJz7ozIA9dHQ8PuCD6j1CJEo+y5QYPq7PkD0Q8hA+TLwoPmMRTz6Mmmo/PwoH\r\nPzz2Uz65IxI+i4fcPqIYUz67L9o9sHm5PW6F9jxkNoU9gjhiPUwF9T1O7Js9hxGlPbqgeD07MCI+\r\no/nePZIoBz3vOCw9kQhrPVstYz0Cxk89YAVEPfQ2qz3K8MA93cpePf+tmz1xtzQ9Zx94PWg2Qj2i\r\nm3g9A9OvPcSRMD3yNZ89YjkrPXlRjz3+fro9FuCMPZqNzz11puw8UpJzPQUmcD0cfc892I6wPZ2L\r\nbz2CiJg9NRhsPRDhoj3yVns987VsPf0yOD2H9/Y84pK7PXOddD22h249FyJ8PUFyvj2BFxA9v40V\r\nPbqgKD4Kpyg9D7RHPRCgTT287PQ81mYoPe7YuTze8zA9+0fKPBZrNj1SG/A8qt2sPExBQz3O94I9\r\nXk+/PEpO2zwH2go9zggaPbhl4TyuMQM9wLYaPWBuwzwnc6I8xGNdPBJQ7jwOrFI9mO0NPQZLeTwP\r\nY8k8g3fTPGaP/DxxL6Q8rnimPOueizxwmwM93kLYPIPCVzxunbA8qoM5PUngKD11SO08DTq/PNfw\r\nvTyDogE9UhDhPGSK0Ty1AQg9nwfnPBJ2Gj2nA7E8oO3APNeblzyxcYk8FPnZPBDkvzw+Sis9oaaQ\r\nPMz3azwZO/08DgExPNxfvTyOvGw8sOLSPOkMnTxsPJI8BliIPHzoqTxotgA9wByvPKbkyzzOQLc8\r\nwxmkPLjo6zxVmyQ8eE6WPECpXDyRISQ8GJbxPGarKzyUvsI8mrXRPHbOczwTl5I8T6rpO4w3kzy0\r\nesU81iFePFR5jzx6bz88OdUuPOUeiDww0ck8z3DEPABHWDwknbA8vkMRPCCNrDwjErY83oHEPC4b\r\noTw0+3I830c4PIBHHjzBXpI8j9SrPAfIhzwgA0Q8nP95PGti4jzmdMc7ehoTPQZhOzwCX708hlY0\r\nPAbl0zyM1SQ9bBhiPGZKmzwOs6c8udhFPLukWjwISX88umLGPEioNDx0DxI8QClUPCv3eTy+gKQ8\r\nbRhzPPC9Ez0VYy48z8kwPHSMYDzl6Dk8VtosPF4C2DuwJD88ECgZPLDRXTy+lGM8InNjPMgs8jx4\r\nRo08koGMPJ2DDjxI5uE76p2EPCQxuTyyI2s8nkEuPMbUujw2H8U8QEXpO7199zs6rsw8fMF7PFYU\r\ngDz0n2c8i8LEPM0mHDwaNUk8ijJQPByvzjvY3TE8wwIjPJVcXDwNGls8GGshPKSXBTwoBho8/KR9\r\nPM+2MjxXcGE8QcyaPMX4pTx5/408PRmWPPbkqDwDBOI8QpcnPMFGLDzMWMU8EqYzPI1fYzyRA5U8\r\nvZo2POtckjxPs9Y8FvqfPHLBhTz9cmE88txtPMaoKjxIGKo8mtDRPDL9KzzKMJo8zpOjPLmVnDyC\r\nGT48A/KZPPYGWDznI5Y8vw1fPOCzjDya4dg7MAp+PE1wKDy80D88mq08PGnYbDw/HwU8ggANPNQZ\r\nHzw+wTA8tzFfPEStbzzmyhE8ju17PJBPIjysP707GHBGPGgmbTyODP47TE1oPGdhRTxEGWw8z2Dz\r\nOzQuODyyVDA8Tc8TPMTRLTw4yGI82LjNOxvbbzwQJbQ8AwgyPMAFgDwQKTw8bteKPPTUCDxIc6I8\r\nPrZgPAN/2DwqRZI8L4I0PETicTyQoxA8h9BcPPbQqjyi3VE8aZUwPI5uQTz2WFg8mCGvPIOuhzwI\r\nZZw8dK4rPM7WizwH4zM8PjumPJV0gTwjzag80xJ/PDa2tTyzvPQ8nH9APcExJT169YI95qw/PpTt\r\ncT8Ium8/hyIHPhveiT22wZA9nvUWPYmu6DxW8Bc921yjPH9ELD1EYto8i9GePCmrkTzqG1U8eJ5h\r\nPLQGjDxQSao8IqcOPL3DFDwHIV080A61PCyt7DvVDCc8I0pPPPuWCDwAQM87NVAdPC5LZTz6H1k8\r\nK+YSPO68WDytpzk8wAULPFTuBjxWiB88Zh4hPLM9/DthXvw7NFVxPMCgnTweD+o72C8ePGbwYDsd\r\nn3k7pFS/O0VUUTypPg88gG3EPIafPTxmhek7F4CLPDy/cjxphi08gk4hPCCfLDxxmpc8GycfPALJ\r\nRjyIbzA8fogXPPi3tjwN5t07CsVWPLSRFDxCSws8F+K/O6ZbNjxecC88+hl5PM9eTTwKDOk7YCtK\r\nPJukSTwSbVo8GgztOzupIzz5OT08QfKQO4VdQDxIA2Y8hCf2O2ehDTz0jm07XlLxOzXgUDx/ZtI7\r\nS/q0O/RHOTxF1FE8LCNhPOcE3TvqVgY8UFRCPNPNSDxId308oTTqO5Pu1jtiomM84FekOyiKEjzm\r\niME7LIgtPJfLCzz+cKE8FpUAPD/CrjtN0Sk8wHWcO5CrCjxgTkw80T+jO30qQDxiXhM8TcBKPLfi\r\nDjyomFE8dKjaO3+rbzz2Exo8CFvEOzPhAjziLY480pOwO5/ozTtZFhU8o84RPFhi/TtfOio8U/2t\r\nPAZxizzIsLQ83AY0PNGF8ztZms07Z/joO2RlQTxpAZM8yEBnPA7LfjzFm407poLuPGjZTTu59Ao8\r\nup0OPMan3jsewG889K8FPEjuLzwIuCI8lXlsPc77bDzk26o8+sSvPMCAMjywwpI8yn1FPLSCzjxM\r\n2VY8Qq8FPPgrQTwnFxk8uhHVO112BDyczQI8MEAxPKVrCTxbqEY8mBunPMS84jsWHSE8zq1IPHJP\r\nODwMGgs8F47UPKa6cTxC5fk7W2f+OwaDJzw+iIE8Ms42PAaV/jtI+tg7CDIYPE4IAjxk97s7q14G\r\nPJEhaTzCTgs8WIMaPH90XjwR8/A7RJbVOy5nQDxogUE8QigmPHNGMzxD0eI7kjAEPOGMETzwLhY8\r\n+M1SPIRA1DvBHI08HCFgPHw/kzwxGIs8+CJAPHdPGDzvszs8wV9OPLjPMDxGz+I77OfPO2CY9jvR\r\n5gM8YhlkPHL4ijuP5lI8N6MhPJjg2TwAXSY8apWWPBY1wTzwmLI7x4qbPJ6w4juzaQY9p7MBPGYW\r\nOjwCLzw8I8NkO15c5jty5Og77reAPO90dDyK3jM8MlOyO3jeWDuPYeM7Z3ArPNDvHzwuWzw8Xf0Y\r\nPI4UyjxpkaI8BxaSPDJsUzxiAFw8aw3tO1jkxjuKrbo7soRqPLOo5zsQ6i48jEW8O16e/TuMUS88\r\n75IsPJrvsjteJIo87ToAPLnUHzzbEfc7DcPqO5x7gDzeOIc8E9SFPHALyDtiyMs73F8ZPDj7hTy5\r\nv2U8DoSjPMjNxDuEUQ882RuZPOuyajxQYxU8SUvpO0ZgeDwAwJg8BjKnO7K9EDxV+RY8ELAQPKrf\r\nOjzwwX07dYQVPCMQEjzNZ388MCYCPL1ACDwYcN87BwneO6cC4jui/Dw8dVtzPOnd9Dt6Tyc8R96u\r\nPKrD5DunuAA8eJ8SPJvYhjuJKrk7eNy4O9yyDTxa45U7hkETPBKGCDyTJeY71ijuOyGzXDyQoN87\r\n/QE8PA47Jjxhotk8jQ2nPGA/IzyfhLk7Vt79O/ttdzxu82g8FG+TO4arjDxkidE8FiRXPDeb1TsN\r\nUSc8zLhvPFBkmTvcaAc8tzyvO8CXSDyBAYo7PQ/GO1ZLLDzybsk7cWtCPDvHCjxs44c7VVTBO+go\r\nWDwooqA7ZMwePBB0pztpVyI83nOXO2pB6juBmZg7apZhPJRvIDxhhwU8MQkzPBblXzxRa6o7ZQ2y\r\nO5HDgzxgaSg82B26O0CGWDwONlk8xTMYPFAwTzwHqoc8WphTPInRPDznYSE88LabPNwvTTwqkjs8\r\n0nurPCVCjT81BK48tzGUPHFFUTyDLmU8aNsAPJNBizwmk+g7Wlj3O0meAzxOdIo8kKpFPJQQCTxe\r\nl3Q86M/CPEjNAzxib6U7YTn9Oxp6DDzOQuw7PBsNPD4eHzxxG8o7S18aPE05vjv0S9w7GZmoO3MJ\r\n8TvLwIk8JTopPLIt8js6Ed07vacXPPgLBDyCzqI7ENVqPOWJlzxIaGY8XbpBPOKblzy8w8I7GngT\r\nPOyJ8TtiKBU8J/oVPBHchjt767U73HoXPDoorjvFcAE83mciPAwZgzxEY387kpKRO3Ez7ju6XWM8\r\nKgGBPDlVbzyiPZU8nMatPIAgDDzepdU740d1PA8MCDx3Y1U8RdFJPHsXZzzJ1Y47DDICPN9Izjs0\r\nfMY7Wqc+PK70ITy9LCQ8bXbBO5ynUjxanck7mZjmO84uIzx/y088nKCjPPXUHTxnsM47ULkbPKWY\r\nMjxIeOs7WREFPIQf5DtOY487otVUPAZP2jslqT883AQDPXFiWTwi9GU8/68mPKa6aDybQJ079rTT\r\nOwP9rzs6JI48lQ+6O5cgEDxOhrw7cNsVPI3c+Dt7Ytc7cX4IPBThsztpkGA8uiWUO0fZ4TtDJl88\r\nETZWPCyvCDzm8g08K7ISPIs87DuK3Gs8S2+bO9DOaDudfrA8I+b/O77e8zs4+NA79JoQPEARUjz+\r\nV4s8Mv6ZPf91MT290LI8sZZ4PLpE7ztErWY8mTBJPPpaNjzWDwg8QXeYO/YRsDs5dag7lMY/PBZN\r\nfTvWC687AP4yPImCWTxGNCg8LiAQPGIvGzwDx/48+6I1PSYyQD0+xo488kJ3PKjKlzwlQg48lves\r\nPJLBLzxMTC48C74NPGKbNjzKHeA7DrYHPPT+/Dtt3Zw7b+aOO4iVyDxf0RQ8j6ixPOBwKDyAr0M8\r\nyayOO3zU/TuWiCg8bAPlO3aANDwYIE889+4PPDuLyTxcU5Q7iS6hO2nrODy2kFY8rptWPLjQxDtN\r\ncyg8y8fPO8V0jjwTiSE8Z6ygO36s3jtZLCM8FbgUPJC0wjuZthw8UqE5PDlBYTs5T5g78F0IPF8c\r\nOzx58Ic8ms3NO6DALDzU7AA8lbTWO448LzwfCeo8cvoOPNYSpDtRLf47IzD+OxdiLjxivK470OUC\r\nPDQbIjyOZvg7LOhpPO/4qzswbIQ7Fhw2PDIcrTtaBS88j+hqPKqWfjyHzn48W4rrO04tAjwxsAo8\r\nDR7fOzve0DtIFVM7IjbnO2AagTtEygs8qUcwPF42AzyAbgw8i4JUO57rrjsxoEw8Xv1CPPGLuTsg\r\nhfM7Uk6ePBs+wztt/jQ8gAokPByeJTyLiSE8vsa/O5vVCzxkTdw7uaaEO3cPhjso/aE7i/+sOz3v\r\n7zvjzdY7OWYcO7A+3Duxojo8zs66O74BxjvbTA88RDrJO7C5rDuJDJo7A3ukO1eSkzvvjFo7jUzv\r\nO/N6Mzye9rg7k73EO3h1wDsQYYE7rHffO+W1ljt0E/A7BTziO61XuTuk4HA7RBBJOw==",
                                  "noiseTrainingType" : "default"
                                },
                                "metadata" : {
                                  "effectIndex" : "0"
                                }
                              }
                          ],
                          "start" : 239,
                          "duration" : 289,
                          "mediaStart" : 54,
                          "mediaDuration" : 289,
                          "scalar" : 1,
                          "animationTracks" : {

                          }
                        }
,
                    "start" : 239,
                    "duration" : 289,
                    "mediaStart" : 0,
                    "mediaDuration" : 359,
                    "scalar" : 1,
                    "metadata" : {
                      "clipSpeedAttribute" : false,
                      "default-translation1" : -324.0
                    }
                  },
                  {
                    "id" : 42,
                    "_type" : "IMFile",
                    "src" : 8,
                    "trackNumber" : 0,
                    "trimStartSum" : 0,
                    "attributes" : {
                      "ident" : "ui"
                    },
                    "parameters" : {
                      "translation0" : 33.8235294117423,
                      "translation1" : 2.47126763497363e-11,
                      "scale0" : 1.01442685758505,
                      "scale1" : 1.01442685758505
                    },
                    "effects" : [

                    ],
                    "start" : 528,
                    "duration" : 117,
                    "mediaStart" : 0,
                    "mediaDuration" : 1,
                    "scalar" : 1,
                    "metadata" : {
                      "clipSpeedAttribute" : false,
                      "default-scale0" : 0.673684210526316,
                      "default-scale1" : 0.673684210526316,
                      "default-translation0" : 0.0,
                      "default-translation1" : 0.0
                    },
                    "animationTracks" : {

                    }
                  },
                  {
                    "id" : 43,
                    "_type" : "UnifiedMedia",
                    "video" : 
                        {
                          "id" : 44,
                          "_type" : "VMFile",
                          "src" : 1,
                          "trackNumber" : 1,
                          "attributes" : {
                            "ident" : "Rec 12-22-19"
                          },
                          "parameters" : {
                            "translation0" : 602.0,
                            "translation1" : -279.882352941302,
                            "scale0" : 0.25,
                            "scale1" : 0.25
                          },
                          "effects" : [

                          ],
                          "start" : 645,
                          "duration" : 2760,
                          "mediaStart" : 250,
                          "mediaDuration" : 2760,
                          "scalar" : 1,
                          "animationTracks" : {

                          }
                        },
                    "audio" : 
                        {
                          "id" : 45,
                          "_type" : "AMFile",
                          "src" : 1,
                          "trackNumber" : 2,
                          "attributes" : {
                            "ident" : "",
                            "gain" : 1.0,
                            "mixToMono" : false
                          },
                            "channelNumber" : "0,1",
                          "effects" : [
                              {
                                "effectName" : "NoiseReduction",
                                "category" : "categoryAudioEffects",
                                "parameters" : {
                                  "denoiserAmount" : 20.0,
                                  "denoiserThreshold" : 0.0,
                                  "noiseProfile" : "zV42Q2x4pkJyFiJB5r61QCUjYEH1qaU/K9llP1VqJT/SshQ/4p3cPsptJj/UKYk+On6kPphQ7j6c\r\nc6w+zk1tPnZ4Wj6opkg+SBgNPn3nsz3NWx4++8LaPV2TwT13Faw95nYpPmitCD7IS9k9ZwusPVL5\r\nGz6apPs9+JXyPZsWaz6av0Y+d2GmPQyB4D12kEw9yJKoPUvTCz6hWJE9Bg7aPbGaEz6afxA+z92c\r\nPjEjIz8jGi4/9IzkPhhXbz40kSo+SuMHPkzEGT7zHX89wG/aPc9VnD0HPyM9WMt1Pfw4ED5zAzk9\r\nsRsnPetOHj1/b4g9H52vPThN6z37u3M9ARpoPW8ZvD1+g64991kmPd9zWT3l2Dg9DDzZPczP3Txu\r\nGvI8PP3wPEGdgT2YU5s84EVSPdzBQj0wL4I96uA6PTZyID4OK4s94ytTPU6ecD1g5QA90EEFPZER\r\nqTxm0KI8PU3RPHaiKD1cbFo9p2MpPRwO9TwTa/Q8/QeBPdqXajzSgQg9mgEOPS1Hfzy/zKY9tsry\r\nPNQKOz3G9tQ89TFiPMYXnTyby1M82ZuHPO/1GD32Jxo9StOWPVG3Bj2ke2c8vOoXPaJb3DzgGqc9\r\n/R7dPGaoRD6YMk89PNY5PXAkZT2SFkE9hW4cPRYv4z0FTpE9f3GAPS48CD3vD9E8ulm9PLFGkzzu\r\n7vQ999KwPLhdojyUij08Z4yWPHQJkDxdkoc8gNeaPEIr9jz4DVc8YuCwPNKXBT29Bek8lj+CPLza\r\nUD3Swvg8y2aMPMhjsDzuYgY9SCQJPbvkkzx6Ntk8Pj/ePO7sljxvz448Ol6SPEw+MTx3DdE8EdBY\r\nPBaPXDxdzNc8fEalPLcwUTyzgZ88er+ZPCU6oTxI3ck87jeiPOKzHDznf7s89hS+PN4vlDxS9bY8\r\nlJLAPLclNTylv7Y8xtw6PYuJnz3s4wc+8Px+PgPeLT6VUQ8+8y4ZPt474j0+0SQ8NhQ5PY1/zj0U\r\nB7U8RRWwPE0hxzy79pY8KqqaPO89wTwJ/jw84wV+PHGI3zzZVnU8uSCePFP8pDzQ+fE8HsZ4PF4+\r\nAj0AQ3k8tG5QPLCUJD1Cw188mC0bPSXu4zwuT3s8DG+JPCWvDDwO0+U8PCzEO3nAiDyM3I08u4Ld\r\nPJ4czTw62j49tMlfPds5rj1HEGE9KrzAPHknrDyflRI8XLZCPOKcGT0O3h88suQKPGDJQjxC2048\r\n0SvEPFxEkjzyBOg8LLFhPCXawDwKslo8tqM0PKUQjTxA5NM8mc9VPLjbnjtLvA89oODOPISZXj1T\r\nOXw9XO/RPEItUzyXEhA8dBnIPMwBSDwH1948gPtaPOY4OTwEAcU8QQ59PCSOpjwpwyU8lRXOPG4i\r\nJTxspag8abWHPP6UmDyc6B88vPLFPGb3azy/Azo86StUPJ4yfDznukw8qI0XPN8zXDyEzlk8KhCS\r\nPPvoQTzDi6g8xaKDPOUBUTwy/nc8xopgPP+DWTydLtY85gpYPBL3yDzqqak7p+icPH6NkTyMC888\r\nBrOnPPAnHzxE6Fw8HDTRPNfRiTxn4kE89LSQPM0WDTzVjFE8ennUO7DaMDwGJ8g7HDOkPCcMGDwV\r\nd9g8J1hoPBdoaTzuTfc7TCY5PDK2UjxQ58U8CaJDPE3iwzwo82Y8SBDnPKB8vzyBmQ09fiuMPLvY\r\nMD0N5Zc8doacPPnWAD2XtYI8XPH+PK3uBTwuDTc83N4fPNi1NDy0Nyk8jw82PJPjgzyiWGI8RSSv\r\nPADQjzuF4Bk8cO3EPPY0GDyEP/c7tGIAPDQMzTwau787WcRpPCA2cDxllHQ8w9wlPOLOazxmGUI8\r\n3Fb1O1LFazzReL080mYZPRzX+ztXdZ48wbwgPWVEgjyASuk7Q9MQPRDvTzyb3aA8Gq2FPC1BETzd\r\nhwE9UM93PD4FIzy6Hss8zqaEPN+2VTzz66s8z47kPF6YPjxKgos8XLMOPfkQQz0jaAs9IjWDPUgE\r\nAD4JJ1E/tx5/P+JlQD4VJHY9y3r1PJMxjz1kAEQ9uCV3PJFazTz6ues8TDmyPBm+Az3HXoc85krI\r\nPBmzWTy2jsQ8ECFJPODfcTz8VSA8HcWDPHnXajwyP4w8Pg0MPFTstjwCSTw8oYKyO/d2Fzzgmt07\r\nCSUyPKeq2DshWFE8AmF7PGhsOjwcR/07/O4JPHgGcTy2DrE8MqFVPECRLzx8Nxk808x6PFlglDyn\r\ny3A8+YTHO1hMHzwn2PU7GamIPN2HBTxzjuQ791OOPE3p4zsMR9Q7OZcAPJE0Pzwtdgc8L3htPIKR\r\nbDzO2bI8aQ55PBd0hTzCmTM8LxZKPAlR2Tshs+87wjxuPElBUjwLy4c8XINqPJL1DjyY6WY8GXIj\r\nPFyi3zwgDVM8QrzAO9QnSTznU2M875GDPCmFhjtmrS48HUv9O0CACzyZCZQ8Xtr6Oz7nADx5QwQ8\r\nPrvgO7v/Hjx57qc75kepPEqplDyKZTw8yNrvO5Us8zsVwaY8w2V3PAV0cTxj5Lk8XMkaPBnIRDxh\r\neNY7X3j1O94h9zuCBpI8N8BVPPwiWDvw2Ak8tDUMPKBvJTyCk148wsYLPPV+lzxgOLg8NOcePAY2\r\nzDyKWY88BBmZO7opiTx09fw7SfsmPOGoLDyAVBo8sJw3PCr2HjzHLCA8u28XPBykIjz+3Vk8uItB\r\nPFS+ZDxjk4Q8+u4APZVZMDwXkHQ8Qz0hPFiRRTx9edE7wj49PAaUDDw6iNs7ur8ZPPzkiDxQcBg8\r\nW6YSPBPREzwtyVY8VDkGPAdAwTvrDhM8Zs85PE7vWT0w7Cw8EYmXPE4dgDygaIs8+xDqO7+yhzz+\r\n0is8y1PxO5irVjyoNgs8irn0O45nCjyCyhg8N4MRPDF8QDz+AG88RWe+OwuqqTx2Rkg83LIGPKO/\r\nFzyR3LU83Z1RPM781DzID0c82ynNO/1bLzxgGfM7+OwEPNM5QDwHB8A7SZQIPIrjCTwrzuU7nE9c\r\nPIXa8ztLcZk8sFM2PHTTRjyUOQw8ObcHPJ3G2TvC8C48sOEpPJDK6zs/hhg8WobFO74jUzw1Xu47\r\ntHYxPI+Oojyrykc8oWHBO9/iyjtg9bo7BPZaPG8AyTvQ9zw8DpMAPN7T2zvF5/Y7NkUCPNaVFTx8\r\nEwU8nD+3O2AKNTyxixM8dqMgPBEenDs+jNk7bF8HPL3sEjwYxMU8bID2O4bFgTwbNA08IyZqPJ9V\r\ncjzig7475k9mPBDUCTxqJrM7TpiFPLTNMDyaEA48omewO/FTODycOUM8NmgHPN9MazxIZPY70gZv\r\nPIa4ITwp50k8SAidPHq6KTxOsjI82E++O/BiSDwUNNU7lD8bPF13yTvfMaU7JOQOPFx8CTxo2N07\r\nkJxDPOEpMjxoQPk7aG2/PI4XIDzV2Qg8VBrpOw6WADySIjA8+qr5O5xlPTwW//U7KrgNPBHUezx+\r\n/388Z7iPO8q9tTtffG08WTAaPAnQoDvBdpg7dhgfPOinfDzqGro7AU64PDaSEjx2fl47a9jyO8QZ\r\ntju8Az48+tf2O7ryzDuxmcM7E7EOPISGAzymdwU8gDDAO17XLzwROUY8LgZaPP6OGDyJRw48QlQq\r\nPJp4gTx4M0w886AqPIYEdjy8dAk8DOqLO7abATyP/U08pl7jO4RJ7Tuym5w89g3iO72suDsTyyA8\r\nqnzZO0iUCjxY2Cc8eP2BPDapvztnk4U789qbO9+wIjyN3iA8dO/MO7hykjtuMAI8lNpTPPkaAzy2\r\nR847+Zu8Ox5BLzxRZJY79WyeO4XiMDwpI407IB2SO2OTyTsaeGg80TB3PPsLkjzVpQM8XZsJPM61\r\nizw2IOs6SFDVO3pYCzzJWhU8No0xPFZezDv1HZw7x7bQO1lb+Dtf31c8UzV9PN1hxTuR1RY8SFh0\r\nPJnwGjyzHkA8uph1O8y0qjtcpyY86qGTPIpsNjxKUwY8xNqKPOQ6STymMCA8sE3+Oxk9ZzyrHVc8\r\nI12HPHE6gzwnpZE/7txqPNVetjy/aW48EV8PPKIL7TvudY08YperPJqBOTxOcR88i/JKPPBkhjyA\r\nXBs8wC6KPHxKLzzxWzM82n2AO0OjETyvejs8dGI5PNYTOzx8Rzc8JjQVPJqK6TsHYvo75pAfPB+A\r\nMTyFyAQ8Cs+yOz54Vjzuwq47hv0hPJ1pLjziHys8wvCyO/VPDjzYse48+q2jPLqqXTyleOY7iCqd\r\nPCBsADzrVdg73MeMPPTD3zsJqRs81UNqPCliCzyWULg7l+UpPDSyRDw0P6I8TvKsO2m/mDtxKT48\r\nTDdQPOYFdjxeoS48XexmPOznwDs4e6M7bPXkO2Ip3jtu0oY8cB2APDgklTseB587SjaxO1ZsyTvA\r\nUYQ7W4xaO6BIgzy3vSc8t8yOPAiFVDw9ZyA8nd7pO5JwNDx0FGU8vgVIPFxm1TsDT4c8CT54PKr3\r\nUjwmVdY7InCqO28tDzxDmnM8qaqHPPA8izzQHhM8YKpdPC7jIz2dC/I7H6VcPORdYjwl31A83ugB\r\nPOrSFDyRVwg8CGNmO2BvFDxoS687+JktPN078jtjZ0g8YJjvO5mbWjySfBU8IuDGO/oKeTz7n7M7\r\nMRi+O0gApTwi7g487O+sPIoEuTzOMME7sOYcPFB0sTyViJk8TkhMPLHNKDwZZUQ85niEPFMV4DsO\r\nVDE8WI8kPEz+gD2f1Ys8j/YbPDoUkzzfv208kcGqPC3QATw6zAA8PTsIPDu8tDsWFDw8ba3HO/Qg\r\n7DvduCI84gBFPPJD8zvmNQo8GS7fO4kacDyDFcE8LC+zPCqTJz1QQpA9Ua2ePOBcITxSJrQ8KCti\r\nPBcz5jtieAs8LE4EPN73zDsCnpo7Xsy5O1ZH4jsQ3tY7bkWvO7KHSTwDgN48mJW6PBp3pTzoFGk8\r\nCGVpPLk4NjyIYxQ8Ck4ePKdXXzx7aFA86BGZPFISyTtmUCw8WGXjO9wTMTy80uM7eWkVPMujsDs0\r\notI7NmUvPID+MzzJiio8DnUAPDACpjselTA8BLExPFR7EjwwRuw73ACDPI7wIjwzqQs8EgUnPF6g\r\n+ztaw1Y8SrZVPMStzTto6PU7b0O1O1EY0zuEDos7mPGLPHCUPjyDHd87otbHO1kmqjsODZ07Yicg\r\nPN9Tyzu6Kgc8wwcCPCZqEjxpk5w7xnMIPE5gFzzNkbs78tmKPH3xSDyJgCw8v/qqPA/tAjznEZo8\r\nzwP/O75QTjw76MM7HrO2Oy4UwjtyC/c78gJZOy6qATznFb07LbmCOx69jjtcb+Y7QrsYPPDW4jvc\r\nx1E8RB9HPH82UDzNSMo7um47PN5jHTzaBLY7f0q3PNZ4ZjyVz5k7PkOuO1TenDuO7oM7BHWiO79c\r\nVjvKGv07DoBlOwyqhDvbV7g7lrqpPM/vBDzQzwA8HODmO5llKTxecUU7wRaSOzS/uzvmtj48mJzf\r\nO661FDwIjhs8DLSYO7XJqDuIPo479CdlO8yQZDtkU4s7IllfPBCyTzygCJ07Ab8pPGHpeTzQlT9D\r\nQQqnQuBzDkGefcBAXhBsQQ2Aqj8Iv1U/9iE2PyEmDD+ryuo+rWNMP38NZT6Tets+6k73PpHZtj5P\r\nlm8+onBzPueAfT4gICw+mjrvPag3GT5+ERw+kYjHPedazD0N+xc+pj0iPmSUDz7HkcY9CvkNPohL\r\nDT4Ikeg9yjWPPlARGD7mrco9RDyCPb5Ffj3cJgA+QhfrPXAVbT1/E7o9AaXfPR4wFD5GLaI+2DER\r\nP7CzKj9JGd8+rodDPmByNT7IQw4+zRchPkQckj3YZ6g9dF91PdHdNj0ZtkA9bNvqPSdYWT1T8wo9\r\ndik8PWOkwD2yYPA98J6vPRim5D0gU1U99kK0PXjftD0x0iI9mI47PerDSD01HYw9iKGLPB2PAj0E\r\n9fo8tue8PYxOnjzzdTk9C206Pd/6bD1DkBA9gkY3PhiOkT1G2YI9wyZ1PZLorjwA9rk80ciBPH6D\r\nbzyzJPE8L/k8PWyzfz0KvUo9N6vNPBpUDT1+dTQ9IDnHPA6AAT0uLRU9qlu2PLreyT0wedg8itWY\r\nPdcG8DwO9Ek8VWWgPCowkjyCsPY8Nv9UPQWcFT1sCow9rkD3PM+eiTziCjQ9WfHbPLTW1j2UMrk8\r\nmVQNPgSlAT0+azU9WON3PcTJ/TwGQC09IcX3PQs3lT0pjWk9+rcIPUw5lDwOVaU8tAebPByqvz0r\r\naeo8XFiVPI4EODyLv7c8bcqwPNsFmjxGlsM8T/XaPHj2fDwSxJA8dp39PE9T2jzigIY8lGA/Pe0q\r\nGT08g588vVHAPEWTsDwMAgg9yIjQPDdVDj1RF8M8OzRvPDNKVDxzzlg8ia6FPLo5iTzNxlg8v1+v\r\nPNKslzzty4Y8pkV1PAo92Ty4nJk86IdaPPnYyDw1itM8zCM6PJFg0zxsS6Q8jbKVPBgLyTwBWN88\r\npT9TPKD2MD2diks9zVLBPUNp+z1dtHY+EuwnPrLiBj5znR4+IR7WPVMSHjzEwjY90LTwPSg+OTxT\r\n9Z88wpfBPLq4kTxo1pA8XCoGPY+RWjzltZ486DeqPGXDmjxc+8E8HRXwPLJE2DySSIk8NHQEPUSR\r\neDzCbFk8JcpyPR6SNDwscPQ8WuTlPHhhZTxmw4I8ng0EPIyNrDx4xLs73NqHPE5RVjyYbgY9MkAE\r\nPdlgRD3u91o9XSumPaXThz1sDJc8DOi+PB4mIzyhngs8yKsJPbhB/jsfix48qoI2PGfUJTyxUsU8\r\nWrAWPEqbrDwWbXo8fWKRPAQZazyqaXE8yXiXPLRM2jxvnEE8ci/SO4GxwDw2NOo8cuxRPUQGUz3K\r\nra88jnArPF//tjtOhd48t2A5PDfKyzzgBSo8wsY1PG4mpjzYDX48iCaBPHewJDzcDvE83IODPG1E\r\n5DwXsWA8fQ5xPB3cPjxk/NI81meLPHWSCDyW4AM8gXCXPMliXzxQrak81iyxPB9QCzwB2TM85/oU\r\nPNCdtDwR5II8JfFHPCCmijwYX4g8LQJJPAyI3zwHY4w8VKlKPPn2gztG72c8Y2huPC4XqzxcjU48\r\nRce9O5FtMDy84p08uoBsPFTyfTxqwTc8bD5IPG5uFjxuPjY8L5FGPNQFSjykEwE9TiJDPCR3mDwM\r\nAIg8J0BSPBus7zuOOUw8Ul+KPBiK/zws6Y089grxPHm8RDxQd508Bf/ePHqW8zx9gmg8fDQiPZrb\r\nfTyuBJ88l4byPDxWlzxvzdk8zeHuO2KEDzzkZ148UGRFPJS4DzwAxAY8zk9YPK6RbjzQB5o8LIPK\r\nOyVZ5DsxMYY8pIcSPMfZKDzYWkw8m5LFPBAY8zsT50k8uRCYPKL6ZTxRsDk8Ys9iPPC9XzwfB+47\r\n0y5WPBxShTwunCk9S1YLPJSWozxrzRk9F1pMPMg81Ttu3gk97hYFPBD4gDxl26s87brJOzEF+jzg\r\niIs80HE8PEMw7jwDW608DnRzPE/2iDwmgP88ySdEPNfuujx9egQ96y1TPQLlAT3/nUg9HOIMPkYW\r\nWD9N2Hc/Enc6PoLHZj2gcuo8sg1yPTdPbT2AA6c8BezdPF6tCT0mrMk8oDMSPToPtDwAttg8pSia\r\nPM/76TzQDlI8qJebPIXfLjxcig48aCYLPDEUqzxUTS08JsoZPYDIWzxRy7A7zL8zPA24Azybw4c8\r\n46ThO17eLTyEt0E8Ak7pO0LNZzzUjgg8rruLPEZNzzxMv1k8Rs26PGTAKjyqTj08SE6tPE+WFTw/\r\nW+k7V98NPBI6CDwUl5A8MzgIPLjq+zt9sdA8kFMKPIPlSTyENRo8AbzoO72n2zv2bRk8ArmPPEzM\r\npTwfTUE8MUC7PCiOjTwVs5E8mE7WOwQn7Ttakh08IcR9PJKzDzxB9YU8EPvtOxbCUTzwAio8PVeK\r\nPCKbCjyvrSw8QrI+PPGMmjyU5Ss85o0MPBGsQDyOMQ889OPpO1MiiTx45j48REOiO+2OBjwYJQI8\r\npPEpPMappjvwE/I8Gt9tPE+fEjz2hCI811sbPAaKqTwKAoE8v5ksPKrsnDwz3zc8c18nPGgnszuW\r\nccw7Pm9IPLAhqTwqFSI8UJ+fO8z9xjsftQ88hx0MPAxLhzzRHzk838OnPHzPwDwwUj88eVHzPDZY\r\nhDz3X5E73vFFPHTd8js9Elw8nGoZPA5DVTy8bio8VNNRPDYrRDx4KRE8UVYrPEqwyzv8WEQ8eP1S\r\nPL/hiTw0pu08V6OePPMRLDxstxY8wAAmPGdz0TvS0So8xEMiPCnnKjwVBiE8KvnIPLIqGTwtUTk8\r\nh4TsO4b+DDyyWA88jvz7O7DOIDzWuIE8aJx+PXb5NjzYo4A8ETyBPA5LUTwJbcc7pPq9PIw4+zvg\r\nUAA8w/+oPJLvFjxIlNE7oYXiO9haMzzW0kk8twAzPCQmMTzQNgQ8hm/EPGP4Mjzfx987WX1nPJYn\r\nczzI5jo8UjqfPMCoiDypvys8a/9FPAFTAzzHi+E7QPjnO5NIFTyMkRo88xQpPG28oTt7PII8CRDD\r\nOxwKYjw2mJc89OQCPGA/AjzNvLs7vpnjO8T47DvkjMI7xP2PO+0JdDyQEvI7+oIzPIuhCzw2PGk8\r\n8GGyPAAxTjxupC08IvmTO1bKBzzn76I8XoBBPN8vXjxG58Q763bpO6gtMTw8o208YgbzOzh5BTx8\r\nQLM7AirmOypPAzzEGxg8LETsO4rJHTxkfTM8a6kxPPdcvzxbEVg8k+ktPNGwLjw8AiE8juxwPK/2\r\n4Ts2ZBA8vG4HPFQ8yDswJ3E8K4ZLPGxmoztj8t070tD+O2PpOjwSRVw8pYV+PHYi+DvbX5E8puIU\r\nPP2RMTzcOOw8UPAqPGbbPDw5u7E7XgL9O+L1ujuMwjM8YeCxOyrfnjtvix88hkRbPIbcQDwFU+87\r\n7MAbPCGyODzgV8g8zOoTPI6BPDykSrk7nXXeOzQS0jsDx0Q8BRRFPOBurztY/NI7U7MrPMT+bDzf\r\nh6U7DSM4PFss3zswshw8NCqROxlbdzskCWQ8ekBsPPt3/Du/JIU85ptCPGg6EzwQLX0731wCPPmB\r\nuTsqWB08OKYHPDDlFTyd/ig8LBNHPEj0BzwdxTc8xChUPCwOwTsXEzI8AHDjO5Z7CzzQxSM8QKBz\r\nPEDjCzyXXQQ8zeyMPMy0BTyEaaM7ij34O3JLMjzz2907PMsAPGV2WzzcDd47zIXuO/DxmjzhmYw7\r\naYATPL2/EzwJnoE8nczKO7AatDtGFYA7rFcrPCBxsTu1f8M7vtAGPA8bBjxmGk48hMPaO03GyDtw\r\nkwQ8CG5/PNxOZzv0wbA7gN9OPIWbBzxk3BA8qjMJPDS/lDyg/0s8tY9JPLc6JjxCRyY8PvsAPL1K\r\nvTtssBo8eP+1OyvjADw04907sBB4PJ6xCzwbst07FOkFPDyyjjx3rzw8rr5CPHUTQTxoDUQ8f3/v\r\nOyMRTTwOL/M7WtPfO2FSWTxHo1Q8AkBPPEuSFTzemXs8br9PPJpRADzmMy48FlqfPPdgTjyMu5I8\r\n/peHPGIKlD+Jnng8QxCSPCqXgzyq6gY8pyAiPOkVujzmSqw8thwqPB86BTwk6Wk8z8BrPBZNwzsS\r\n8Xo89ixKPODCFzzwRtc7uiTXOwOu/DtMByQ8G+s3PBjVNjywa2U8gQTMOw3kIzzmS8M7Ln9ePDte\r\nCDwk4707LGgaPMjVUDzOgKw7g3hWPIyVUzw36g48voW9OyR+rTwKQHw8FtgMPGBa1zv9pCA8UaMF\r\nPHng7ztGqco7QiQ1PMR9MTyuLWg8HOaMOyvn4DtTADY84HiVPPl9QjwAZe87QGffO/ipmzsOqxU8\r\nwAQwPITwoTvQ86o75F7AO6cCwTvcM0o8kDXKO773VzzaJSU8JNjkOz4hzDtcJx08BB52PKBdbzyB\r\n26U7iueSPP08nDy0wrI8fyDHPG6jpzvo1s47b8VQPNv04juhhGE8QoDaOyquRjzNjws891f+O+qJ\r\nkjzHSOg7WJRePCVVUDzrxSg89IPVPK8lyTumahA8qv8OPe8hVzyx94A8ClZWPBp+LDzJxQw8O2gE\r\nPOMuojvHwbs7HUt9PGCUtDsUfJc8xfRjPIPOsjuWc6w7lsROPLzTdTyAlrs7TKpCPCPIUjy6W5c7\r\n/6dGPOU7EjxgOhc8LER6PKoc0Dt6Ihw8QB8ePDHHSzxqyao8L6qDPE1ohzxPgS88MgM2PBLjBzwX\r\ndys8HrxKPasV5Twqeks8JEZGPPj+rzxSix48x4uoO8gxjjwJlR48JAw9PLAQ3DthXL47L5PhO64o\r\nEzyQVic8ojBvPLt6Izxixh48Lr4zPK+rDj0djf48hodcPZxxSj28Hss8hkUhPKQ+gTzi+4M89clj\r\nPF0jEzyA1Y88TlsSPOtGDjwMhtE7MB6kO8g7NDzC+647sJCGPIRM4jxdNjU8qmOkPHHh3js8zhs8\r\nEdopPNx3NDxKiRE8luDnO/v5yzvarhA8ml/ZO1T4fDxC48w7HS1LPFdoAzwoBNQ79J/GO30BQTz6\r\nBTM8LMo9PP5ldzyJUe07IeUYPMJYITy81g88vgXHO5V0pDvhiRU8joRpPLjJyzsHADg8m5kXPOTP\r\nKTyJP1Q8S/k4PCdM1jtBLRU8GHX2O6ZV3jvYFbM8mLJzPFOpiTso4mk8diX5OyTmPju4tDw8iTfq\r\nO5bGhDvkds87hgZAPKgI/zsBscs76z+cO8GICTxc4pI8BdHCPNB2EDzJecs85SHCO2DpDjy61Rw8\r\ncTjJO+fUITyXwSA7LSyvO4C9lzskDG072m4CPO4PkztOIP47xt/CO+KLuDv6kDk8hq+lOzGcnzuA\r\nCh886I+DPFzSHzzCXkQ8ao/dO2AmBDwkc/07Ae6ZO2VPFjyYXOk7RnmSO1U0kDuHcoI7z6OBO7km\r\nBzzUtN466AqgO9J4lTvaGJk8g2ZBPPZKRDzVaBU8qQ4MPJIJoTvioAQ8vL2yO/R0+DuZl0k7diSc\r\nO0GlDjzk99I7Al1UPDSWmTtAzPs7n3RVOwkpzTsvF7c7OprGO8J6tDvSA9Y7pIQzPA==",
                                  "noiseTrainingType" : "default"
                                },
                                "metadata" : {
                                  "effectIndex" : "0"
                                }
                              }
                          ],
                          "start" : 645,
                          "duration" : 2760,
                          "mediaStart" : 250,
                          "mediaDuration" : 2760,
                          "scalar" : 1,
                          "animationTracks" : {

                          }
                        }
,
                    "start" : 645,
                    "duration" : 2760,
                    "mediaStart" : 0,
                    "mediaDuration" : 5384,
                    "scalar" : 1,
                    "metadata" : {
                      "clipSpeedAttribute" : false,
                      "default-translation1" : -324.0
                    }
                  },
                  {
                    "id" : 46,
                    "_type" : "UnifiedMedia",
                    "video" : 
                        {
                          "id" : 47,
                          "_type" : "VMFile",
                          "src" : 1,
                          "trackNumber" : 1,
                          "attributes" : {
                            "ident" : "Rec 12-22-19"
                          },
                          "parameters" : {
                            "translation0" : 602.0,
                            "translation1" : -324.0,
                            "scale0" : 0.25,
                            "scale1" : 0.25
                          },
                          "effects" : [

                          ],
                          "start" : 3405,
                          "duration" : 1262,
                          "mediaStart" : 3994,
                          "mediaDuration" : 1262,
                          "scalar" : 1,
                          "animationTracks" : {

                          }
                        },
                    "audio" : 
                        {
                          "id" : 48,
                          "_type" : "AMFile",
                          "src" : 1,
                          "trackNumber" : 2,
                          "attributes" : {
                            "ident" : "",
                            "gain" : 1.0,
                            "mixToMono" : false
                          },
                            "channelNumber" : "0,1",
                          "effects" : [
                              {
                                "effectName" : "NoiseReduction",
                                "category" : "categoryAudioEffects",
                                "parameters" : {
                                  "denoiserAmount" : 20.0,
                                  "denoiserThreshold" : 0.0,
                                  "noiseProfile" : "zV42Q2x4pkJyFiJB5r61QCUjYEH1qaU/K9llP1VqJT/SshQ/4p3cPsptJj/UKYk+On6kPphQ7j6c\r\nc6w+zk1tPnZ4Wj6opkg+SBgNPn3nsz3NWx4++8LaPV2TwT13Faw95nYpPmitCD7IS9k9ZwusPVL5\r\nGz6apPs9+JXyPZsWaz6av0Y+d2GmPQyB4D12kEw9yJKoPUvTCz6hWJE9Bg7aPbGaEz6afxA+z92c\r\nPjEjIz8jGi4/9IzkPhhXbz40kSo+SuMHPkzEGT7zHX89wG/aPc9VnD0HPyM9WMt1Pfw4ED5zAzk9\r\nsRsnPetOHj1/b4g9H52vPThN6z37u3M9ARpoPW8ZvD1+g64991kmPd9zWT3l2Dg9DDzZPczP3Txu\r\nGvI8PP3wPEGdgT2YU5s84EVSPdzBQj0wL4I96uA6PTZyID4OK4s94ytTPU6ecD1g5QA90EEFPZER\r\nqTxm0KI8PU3RPHaiKD1cbFo9p2MpPRwO9TwTa/Q8/QeBPdqXajzSgQg9mgEOPS1Hfzy/zKY9tsry\r\nPNQKOz3G9tQ89TFiPMYXnTyby1M82ZuHPO/1GD32Jxo9StOWPVG3Bj2ke2c8vOoXPaJb3DzgGqc9\r\n/R7dPGaoRD6YMk89PNY5PXAkZT2SFkE9hW4cPRYv4z0FTpE9f3GAPS48CD3vD9E8ulm9PLFGkzzu\r\n7vQ999KwPLhdojyUij08Z4yWPHQJkDxdkoc8gNeaPEIr9jz4DVc8YuCwPNKXBT29Bek8lj+CPLza\r\nUD3Swvg8y2aMPMhjsDzuYgY9SCQJPbvkkzx6Ntk8Pj/ePO7sljxvz448Ol6SPEw+MTx3DdE8EdBY\r\nPBaPXDxdzNc8fEalPLcwUTyzgZ88er+ZPCU6oTxI3ck87jeiPOKzHDznf7s89hS+PN4vlDxS9bY8\r\nlJLAPLclNTylv7Y8xtw6PYuJnz3s4wc+8Px+PgPeLT6VUQ8+8y4ZPt474j0+0SQ8NhQ5PY1/zj0U\r\nB7U8RRWwPE0hxzy79pY8KqqaPO89wTwJ/jw84wV+PHGI3zzZVnU8uSCePFP8pDzQ+fE8HsZ4PF4+\r\nAj0AQ3k8tG5QPLCUJD1Cw188mC0bPSXu4zwuT3s8DG+JPCWvDDwO0+U8PCzEO3nAiDyM3I08u4Ld\r\nPJ4czTw62j49tMlfPds5rj1HEGE9KrzAPHknrDyflRI8XLZCPOKcGT0O3h88suQKPGDJQjxC2048\r\n0SvEPFxEkjzyBOg8LLFhPCXawDwKslo8tqM0PKUQjTxA5NM8mc9VPLjbnjtLvA89oODOPISZXj1T\r\nOXw9XO/RPEItUzyXEhA8dBnIPMwBSDwH1948gPtaPOY4OTwEAcU8QQ59PCSOpjwpwyU8lRXOPG4i\r\nJTxspag8abWHPP6UmDyc6B88vPLFPGb3azy/Azo86StUPJ4yfDznukw8qI0XPN8zXDyEzlk8KhCS\r\nPPvoQTzDi6g8xaKDPOUBUTwy/nc8xopgPP+DWTydLtY85gpYPBL3yDzqqak7p+icPH6NkTyMC888\r\nBrOnPPAnHzxE6Fw8HDTRPNfRiTxn4kE89LSQPM0WDTzVjFE8ennUO7DaMDwGJ8g7HDOkPCcMGDwV\r\nd9g8J1hoPBdoaTzuTfc7TCY5PDK2UjxQ58U8CaJDPE3iwzwo82Y8SBDnPKB8vzyBmQ09fiuMPLvY\r\nMD0N5Zc8doacPPnWAD2XtYI8XPH+PK3uBTwuDTc83N4fPNi1NDy0Nyk8jw82PJPjgzyiWGI8RSSv\r\nPADQjzuF4Bk8cO3EPPY0GDyEP/c7tGIAPDQMzTwau787WcRpPCA2cDxllHQ8w9wlPOLOazxmGUI8\r\n3Fb1O1LFazzReL080mYZPRzX+ztXdZ48wbwgPWVEgjyASuk7Q9MQPRDvTzyb3aA8Gq2FPC1BETzd\r\nhwE9UM93PD4FIzy6Hss8zqaEPN+2VTzz66s8z47kPF6YPjxKgos8XLMOPfkQQz0jaAs9IjWDPUgE\r\nAD4JJ1E/tx5/P+JlQD4VJHY9y3r1PJMxjz1kAEQ9uCV3PJFazTz6ues8TDmyPBm+Az3HXoc85krI\r\nPBmzWTy2jsQ8ECFJPODfcTz8VSA8HcWDPHnXajwyP4w8Pg0MPFTstjwCSTw8oYKyO/d2Fzzgmt07\r\nCSUyPKeq2DshWFE8AmF7PGhsOjwcR/07/O4JPHgGcTy2DrE8MqFVPECRLzx8Nxk808x6PFlglDyn\r\ny3A8+YTHO1hMHzwn2PU7GamIPN2HBTxzjuQ791OOPE3p4zsMR9Q7OZcAPJE0Pzwtdgc8L3htPIKR\r\nbDzO2bI8aQ55PBd0hTzCmTM8LxZKPAlR2Tshs+87wjxuPElBUjwLy4c8XINqPJL1DjyY6WY8GXIj\r\nPFyi3zwgDVM8QrzAO9QnSTznU2M875GDPCmFhjtmrS48HUv9O0CACzyZCZQ8Xtr6Oz7nADx5QwQ8\r\nPrvgO7v/Hjx57qc75kepPEqplDyKZTw8yNrvO5Us8zsVwaY8w2V3PAV0cTxj5Lk8XMkaPBnIRDxh\r\neNY7X3j1O94h9zuCBpI8N8BVPPwiWDvw2Ak8tDUMPKBvJTyCk148wsYLPPV+lzxgOLg8NOcePAY2\r\nzDyKWY88BBmZO7opiTx09fw7SfsmPOGoLDyAVBo8sJw3PCr2HjzHLCA8u28XPBykIjz+3Vk8uItB\r\nPFS+ZDxjk4Q8+u4APZVZMDwXkHQ8Qz0hPFiRRTx9edE7wj49PAaUDDw6iNs7ur8ZPPzkiDxQcBg8\r\nW6YSPBPREzwtyVY8VDkGPAdAwTvrDhM8Zs85PE7vWT0w7Cw8EYmXPE4dgDygaIs8+xDqO7+yhzz+\r\n0is8y1PxO5irVjyoNgs8irn0O45nCjyCyhg8N4MRPDF8QDz+AG88RWe+OwuqqTx2Rkg83LIGPKO/\r\nFzyR3LU83Z1RPM781DzID0c82ynNO/1bLzxgGfM7+OwEPNM5QDwHB8A7SZQIPIrjCTwrzuU7nE9c\r\nPIXa8ztLcZk8sFM2PHTTRjyUOQw8ObcHPJ3G2TvC8C48sOEpPJDK6zs/hhg8WobFO74jUzw1Xu47\r\ntHYxPI+Oojyrykc8oWHBO9/iyjtg9bo7BPZaPG8AyTvQ9zw8DpMAPN7T2zvF5/Y7NkUCPNaVFTx8\r\nEwU8nD+3O2AKNTyxixM8dqMgPBEenDs+jNk7bF8HPL3sEjwYxMU8bID2O4bFgTwbNA08IyZqPJ9V\r\ncjzig7475k9mPBDUCTxqJrM7TpiFPLTNMDyaEA48omewO/FTODycOUM8NmgHPN9MazxIZPY70gZv\r\nPIa4ITwp50k8SAidPHq6KTxOsjI82E++O/BiSDwUNNU7lD8bPF13yTvfMaU7JOQOPFx8CTxo2N07\r\nkJxDPOEpMjxoQPk7aG2/PI4XIDzV2Qg8VBrpOw6WADySIjA8+qr5O5xlPTwW//U7KrgNPBHUezx+\r\n/388Z7iPO8q9tTtffG08WTAaPAnQoDvBdpg7dhgfPOinfDzqGro7AU64PDaSEjx2fl47a9jyO8QZ\r\ntju8Az48+tf2O7ryzDuxmcM7E7EOPISGAzymdwU8gDDAO17XLzwROUY8LgZaPP6OGDyJRw48QlQq\r\nPJp4gTx4M0w886AqPIYEdjy8dAk8DOqLO7abATyP/U08pl7jO4RJ7Tuym5w89g3iO72suDsTyyA8\r\nqnzZO0iUCjxY2Cc8eP2BPDapvztnk4U789qbO9+wIjyN3iA8dO/MO7hykjtuMAI8lNpTPPkaAzy2\r\nR847+Zu8Ox5BLzxRZJY79WyeO4XiMDwpI407IB2SO2OTyTsaeGg80TB3PPsLkjzVpQM8XZsJPM61\r\nizw2IOs6SFDVO3pYCzzJWhU8No0xPFZezDv1HZw7x7bQO1lb+Dtf31c8UzV9PN1hxTuR1RY8SFh0\r\nPJnwGjyzHkA8uph1O8y0qjtcpyY86qGTPIpsNjxKUwY8xNqKPOQ6STymMCA8sE3+Oxk9ZzyrHVc8\r\nI12HPHE6gzwnpZE/7txqPNVetjy/aW48EV8PPKIL7TvudY08YperPJqBOTxOcR88i/JKPPBkhjyA\r\nXBs8wC6KPHxKLzzxWzM82n2AO0OjETyvejs8dGI5PNYTOzx8Rzc8JjQVPJqK6TsHYvo75pAfPB+A\r\nMTyFyAQ8Cs+yOz54Vjzuwq47hv0hPJ1pLjziHys8wvCyO/VPDjzYse48+q2jPLqqXTyleOY7iCqd\r\nPCBsADzrVdg73MeMPPTD3zsJqRs81UNqPCliCzyWULg7l+UpPDSyRDw0P6I8TvKsO2m/mDtxKT48\r\nTDdQPOYFdjxeoS48XexmPOznwDs4e6M7bPXkO2Ip3jtu0oY8cB2APDgklTseB587SjaxO1ZsyTvA\r\nUYQ7W4xaO6BIgzy3vSc8t8yOPAiFVDw9ZyA8nd7pO5JwNDx0FGU8vgVIPFxm1TsDT4c8CT54PKr3\r\nUjwmVdY7InCqO28tDzxDmnM8qaqHPPA8izzQHhM8YKpdPC7jIz2dC/I7H6VcPORdYjwl31A83ugB\r\nPOrSFDyRVwg8CGNmO2BvFDxoS687+JktPN078jtjZ0g8YJjvO5mbWjySfBU8IuDGO/oKeTz7n7M7\r\nMRi+O0gApTwi7g487O+sPIoEuTzOMME7sOYcPFB0sTyViJk8TkhMPLHNKDwZZUQ85niEPFMV4DsO\r\nVDE8WI8kPEz+gD2f1Ys8j/YbPDoUkzzfv208kcGqPC3QATw6zAA8PTsIPDu8tDsWFDw8ba3HO/Qg\r\n7DvduCI84gBFPPJD8zvmNQo8GS7fO4kacDyDFcE8LC+zPCqTJz1QQpA9Ua2ePOBcITxSJrQ8KCti\r\nPBcz5jtieAs8LE4EPN73zDsCnpo7Xsy5O1ZH4jsQ3tY7bkWvO7KHSTwDgN48mJW6PBp3pTzoFGk8\r\nCGVpPLk4NjyIYxQ8Ck4ePKdXXzx7aFA86BGZPFISyTtmUCw8WGXjO9wTMTy80uM7eWkVPMujsDs0\r\notI7NmUvPID+MzzJiio8DnUAPDACpjselTA8BLExPFR7EjwwRuw73ACDPI7wIjwzqQs8EgUnPF6g\r\n+ztaw1Y8SrZVPMStzTto6PU7b0O1O1EY0zuEDos7mPGLPHCUPjyDHd87otbHO1kmqjsODZ07Yicg\r\nPN9Tyzu6Kgc8wwcCPCZqEjxpk5w7xnMIPE5gFzzNkbs78tmKPH3xSDyJgCw8v/qqPA/tAjznEZo8\r\nzwP/O75QTjw76MM7HrO2Oy4UwjtyC/c78gJZOy6qATznFb07LbmCOx69jjtcb+Y7QrsYPPDW4jvc\r\nx1E8RB9HPH82UDzNSMo7um47PN5jHTzaBLY7f0q3PNZ4ZjyVz5k7PkOuO1TenDuO7oM7BHWiO79c\r\nVjvKGv07DoBlOwyqhDvbV7g7lrqpPM/vBDzQzwA8HODmO5llKTxecUU7wRaSOzS/uzvmtj48mJzf\r\nO661FDwIjhs8DLSYO7XJqDuIPo479CdlO8yQZDtkU4s7IllfPBCyTzygCJ07Ab8pPGHpeTzQlT9D\r\nQQqnQuBzDkGefcBAXhBsQQ2Aqj8Iv1U/9iE2PyEmDD+ryuo+rWNMP38NZT6Tets+6k73PpHZtj5P\r\nlm8+onBzPueAfT4gICw+mjrvPag3GT5+ERw+kYjHPedazD0N+xc+pj0iPmSUDz7HkcY9CvkNPohL\r\nDT4Ikeg9yjWPPlARGD7mrco9RDyCPb5Ffj3cJgA+QhfrPXAVbT1/E7o9AaXfPR4wFD5GLaI+2DER\r\nP7CzKj9JGd8+rodDPmByNT7IQw4+zRchPkQckj3YZ6g9dF91PdHdNj0ZtkA9bNvqPSdYWT1T8wo9\r\ndik8PWOkwD2yYPA98J6vPRim5D0gU1U99kK0PXjftD0x0iI9mI47PerDSD01HYw9iKGLPB2PAj0E\r\n9fo8tue8PYxOnjzzdTk9C206Pd/6bD1DkBA9gkY3PhiOkT1G2YI9wyZ1PZLorjwA9rk80ciBPH6D\r\nbzyzJPE8L/k8PWyzfz0KvUo9N6vNPBpUDT1+dTQ9IDnHPA6AAT0uLRU9qlu2PLreyT0wedg8itWY\r\nPdcG8DwO9Ek8VWWgPCowkjyCsPY8Nv9UPQWcFT1sCow9rkD3PM+eiTziCjQ9WfHbPLTW1j2UMrk8\r\nmVQNPgSlAT0+azU9WON3PcTJ/TwGQC09IcX3PQs3lT0pjWk9+rcIPUw5lDwOVaU8tAebPByqvz0r\r\naeo8XFiVPI4EODyLv7c8bcqwPNsFmjxGlsM8T/XaPHj2fDwSxJA8dp39PE9T2jzigIY8lGA/Pe0q\r\nGT08g588vVHAPEWTsDwMAgg9yIjQPDdVDj1RF8M8OzRvPDNKVDxzzlg8ia6FPLo5iTzNxlg8v1+v\r\nPNKslzzty4Y8pkV1PAo92Ty4nJk86IdaPPnYyDw1itM8zCM6PJFg0zxsS6Q8jbKVPBgLyTwBWN88\r\npT9TPKD2MD2diks9zVLBPUNp+z1dtHY+EuwnPrLiBj5znR4+IR7WPVMSHjzEwjY90LTwPSg+OTxT\r\n9Z88wpfBPLq4kTxo1pA8XCoGPY+RWjzltZ486DeqPGXDmjxc+8E8HRXwPLJE2DySSIk8NHQEPUSR\r\neDzCbFk8JcpyPR6SNDwscPQ8WuTlPHhhZTxmw4I8ng0EPIyNrDx4xLs73NqHPE5RVjyYbgY9MkAE\r\nPdlgRD3u91o9XSumPaXThz1sDJc8DOi+PB4mIzyhngs8yKsJPbhB/jsfix48qoI2PGfUJTyxUsU8\r\nWrAWPEqbrDwWbXo8fWKRPAQZazyqaXE8yXiXPLRM2jxvnEE8ci/SO4GxwDw2NOo8cuxRPUQGUz3K\r\nra88jnArPF//tjtOhd48t2A5PDfKyzzgBSo8wsY1PG4mpjzYDX48iCaBPHewJDzcDvE83IODPG1E\r\n5DwXsWA8fQ5xPB3cPjxk/NI81meLPHWSCDyW4AM8gXCXPMliXzxQrak81iyxPB9QCzwB2TM85/oU\r\nPNCdtDwR5II8JfFHPCCmijwYX4g8LQJJPAyI3zwHY4w8VKlKPPn2gztG72c8Y2huPC4XqzxcjU48\r\nRce9O5FtMDy84p08uoBsPFTyfTxqwTc8bD5IPG5uFjxuPjY8L5FGPNQFSjykEwE9TiJDPCR3mDwM\r\nAIg8J0BSPBus7zuOOUw8Ul+KPBiK/zws6Y089grxPHm8RDxQd508Bf/ePHqW8zx9gmg8fDQiPZrb\r\nfTyuBJ88l4byPDxWlzxvzdk8zeHuO2KEDzzkZ148UGRFPJS4DzwAxAY8zk9YPK6RbjzQB5o8LIPK\r\nOyVZ5DsxMYY8pIcSPMfZKDzYWkw8m5LFPBAY8zsT50k8uRCYPKL6ZTxRsDk8Ys9iPPC9XzwfB+47\r\n0y5WPBxShTwunCk9S1YLPJSWozxrzRk9F1pMPMg81Ttu3gk97hYFPBD4gDxl26s87brJOzEF+jzg\r\niIs80HE8PEMw7jwDW608DnRzPE/2iDwmgP88ySdEPNfuujx9egQ96y1TPQLlAT3/nUg9HOIMPkYW\r\nWD9N2Hc/Enc6PoLHZj2gcuo8sg1yPTdPbT2AA6c8BezdPF6tCT0mrMk8oDMSPToPtDwAttg8pSia\r\nPM/76TzQDlI8qJebPIXfLjxcig48aCYLPDEUqzxUTS08JsoZPYDIWzxRy7A7zL8zPA24Azybw4c8\r\n46ThO17eLTyEt0E8Ak7pO0LNZzzUjgg8rruLPEZNzzxMv1k8Rs26PGTAKjyqTj08SE6tPE+WFTw/\r\nW+k7V98NPBI6CDwUl5A8MzgIPLjq+zt9sdA8kFMKPIPlSTyENRo8AbzoO72n2zv2bRk8ArmPPEzM\r\npTwfTUE8MUC7PCiOjTwVs5E8mE7WOwQn7Ttakh08IcR9PJKzDzxB9YU8EPvtOxbCUTzwAio8PVeK\r\nPCKbCjyvrSw8QrI+PPGMmjyU5Ss85o0MPBGsQDyOMQ889OPpO1MiiTx45j48REOiO+2OBjwYJQI8\r\npPEpPMappjvwE/I8Gt9tPE+fEjz2hCI811sbPAaKqTwKAoE8v5ksPKrsnDwz3zc8c18nPGgnszuW\r\nccw7Pm9IPLAhqTwqFSI8UJ+fO8z9xjsftQ88hx0MPAxLhzzRHzk838OnPHzPwDwwUj88eVHzPDZY\r\nhDz3X5E73vFFPHTd8js9Elw8nGoZPA5DVTy8bio8VNNRPDYrRDx4KRE8UVYrPEqwyzv8WEQ8eP1S\r\nPL/hiTw0pu08V6OePPMRLDxstxY8wAAmPGdz0TvS0So8xEMiPCnnKjwVBiE8KvnIPLIqGTwtUTk8\r\nh4TsO4b+DDyyWA88jvz7O7DOIDzWuIE8aJx+PXb5NjzYo4A8ETyBPA5LUTwJbcc7pPq9PIw4+zvg\r\nUAA8w/+oPJLvFjxIlNE7oYXiO9haMzzW0kk8twAzPCQmMTzQNgQ8hm/EPGP4Mjzfx987WX1nPJYn\r\nczzI5jo8UjqfPMCoiDypvys8a/9FPAFTAzzHi+E7QPjnO5NIFTyMkRo88xQpPG28oTt7PII8CRDD\r\nOxwKYjw2mJc89OQCPGA/AjzNvLs7vpnjO8T47DvkjMI7xP2PO+0JdDyQEvI7+oIzPIuhCzw2PGk8\r\n8GGyPAAxTjxupC08IvmTO1bKBzzn76I8XoBBPN8vXjxG58Q763bpO6gtMTw8o208YgbzOzh5BTx8\r\nQLM7AirmOypPAzzEGxg8LETsO4rJHTxkfTM8a6kxPPdcvzxbEVg8k+ktPNGwLjw8AiE8juxwPK/2\r\n4Ts2ZBA8vG4HPFQ8yDswJ3E8K4ZLPGxmoztj8t070tD+O2PpOjwSRVw8pYV+PHYi+DvbX5E8puIU\r\nPP2RMTzcOOw8UPAqPGbbPDw5u7E7XgL9O+L1ujuMwjM8YeCxOyrfnjtvix88hkRbPIbcQDwFU+87\r\n7MAbPCGyODzgV8g8zOoTPI6BPDykSrk7nXXeOzQS0jsDx0Q8BRRFPOBurztY/NI7U7MrPMT+bDzf\r\nh6U7DSM4PFss3zswshw8NCqROxlbdzskCWQ8ekBsPPt3/Du/JIU85ptCPGg6EzwQLX0731wCPPmB\r\nuTsqWB08OKYHPDDlFTyd/ig8LBNHPEj0BzwdxTc8xChUPCwOwTsXEzI8AHDjO5Z7CzzQxSM8QKBz\r\nPEDjCzyXXQQ8zeyMPMy0BTyEaaM7ij34O3JLMjzz2907PMsAPGV2WzzcDd47zIXuO/DxmjzhmYw7\r\naYATPL2/EzwJnoE8nczKO7AatDtGFYA7rFcrPCBxsTu1f8M7vtAGPA8bBjxmGk48hMPaO03GyDtw\r\nkwQ8CG5/PNxOZzv0wbA7gN9OPIWbBzxk3BA8qjMJPDS/lDyg/0s8tY9JPLc6JjxCRyY8PvsAPL1K\r\nvTtssBo8eP+1OyvjADw04907sBB4PJ6xCzwbst07FOkFPDyyjjx3rzw8rr5CPHUTQTxoDUQ8f3/v\r\nOyMRTTwOL/M7WtPfO2FSWTxHo1Q8AkBPPEuSFTzemXs8br9PPJpRADzmMy48FlqfPPdgTjyMu5I8\r\n/peHPGIKlD+Jnng8QxCSPCqXgzyq6gY8pyAiPOkVujzmSqw8thwqPB86BTwk6Wk8z8BrPBZNwzsS\r\n8Xo89ixKPODCFzzwRtc7uiTXOwOu/DtMByQ8G+s3PBjVNjywa2U8gQTMOw3kIzzmS8M7Ln9ePDte\r\nCDwk4707LGgaPMjVUDzOgKw7g3hWPIyVUzw36g48voW9OyR+rTwKQHw8FtgMPGBa1zv9pCA8UaMF\r\nPHng7ztGqco7QiQ1PMR9MTyuLWg8HOaMOyvn4DtTADY84HiVPPl9QjwAZe87QGffO/ipmzsOqxU8\r\nwAQwPITwoTvQ86o75F7AO6cCwTvcM0o8kDXKO773VzzaJSU8JNjkOz4hzDtcJx08BB52PKBdbzyB\r\n26U7iueSPP08nDy0wrI8fyDHPG6jpzvo1s47b8VQPNv04juhhGE8QoDaOyquRjzNjws891f+O+qJ\r\nkjzHSOg7WJRePCVVUDzrxSg89IPVPK8lyTumahA8qv8OPe8hVzyx94A8ClZWPBp+LDzJxQw8O2gE\r\nPOMuojvHwbs7HUt9PGCUtDsUfJc8xfRjPIPOsjuWc6w7lsROPLzTdTyAlrs7TKpCPCPIUjy6W5c7\r\n/6dGPOU7EjxgOhc8LER6PKoc0Dt6Ihw8QB8ePDHHSzxqyao8L6qDPE1ohzxPgS88MgM2PBLjBzwX\r\ndys8HrxKPasV5Twqeks8JEZGPPj+rzxSix48x4uoO8gxjjwJlR48JAw9PLAQ3DthXL47L5PhO64o\r\nEzyQVic8ojBvPLt6Izxixh48Lr4zPK+rDj0djf48hodcPZxxSj28Hss8hkUhPKQ+gTzi+4M89clj\r\nPF0jEzyA1Y88TlsSPOtGDjwMhtE7MB6kO8g7NDzC+647sJCGPIRM4jxdNjU8qmOkPHHh3js8zhs8\r\nEdopPNx3NDxKiRE8luDnO/v5yzvarhA8ml/ZO1T4fDxC48w7HS1LPFdoAzwoBNQ79J/GO30BQTz6\r\nBTM8LMo9PP5ldzyJUe07IeUYPMJYITy81g88vgXHO5V0pDvhiRU8joRpPLjJyzsHADg8m5kXPOTP\r\nKTyJP1Q8S/k4PCdM1jtBLRU8GHX2O6ZV3jvYFbM8mLJzPFOpiTso4mk8diX5OyTmPju4tDw8iTfq\r\nO5bGhDvkds87hgZAPKgI/zsBscs76z+cO8GICTxc4pI8BdHCPNB2EDzJecs85SHCO2DpDjy61Rw8\r\ncTjJO+fUITyXwSA7LSyvO4C9lzskDG072m4CPO4PkztOIP47xt/CO+KLuDv6kDk8hq+lOzGcnzuA\r\nCh886I+DPFzSHzzCXkQ8ao/dO2AmBDwkc/07Ae6ZO2VPFjyYXOk7RnmSO1U0kDuHcoI7z6OBO7km\r\nBzzUtN466AqgO9J4lTvaGJk8g2ZBPPZKRDzVaBU8qQ4MPJIJoTvioAQ8vL2yO/R0+DuZl0k7diSc\r\nO0GlDjzk99I7Al1UPDSWmTtAzPs7n3RVOwkpzTsvF7c7OprGO8J6tDvSA9Y7pIQzPA==",
                                  "noiseTrainingType" : "default"
                                },
                                "metadata" : {
                                  "effectIndex" : "0"
                                }
                              }
                          ],
                          "start" : 3405,
                          "duration" : 1262,
                          "mediaStart" : 3994,
                          "mediaDuration" : 1262,
                          "scalar" : 1,
                          "animationTracks" : {

                          }
                        }
,
                    "start" : 3405,
                    "duration" : 1262,
                    "mediaStart" : 0,
                    "mediaDuration" : 5384,
                    "scalar" : 1,
                    "metadata" : {
                      "clipSpeedAttribute" : false
                    }
                  },
                  {
                    "id" : 49,
                    "_type" : "IMFile",
                    "src" : 8,
                    "trackNumber" : 0,
                    "trimStartSum" : 0,
                    "attributes" : {
                      "ident" : "ui"
                    },
                    "parameters" : {
                      "scale0" : 1.00635087719298,
                      "scale1" : 1.00635087719298
                    },
                    "effects" : [

                    ],
                    "start" : 4667,
                    "duration" : 153,
                    "mediaStart" : 0,
                    "mediaDuration" : 1,
                    "scalar" : 1,
                    "metadata" : {
                      "clipSpeedAttribute" : false,
                      "default-scale0" : 0.673684210526316,
                      "default-scale1" : 0.673684210526316
                    },
                    "animationTracks" : {

                    }
                  },
                  {
                    "id" : 50,
                    "_type" : "UnifiedMedia",
                    "video" : 
                        {
                          "id" : 51,
                          "_type" : "VMFile",
                          "src" : 2,
                          "trackNumber" : 1,
                          "attributes" : {
                            "ident" : "Rec 12-22-19_001"
                          },
                          "parameters" : {
                            "translation0" : {
                              "type" : "double",
                              "defaultValue" : 602.0,
                              "interp" : "eioe"
                            },
                            "translation1" : {
                              "type" : "double",
                              "defaultValue" : -259.294117647116,
                              "interp" : "eioe"
                            },
                            "scale0" : {
                              "type" : "double",
                              "defaultValue" : 0.25,
                              "interp" : "eioe"
                            },
                            "scale1" : {
                              "type" : "double",
                              "defaultValue" : 0.25,
                              "interp" : "eioe"
                            }
                          },
                          "effects" : [

                          ],
                          "start" : 4820,
                          "duration" : 1577,
                          "mediaStart" : 314,
                          "mediaDuration" : 1577,
                          "scalar" : 1,
                          "animationTracks" : {

                          }
                        },
                    "audio" : 
                        {
                          "id" : 52,
                          "_type" : "AMFile",
                          "src" : 2,
                          "trackNumber" : 2,
                          "attributes" : {
                            "ident" : "",
                            "gain" : 1.0,
                            "mixToMono" : false
                          },
                            "channelNumber" : "0,1",
                          "effects" : [
                              {
                                "effectName" : "NoiseReduction",
                                "category" : "categoryAudioEffects",
                                "parameters" : {
                                  "denoiserAmount" : 20.0,
                                  "denoiserThreshold" : 0.0,
                                  "noiseProfile" : "g7QYQ067LUIgvBJBlCPBQPQh2kEJ5RBAuhysP4rFCT+dimE/KjcJP8lxHT9BhhI/xq5uPkToJz4W\r\nYQE+BwM1PhzWJD4CaUs+62DdPYKyuD2RuS8+b/4JPmaVYj5TlY89a+4uPkXxDj4nNA0+30eMPSLw\r\nTT7Ale49FLH7PadDlj3Vuec9vjzrPabn/T35u8o92yIoPlLRAT6Mfd49YBOFPgq0zz74XYk+uYDC\r\nP5udKz9jSsw/5CSQPwB5rT+mDYg/L06SPpccTD7jiT0+vpzbPcBx4D3mAhU++UfrPfmURD5oqqg9\r\nvf6OPYKAcD2V5pw9eyp3Pljw4z2bEQ8+vkOVPbL7yj21cok+OnrhPe7W1T3jYEc9aIeXPfHYfz24\r\nGpk9p7w7Peayoj1o9I09yNRxPSrZfj3WeEo97A5/PVZPtz3/6nU9XsjzPEhJUT1xVmM9FuEOPVBq\r\ndj1GVcs9uZaoPUwgND2M+Ak9LyBQPXPBAT3wPMM9xYdKPb5ZUD0iUQY9ht3SPOZQMT31Tws9ZXku\r\nPWQWsDzRQig99tQxPW/TKT0zaXE8Zv7fPL8iyDxmqeA8nFG3PJSNGD3fGe08TuiIPRR6HT0gyKw8\r\noB3gPE759DyU0bM8v2QJPB5UXz2m2jA9zmfPPBL9mTz5Rzg8KgyVPFGQ2Tw63ro8t64RPfCdkjzF\r\nCt48bhikPNNSVz11Q3o8ax36PMhrajwvWQE9no5WPGiYUTxyj4c8/3AEPZ/sDz0SVZ88ad20PNMs\r\nQTx8JFU8KEjpPJ8QAj3/o3U8uwIQPa/dyjwMpqY88hi9PELVSjyIWpw8rJCqPLwF4jzp6CI84v8P\r\nPIXVnzwvgkE8pp8KPUywMDx35PA7tsN/PPI1SjxtE5I8tFHdPNRWKTz72nY8pjArPHd4xjzo1rI8\r\nBdZ9PGUdZjxTSOg7HeOLPEIxqjz4fZs8EBGEPCIXdDzp/gc8zlOEPMTffDzWx408ePTpPF7y6Dsf\r\nGsQ8XCBbPC4Tazzc9wk8Dv2xPCLOUTzOnrc8sOEdPCJX9Tt+o508JdGEPGcErDwX8ik82xyBPLMv\r\n9zzPGoE82NLHPM4zmTyTjJc8l3czPDlvhjzljJA8JtSvPBDS2ztlzFo8Dp68PDFF5Tvceos8+u4z\r\nPMLMiDx2+Gw8cfJJPGdtvTyc04g8aodTPDe/TDwHwlw8iJ7QPASsKzykShI8RGuUPERD3DylIRY8\r\nBCkoPNPqCT1BpKc8IuirPIFiXDyS6ko8VyNbPHrxNTycYgE80sWCPCKf+Ts+tFg8VuI5PIyLAzyK\r\nmYs8uz4aPLaj1jzsr0M8/oAkPJ1VfDysAVQ88kEXPEg36TxTMjI8sFkQPPuEYTwtD7w8uIk2PJlb\r\nUzzq20o8ZN2KPHkRUTwIUFo8HXcwPI5SMzzIAcM8sFUFPR70jTykrLM8DQt/PNlrizycmCc8KU4c\r\nPIo+CzzNfwg8X0ZjPN2PNzxUMsk7qHDpO+LO+zy2Ouk8xbKlPKIIyzzO0nM8FMCdPNx/CTxtj048\r\nd52EPMp2TTxQROM7JwCPPL+btjzKIpA88mNJPD8xRDzpBms8wPCUPIhAhjyC/RI8Ho4PPMPiXTzG\r\nqj88xA8xPMVBSTwY+tQ7g8uWPAtU8zvyBK08HiZKPNi7PTws4u07pxlFPLBuhTxp8zY8+B+iPPUm\r\nYTynrzc8Z3oaPPuvFzy+HCI8aWLDO7ApkTzcJ6A8wZ4XPL2YKzyY4FI8+NCLPHip2jvUx0M8M2lU\r\nPBdVhDyZj6k7dO4cPKBn2jsIZJk81oS9PC3cjDzsZHg8GBYLPGUXQjzXz008ZlQNPFhwZzySFd88\r\nqOeGPIp30TtB+6c8wydxPCQLazylP1087G5zPOLcsjyb1Hk8MYRPPAzdCzzRLz08C3KMPCklkjwP\r\nloI8SAgIPC6gfzxS78o8QHgpPCkvODyRqEQ9Fk4KPeIQWTx6UUw8yNHWPLbG9jzNgD09lCmSPbv3\r\nCj5EkU4/sueEP9HfPj5nb5A9liobPZioIT1cWAM9n+FKPMAfMjzZfZo8kohGPBKRDTxkgpo8xOJY\r\nPPixATxyrzE8VVQxPK6XATxrq4w8uqiJPK50WzxbYAY8PnIKPMBpPjzYXsA7w48SPHicQzzz47g7\r\nEpyjOxK6PDyMsTw87oAlPJ1DGDxg2Tg8XmQfPIdQJTzTwiE8spsGPHuBljxaNnE8VbznO/6KDDyu\r\n/EM8tjPeO84zxzvKpoI8fXEqPOBPFzx4/308u79IPNyCvztiOgE8AwkuPAB44DsCeH88UEbJO2Fj\r\ngjxV6Mc891rlO1TngTx6r4E7ufBKPFoIzjv02c47wD/MO+FlAjyhIxo8qFePPLry0DvkL5Q777wr\r\nPKzm6ztjLjM8ItsgPNSnyDvVOlY8FVMcPFsNAzyf+sM7XCqhO8AKmTzoLzY8CKgOPPKDvjtvEbs8\r\neBPNO38kgTxcmGc8FMHQOw1GyDvcuv87TK9HPIw7qTsPaXQ8DpafPMEH5jz2xS48W6QtPE4MkjsG\r\nbWY7jVkOPKo9Rjyi5iQ8Yd0dPCiqVTzqo3Y8wdz4O84+fTwaSEM8iNnzO8d7NzxatJA8GJvcO/MB\r\nLTzUVQY8qq+dPKHSxTvS5eo7Cql6PJdw6zvhcTE8zKI6PC6asjtFhes7JXPKO1l0pDtibRY82pOH\r\nPMcMkzwDEVs88jGoPKPDfzzr0y48zkEoPPBWxTxufcs7ekIBPL7J+TtESNo7zvaIPNE/MTwikhU8\r\n+ZXxO0nsMDzYIiM8+egZPKb7fDwzb8g7vZ2SPMUNbD36Q648DUxTPAjmqTy4cD08eULxO9k8KTxi\r\nIBY8Qu/IO1wqOjw2fzU8G7/UOwK3ATzm2Es8rmgOPJQPijuSd+s77FfVO0CGozwUqNU7dkD3O2AJ\r\nETwyXos8T0DnO08XZTzAhKk7eyzUO9oQDjwUsOk7VmzPPDYmrzxAJUE8dJIEPJpsHjweU6U7qE9J\r\nPB2o+zsvpAM8opC2PB9TCjzdrI08UGZZPJODFTyPKos7aDgWPCisjTxhzDw8mDLNO6z+pTz4FAI8\r\nIM8hPBwD0zz09Uo8Ev8RPCdaITwo+Fg8nIQ2PGBhMDxKcE88p92rO4CxpDtlaIE8LT8vPM6s5Duv\r\nmYE8EQQBPGxFOjyNkaU7TC+XPO4mWzxbuQc83e7wO4mlwDws4Jw8mz+MPKQWMTxu5xw8669mPN9v\r\nEzwjRRo8RPfXO87yzjuZGhw8JMcjPDtjsTsuFTY8cufsO8puCzw22BM8ITQXPHAadzye9Hw8Taei\r\nPBfbFjzQSJc8qxSsPB4/XjxGWxk8OfcoPHVusTsQQwY8COIKPGGSDzwT/rY7h4byO3g4zjvt7hY8\r\n7PV6PLLZGjyc2rA75l2jPBzszTuGNSw8Xy7iOys9gDwWwQY8z+yDPLuYEjz11A888D4TPKvs3Dsv\r\neAk85TQnPGJnFDxVgA48S7YhOxJmLTzCkxk8WvM/PFNjXjxwQ/U7dASNPONGOjzq3iA8wr+tO5AV\r\nzjuHgQI8/ASEPN+0zTtEqro7cPijO8eBuTwI9f870siaO9xgyzsd6y88vt5BPAApAzw6yoQ7ngWb\r\nPGe8HzyYZSA8mk0OPIDaJjzxGqQ72vgAPP8NADybpI07kF0WPGCt+Dsk0gw8HFGMOzAH8TsbBNI7\r\nc8A4PKqQBTwyOEY86t6cPAa8IzzzkG48rJcVPEg7NjxIKjI8CpLkOxcjvzurBro72wV0Ox5LdzsI\r\nPoA8UtOnOzgXHDyit0s8fd30O+bczDu1KCk8/21WO94OZjt+JIM8rLQdPI+7pzs8FI479t0CPHCF\r\nHzwCGjo8V3HNO9EJ8jsA7Rc8Yq4BPFhzRjyuevw7jJMiPC8NhDzDRy887WeWO0aZXTwstgI8YokF\r\nPGvHjzs2gLw7oO1oPBjEJTyJ1wc8qPkGPDR6EDy4xUg84HuSPPqphDxM1pM8DiYgPMwOlTz85Cs8\r\nEmQUPCaaqzzR0pU/9DpAPOKybzxQQr887THdPGtEKDzmWSk8p/NWPGW97DtXxtM7jXdcPOaFNzyK\r\nPNg7hHpkPCeGbjz1vcI7Gl/eOwKnGjy19lg8TioyPJqSPzzcvzM8EAJyPDFP5zsvBfk7NSHWO9BR\r\njjtf9RM8byTiO0rQCzyEqAI81qH6O2S7ADz0vgA8DX5GPO0IEzy3FpA8erBkPBIyNTwQ1js84O8O\r\nPLYbBTysdBM8qrAgPOBXtTsfc7w7rmCpO95EFjwKeQA8o/UXPCfhgjwyydM7+4XWO3HVQzs8iCQ8\r\n2/wcPHuVWzwshBg84LuSOzY7rTsPljk8I1bOO7QlyDsR3Tc8Pn2JOzTP6DvEigQ8QmzsO4lo3jsJ\r\nBgI8YOCvO56WFTwpvmk8MkOtPEtqeTwM48g7FwKhO+8yKDyM3UU8kIpfPAneDzzb+TI8vijSO352\r\nuzsjiQU8rIY+PJ6cLTztTiM89i56PKCU+jtqg9Y7aedZPJBiuDzpgOQ7mlkAPBchpDxoeBM869z4\r\nO0bFIDwZtj08iK2gO+EzATwAOSE8w7ULPO5c3jsFQPg7eeX0OwCFczy3sqk7mURBPLh/Fzx4mQ88\r\nzwrbO2rm4jxjVeo7Yz/uO7iuPDyYScA7VYQAPNzLuzt4Ucg7D+68O6xTXTzUJi489GfaO4EEDTw2\r\na0s85JAnPGudYT39B+s8tHV4PGgQmTwY8588lliKPGe0HTza+wI8OlUaPApUJjwtGBM8JSUWPBSV\r\nODxyy6c7RE9QOyteKjx0ivA7Cg/sO2J8DDztvBk81oaUPGoJ2jxmE389Y6CqPMGZ9TzLJ1g8vkVn\r\nPFvnIDwxygU8O+9MPAN2ODyGk1A8hicIPNT6ETwODtA7fmUfPBADKjwG9HE8PiIZPOtkljyz+jI8\r\na6/IPCBWzjvmItA872hbPLbzPzzW3v87OI/jO/6jrDura5M8mwEYPLYk7TtpHPs7w+ZhPHLiJTwu\r\n/GU8PG5KPHkzpju0KzA8GgfbO1hKEzxM6Lw7+yDrOxL0OTzM7zI8dFSbPBD9RjxxrSo8KrYMPHwn\r\nlDzCdXQ87hFIPO4BEzywzbI7CgyXPGL2ETzPRaM7tR+pPF4zHDy5q+E7ZtABPEx0yDtMzwk8Sa3U\r\nO+MMtjtOPBg8ZzDSO2Z0OzzOfBw8yoV3O3KtjzuaI1I8fDEzPEJ0HzzM+xc8+mdgPPK01Dvules7\r\n6o5PO8tdETz1RI87xyqgOx/VoDuvs9E78T+GOwd6rTvi2ac7BTGAO1pTqDsG+Gk7fjAGPCVh/TsZ\r\nw4Q8JK/pOw6JaTw14+E7WppZPPGU4zuyJNk7kk9wPP8qAjstCD47yXbKO2L/9zvoH3M7Od3gOw47\r\nijt0R7o7o5kAPGoKvDsO5Zk7FrBYPCwdADyTLL87gHELPLPgGjz2BoY8+eEKPGqZRjvt6M47LlbN\r\nO9iC7TtSNvE7BA3XO320RDx4nGg7RpmQO/jEPjwZPdc7K1CbOyX1kzvYvJo7ihSQOwLz/DvTaRhD\r\n0cEtQp9nCkEYF8ZAogTgQW8gIkAiMMI/ApwRP2HIYj9w8QE/zMQEP66eBT+qQIk+FBeLPrSGOz4M\r\nPjc+hmgnPi5jjz6KBPo99bICPj7hCz7mBDo+ugTvPbixrT3L4D8+ILQTPmyz2D2MCZs9WJE2PpPe\r\ntT21eeo9wArmPXX9FT6oRO09uZ8UPjiCpj0xASY+NDAEPqJ5Kz7NP2A+5AXBPspWpT76k9c/1mk6\r\nP5Etzj+J3pQ/y5CzP5Z8iD9krqo+bBZCPkzgVz6FHPc9H+GwPQSG7z32NRM+t8sgPiaRqj22h6U9\r\n7X1uPZaKmz06T14+pDIEPs6sED614q89DKOrPUSvpD6vFAc+9NLEPbnJbj3OEYg9E5GAPYJYgT0e\r\ncjQ9J3GYPam2lD0O0JA9wsFlPYEPSz1gt4I9g928PbdT2j3wpds8cwVvPZCgvT2551I9LpqEPVga\r\nqz06vIU9ArUPPcAcOj39uDI99ZANPTbs2z3YcRI9kQVIPQvYBz06LiQ9AkhXPdrICT30URs95Fi8\r\nPCr1az1OQic9+LhJPelNNDxkZLM8o4TzPPSWFT1qFw89uTQBPTe5uzz1rXA9VOIAPQe3iTyLK8E8\r\n143HPBlKkzzY8oA8Bm80PXhyAz0F65I8gAYXPeASezzwIbY8cer8PJBOujzccRM93h+SPCRADj0n\r\nCq48eDRPPbO5gDy1ncw8eL3HPEJXqjw/laM8dZN2PE3msDwQeLk83kgtPUj2qjyt3348svNHPMwM\r\nIDw+a+g8rGkBPV3j+DyA6Tw9vbpuPOAn1TzMWQE9BoMtPCiw4Tx8LrU8sHbhPJ2yGDw94HM8rvOl\r\nPCOCSDwxJNI8ojKEPK09Pjw2pI48IkM2PJr1izxmnrs8S4ZaPMVnSjw47F08RgmnPCgM6Dyde948\r\nHtk+PF1vJjw0Vx88XlqVPK/0Jjz8Aak8ADwpPMDagDzy+W087daIPKCG5jzFRIg84gnlO+Kw5Tzd\r\ndVA8Dag4PAyeJDyj6ag8mPKGPGzeqjyqY04870QtPHWHnDx3maM8fj+RPLS7Pzw+8Zc8qezGPFYY\r\nVzyrg7A8Jw6CPA5AAT2QN4c8lGObPD7/zDxZUz48xXEGPPo+QTxQ6Hs88nF0PPm6YTzSfFI8UIaE\r\nPMX0wTyuUZg8643QPAWWlTx13VI8VsSMPIevhTzCYwA97rZbPPkEFTxSa3s8NFx5POK+IjxHbjY8\r\n4L65PJhBsjwuaV48g3tpPKUwbzzExGk84dN3PKJUCjwShIE8X2EwPBeyLjwOvQM8lroDPAFMojy4\r\np3s8iOwnPXsgMjxMQzA8NWRmPL7WUjzCfhU86BnNPDC3gTw2hl08pvNNPCAcvzzrYP47ZzIcPBAQ\r\nMzzWwIk8aFlnPMB8Bjz29i08ODFsPHi7ozwOoPI8jItfPOeRgDxkNUQ87w2xPGv9gDzMMf47Muv8\r\nO5mNIjyfe6w8GcowPHxAhjuEygM8K+nFPAnGpDzd+r08NWyGPELzRjwC0m88/TdWPPKhTjyy+Zw8\r\nirKhPEvTCTzCFk48O0qDPIQO0DzH0iE8KKQ4PKtwQzxXzKg8QicfPKDPRjy+rgM8pFSvPCr8fTzY\r\nIxo8K5R9PMKoJjyHo4c8PLUmPH/7nTwgfls8AlM5PHY/KzzSOWU8taKKPHsXTjzpIZw8nwVCPCAA\r\nOTz6WzM82F7+O7oY5DtKWzc8tmGoPOOugjxRvkc8ORFJPO8Gjzxwm4c8Sud5PBQuGzyFPq47vvt2\r\nPAhM9jsYOzQ8GOlIPJsxJzx8tJk8dl0zPDx2nTxIclo8FkZFPB1mUDzYXSU8xQyIPAo7oDw93Gk8\r\nu7PTO27KgjyEz0w8Zu6mPANDXTx/44A8Z0G0POdqSDyLiSU8xJrIO+55Jzx3BGs8+Dz4O1xFeDws\r\nyyg8KBOAPOqr0Dwp9SE81ZYtPKAqJD0/S9k8/KJ5POkGUjx7Vt08ozJMPWRyJD0QTn49KBUKPs5b\r\nUD/YLYQ/SSxIPhdLcT380xg95pYaPZUbHj13yYw8flUmPAQRvDytBks8AVFfPHdRmjx901M8iUhA\r\nPKG0NzxTfnE8PLcTPGzNEjwMgjo8rqU6PKgUEDyPkhA86alOPBId+ju7+mA8UgVxPBpBHzzrzkM8\r\n/G4iPAopFjyB0tI7odz5O5JvHDyChaY7JphRPNtzPzy90AA8CdqJPJhzizz2vfE76OK/O6K5RTy2\r\nxy88l64SPBYt3TxI0gk8hyMdPPOoLzw7lRs8hCP6O86DPTypFBU8GDCAPLVpiDyGzTo8a9hiPMKJ\r\niTwAMxw8yzgmPKAk0Tuk1to7QgbVO5JhsjveZLI7Ls19PJni6jvM8wo8TM7nOzxNlTuGS2E8/Du3\r\nO+GKWjwSugg872ufO7DgUzyYNjc8Tm22O15bmzuTG/M7WjqPPM/gKTz1oQc8VuhoOxkRiDxXHeQ7\r\nlKM6PJ0XNzxx3EM8CXDbO1/PgjwAEx88y+LPO8fshDymr6I8TCWfPDujVTxSblI8B4j2O0Vdijt3\r\n5q87R6iDPHIwBjz1j8Q7Ph4hPEjgbjx0vWM84sZDPBIthTyYGt47SlrjO5GlBTy6Tjw8bABtPJmv\r\nZDzvc2Q84RGMO25a4jvACTY8YZGqO4aR0TtFaf476DCiO00V5TtSMO47La3cO9LlBTz6HV88wvl8\r\nPO3EyTyf1Lc8u8OPPBRkgzwL6Bk8U7ufPJM6NTylW2c8Z0b0O2FJwDvgElo8ni8cPFTlNDwWa7M7\r\nx+kTPOwO2DuocBg8sMDiO8Mq2jsD93g8b3NWPZjlvTz021A8BCblPOiE0DvvpMY7RqMGPMrXNjzA\r\nwwM8U7YrPORA7ztOndw71dkSPAGX6TselkE8ibDSO7DH8jvRCwk8XifZPMOtCjxYEYo8NsrdO4H0\r\njjyzquk7059tPDjvtTv5Q0g8DFimO2pduztgnGo8T8Y8PLkXODw5XeA7So25O8Y6JTyIIGA8shYb\r\nPP5G4zubj2k8pc7HO6DMQTzMT1M8LTwDPHeWyDtLi947l/M9POrmSjwf7PY7qK4HPLsCzTs8I1U8\r\n8qi/PFYOQjwAK9E76YzOO1ggNTy+rUA8o8ECPM89Ajyu5cw7OITBO1bFAzwmBCY8tx8MPNqwSDxF\r\nHAo8bT/eOxZK1DtjS5M82/gXPLDu/DuSnbo71DFYPLB57jwuSH88HdAnPAavwjtjMlU89DXJO3oR\r\nwTsywtc7CvmtOypyHjySYM47ig0OPIIWIDy6cXc8jeMtPD5s3zu0hGE82ItcPIVNgTwnV4U8ARgQ\r\nPGqAnzzANRk9fsh7POK7YzyFehk8VYHFOycmHjwFxNU7C2toPIbS8TsJMpo7iVQYPBO6KTw0Ig48\r\nFbSJPP3uCTzJ/ZA8KkE5PI4fQjzAiz88gQeMPBcRCDyGcGs8cmglPEio2ju01987wIF6O27nKDxA\r\n4xM8kQFSPA880TvceT07sn/JO+aU+DvICJs8ss86PMvR3ztlQKE8lHM3PFXL2zsKNgk88NiVPAhR\r\n+DsyqAs8wC7jO0SzyDtCow88BEdyPHh4BDyCusw7ssogPKwc4zv8bWM8ukwkPLobjDvG0lI89Us4\r\nPKKK1zyME4A87QDvOzxv9zuP2fQ7/8IyPFwCBjzWrOc7slYmPCej6Ts0Mto7jSi3O+WS7DtouD88\r\nWcfbO66QETza5qE8y6QPPNWY/juACvk75KibPNByFDyevx88qF5tO6hTvjvkWrc7TpUCPIzulTya\r\nd7U7OwQnPDHdODzV65071YeOOynj9juU6a87TMutO+23Zjwn9KU7n2y1OzQr5DucqX47rjASPHIF\r\nZzySLas75JwEPIVxHzwqm9s7Y5WFPA+WKzyKqyw8+56EPMw2ZjwXe787D2GdPE2cWTzybXQ8dBmH\r\nO7bq6zsI3TQ8KkyZPPZ+NTws/mI89O0xPIzmJzyicJw8djVCPBdrNDy+ciU8mDStPE2l1TsI4GU8\r\nP6Y2PEx0lD8J3R882UixPIZxqjwOLPc8e8jWO5NK+jsMEi88p5nMO0LmtjxuzrQ7Rq83PNU97TsO\r\nAEo8Y3hGPItQ0Tvv4447ys10PIPfDjxUFHM8Pr4GPHWh5zvsVGI80G0YPCs2HzxCakE7Dq65O5n5\r\nFzyBJ448J9PjOwqy0juhoTQ8UOYPPIaIJTwlk907KsA1PPSInTwZtTI8hGCqOwi4gzxbuyc8A0k0\r\nPJh5yjuAbAQ8wWIBPCbmdjv88BY8jk4GPOO+EDycRMY7diFhPKoRiDx4XgA8hIL4O8Sf9jsbZ2g8\r\n2ikgPChHiDxS3a871RadO9YwBjxppME71g3QO08jjDzUkvE7Ug0GPPHTBzwMh9k7CX67O06q3DtQ\r\n61o8kS0CPKkwgzxz07I8JDmjPGOiXTxIjfs7rFutPO8jRDxRljM82tmgOyaARDz+xAI8HR7bOwhG\r\nZjzRpog83aQMPH1DETy1Ro88dW9DPD5oizzyxMs7e1DdPBlLBTwovxk8aF9sPPt24TtTN+g7uM5K\r\nPJXR5zsptKs7EN6XO2S5+jv6+C08J40CPDBUzjuZ7mA8yfVDPLpXtzt8Ijs82k4yPCkvdjvhTC48\r\nuHW/PFK8NTyJ3b47o6UDPDSXHjyOGw48VODxO/wgIzykfyo8UnogPC5xWjwQiQI8y+U4PJz+Ajxa\r\nHCY8HnxQPUK7AD1lOlA80XpdPHBnQDxxJ7E8KSIGPFE1hjzoCZw70cPlO0amrzuPlBo8BB4WPGEK\r\nhDzi6ac78x0FPBg+yzsbchk83ckyPGNYAzxhQok8ZxTfPPhERD3S0hM9WGt/PMOTjDydMgw8mCAf\r\nPMRCCTwKbO87Wq9QPFJiVTxtJRM8HQz1OyPbGDy289o7UvldPDTUkjzKvC889/+NPMwzwDsMKHA8\r\nJnSxO5Jg6Ty14008gakDPAjj8ztpryU8drRHPD5DGjxuvUg8Bu/uO6+jMDwyXiw85Z4SPFF5Rjzh\r\nDOg7dGK8O5G3GjywhEc8eaVgPGJcujsZEmo8l8clPIGdtDs4ziY8ZmjsO/JpaDyA+PA7KYEsPArW\r\nITyD5E48WrKbO3mVuDuz5ks8xsVpPNqD3TuJl6Y8MSQePBdX6ztnMhI89iQMPI6Qdjw21sk7Xk6V\r\nO1aRFzzsojo8TvwPPFxFTTxe9nU7rotOPFxYDjzeBV08CmwOPDSj5jsrKDc8Fzg3PBsQ9Dskjsw7\r\nDSjuO3PHrTtM1II7oOiPOwKOszvygtU7UwSdO8EACzx5uJM7YEHjO1ekFjzS7d07yY8xPAXzijye\r\nqwE8DV+WPJrirTt393Y8HS/GO7mnvDszYlo8D1xiO4ygQjtgaqI7jW+cOzaIhDuoLf87mNxwO/Nh\r\ngzsw/rA7XITWOqAg3TuabmA8IacKPGLRdjsum+g7uKa8O770oTwEHQg8tjiGO5KWjDsjexU8WGIW\r\nPKS/ijvGZ/A7vMG6OxNxfzsJytg71AFRPCxpRTtwaLs7tJ9yO38VojvgTJE7wTwZPA==",
                                  "noiseTrainingType" : "default"
                                },
                                "metadata" : {
                                  "effectIndex" : "0"
                                }
                              }
                          ],
                          "start" : 4820,
                          "duration" : 1577,
                          "mediaStart" : 314,
                          "mediaDuration" : 1577,
                          "scalar" : 1,
                          "animationTracks" : {

                          }
                        }
,
                    "start" : 4820,
                    "duration" : 1577,
                    "mediaStart" : 0,
                    "mediaDuration" : 2011,
                    "scalar" : 1,
                    "metadata" : {
                      "clipSpeedAttribute" : false,
                      "default-translation1" : -324.0
                    }
                  },
                  {
                    "id" : 53,
                    "_type" : "IMFile",
                    "src" : 8,
                    "trackNumber" : 0,
                    "trimStartSum" : 0,
                    "attributes" : {
                      "ident" : "ui"
                    },
                    "parameters" : {
                      "scale0" : 1.00635087719298,
                      "scale1" : 1.00635087719298
                    },
                    "effects" : [

                    ],
                    "start" : 6397,
                    "duration" : 145,
                    "mediaStart" : 0,
                    "mediaDuration" : 1,
                    "scalar" : 1,
                    "metadata" : {
                      "clipSpeedAttribute" : false,
                      "default-scale0" : 0.673684210526316,
                      "default-scale1" : 0.673684210526316
                    },
                    "animationTracks" : {

                    }
                  },
                  {
                    "id" : 54,
                    "_type" : "UnifiedMedia",
                    "video" : 
                        {
                          "id" : 55,
                          "_type" : "VMFile",
                          "src" : 3,
                          "trackNumber" : 1,
                          "attributes" : {
                            "ident" : "Rec 12-22-19_002"
                          },
                          "parameters" : {
                            "translation0" : 602.0,
                            "translation1" : -285.764705882474,
                            "scale0" : 0.25,
                            "scale1" : 0.25
                          },
                          "effects" : [

                          ],
                          "start" : 6542,
                          "duration" : 1199,
                          "mediaStart" : 274,
                          "mediaDuration" : 1199,
                          "scalar" : 1,
                          "animationTracks" : {

                          }
                        },
                    "audio" : 
                        {
                          "id" : 56,
                          "_type" : "AMFile",
                          "src" : 3,
                          "trackNumber" : 2,
                          "attributes" : {
                            "ident" : "",
                            "gain" : 1.0,
                            "mixToMono" : false
                          },
                            "channelNumber" : "0,1",
                          "effects" : [
                              {
                                "effectName" : "NoiseReduction",
                                "category" : "categoryAudioEffects",
                                "parameters" : {
                                  "denoiserAmount" : 20.0,
                                  "denoiserThreshold" : 0.0,
                                  "noiseProfile" : "g2eYQ5IFNkJ+nYVBnvCVQAsnpEERuZFAZc5XQJlhFUEwacdBIapJQqZIA0M8MNBC4+gkQnNNg0Da\r\nZ6A/NWuvP02GDUAQAtVADLXGQHNw6EEVyE5Cs+7mQTisXkDjvEtAqbuwQGOiKEEkBBxDVnt7Qidb\r\nfkAK7gRB9OnvPz+k4T7MnZM/TFRpPzAZ7T7sl0k/y/K1PnOE2T0Q26E+AG92P9RbJT81QQ0/v/AL\r\nP5fSVT93jHg/Py1fQMJTUj+/uMg/0KihQNa7qD8+M0s/5L4WQOhsnD+dSLU/0PA5QIIr1D+h0Y4/\r\nAV9oP8OhAT8UaaI+aoumPkzxYT/CewE/qtSQPmSZ5j3+TDc+TAKCPlkCFz5n9mE9gu06PQJrqj1i\r\ncZs+KRZnPh+BPz759f09wWzMPTydRz5xpRg/6pLbPqgAuj/g780/+IyBP53Uqj47hqA+bB4WPknM\r\nuj/Qdow/FZ3JPqa4xD4+aDI/KtvIPkLfkT7bkzM+nq2MPmdlQD6cVBk+n4K4Pcql2D5MhRw++v7P\r\nPV2bLz7IakM9D4UiPZABoj3AAEo9wTgVPmiZRD65Ej8+cDBGPnORoD0a5V09MzqkPaYWNT0mQno9\r\njaOOPaW7iz3wK/g9/h9IPXQhDD3qfZ09y1uYPtSthT1wldU9eK8rPvRUzT1Qsf0+MvOcPhhraz76\r\nFdw+mMTbPmpEJj6HYFA/r96LQD7WPD/fZ+s+4o2jP26AD0BvI5Q/iKWmPkpdNj3eX8I9f6MjPgZo\r\nBD6nOAQ+DCi4PRxnvTxw1UQ93Ao2Pp5QKT7vBTM9GfslPXUKCz2myFo9OSspPeJnqzzsP4Q9A1h5\r\nPR1LTD56U1E+UjZrPtHIQT1alVw959l8PEYpyTxr+pw9bXBTPdrnfTyRMqY8WMmDPezbdT2FwBw+\r\nLswJPnz2Gz5aSAY94/eoPPVyTz0U8IA9b4W5PWXWQj2MILE92Dd6PUgnoz5QVPE9IkN0Pd5ZMD39\r\nrk89UDmlPcqTdT3QU2Q9YPwSPqPSqT7gfG4+UMcVPmgFrz0TEoQ+Ei8hPV1q3j2MXZA8sDOvPLhf\r\nnD3O3cE94heZPR20/Ty2cLY8SsLoPPbbXTyKJx49dxSHPUrC8zypWtM8PaZbPUU17jyLNY88ZRdy\r\nPWlXTj1CYvs8shSQPOpsdzwP5G48XLypPP6OmzzeEHU8zdGwPFYG8jxT1x89LaM1PBwrVDxBOi88\r\ng5BhPNgjJjzBKz88DqxYPJAfnTy90Qc8zHOWPOM0gjxuuig8vqW/PLY+xTxpnhc8/zDcPPNkYzzB\r\ng0g8lMlUPOFs9DxmOhM9xxySPGxafjyAXBw9taFfPDCiMDw9U248yoYiPOVtFz0piJs8AmFtPDaJ\r\nyDy4vO07NCqFPP6f3TzXr4k8jqcjPXKGaT30D0I832z+PPBbbDxyAYQ8qbQ5PERgvzwWR6g8cQ8j\r\nPUjijTyZwUM8iRXePLbDgzxL4NI83Q5wPH0zJzwTx/A8Z2bCPFGztjxEEwA8YjiAPOY2Fjz79j08\r\nttOSPHBXmTxUVD88vKB4POJQXTxC74w8AglyPE9kiDzPUhg84vG6PET+TjzOG2o8Q68JPeG8Mjzc\r\n5uI7bwIHPG8PLTzUyYY8/8aSPN/2MzyIwnM874YXPW+VDDzQYBU8bPBoPKbgFjzPghM8FtYOPeft\r\nnzwBCzY876m4PN6+ODyCoxs8RdB4PEK2gTyqvPA7t9wmPLfNgzz8et07wuwnPHwqhjxip2o8NUen\r\nPLR8xzyAWhE88Q7kPICmTTytcmU8a1pHPC7QdTybVyY8tCofPG9aMjwuNUU8smCSPJp7Wjw3DUw8\r\nVr6ePIDdOD0wfQI9BVuCPKCWhjwHGxo8ZjpTPFG8fTx2BbY8Cmn2PKhJxDz4Vq484LldPJY+mDzg\r\nAIQ8f/FbPMTXRTz+DF49C8XJPDpFZzx5wQc97qluPb1dbTxYR7M8SljqPLTfJD1Fnzc9s/ONPeJO\r\n+D2kqE8/AE9vP4/RNz4Fp4A9bkkZPf7zGj1862I91YA9PQ8AzTxMZs08OGXJPP1aBzwtpmA8EdgA\r\nPUkHvjyiyNs8Wf/XPGUmvDycDq48MQQIPbqJKDzUBpk8FZeSPH7JiDyMcG485VbhOz8HljyiGbs8\r\nFfcNPPb+LjxfumY8JipKPF1nnDwdf+U8w46tPC02KDwvUlo8c2f+Oy+6hTx+cQk8UNHQOwzIiTyk\r\n/M87WIaCPAWUhjxSPlM8t8ZMPL3ogTzE1pA8imIVPBoQ5TsNFYs8Lk2OPDS9iTy/QRQ8ynvzO5yM\r\naT2b01Y8OImRPOipdjwCYa88wL9JPGV2jTws/A08evlKPHkG6jwMyz48xcn0PEGgIjyPw4U8iMqt\r\nPJDpAzyusVU8fhgxPC6OdTxm1nY8uLg5PAcwujw2e+479FaMPOXZUTxQBro77ZUDPBOSCDwKtUs8\r\nvDSmPDLYJzxWSo47CIW5O/78iDyfXJc8JnAjPItTGjwE/KE83L66PFwCjTvFXAA8/W60O5N5TDxD\r\nITY81MSwO+9QDD3giHs8zNrEOx+h+DtKp148MKSBPMIdUDzc8ok8nUneO9J2Vjyw4QE8GN7DPLyD\r\nkzwM/Qk8LhsnPEpwtjxZBic8eMhBPN9D9Ds9aH48zMYlPO3wMDxmnjg8KrIiPGQOcjwHOEY8orhR\r\nPHGViTyzFWk8qUSkPEC7NTxcLj483BHqOzJ2OzyCR+87plzcO87zmDuwiY07r8I/PGpQajwNfCg8\r\ndHL8O2TCKDx/IkU8sLjCO9H5FDwWwI07GbJQPK3Zez3vanI8vEttPKRjyTyQ0Cs8iiffO82DZzyc\r\nZi48xpwNPFKbnzxM54g8xTWIPDqfCDxFgBY8I8RZPAWBQTxlATY8BdWJPE6q2jwnMII8LvNaPJ4V\r\nHTxcTEY8rBF5PArobjzDSxQ8vLhkPD6GYDyZzTI8DPlGPMy8hjuxhjk8S+mRPFuCDzw7LUA8AbP2\r\nO7KXszwzRd47f/O6O/RL5jueq+Y7ntQ0PG6WQTzEDcs7BlKGPPqV4TuMezU84kiZPAraQTzD1lw8\r\nyrI0PORoYTwlZaA7OyJkPN6bYjx2AKE7y8WIPH+M3DsVbE08c29CPK1iUDwrczw881UwPESXMjyH\r\nUfs7E347PIBnHzygYX48qmUaPFhLOjwSU7M86I8uPJVZoTwM++c8zF+mPFaAXTwMisQ7AZ1FPBS6\r\n8Ttgvtk7d43gO1OkCDx9UqA7zJMzPPXFUzyQiXA8jmJ/PP5EATzAGpU7iJeCPLIJBzw4/a48ORdx\r\nPL7+OTzcgmQ8fA7RPJmSHTxrPTg8fsowPAED4Ds695k8H+bIO4Zy2zsKZHM8RPgRPH/EYTylPwM8\r\ng34PPMJ8WjwwT108FzsEPXbVpTxNIxc8L3BIPHLbEzy1YUA8DFpwPNe9iDwAevg7iJElPFJ46Tv3\r\nQog8p54ZPH5yUTxI+V481T4SPBxC/Ts0QKc7MgpZPOmUKTxtjSw8UKRUPKzy8zso6ZA8VEQtPIdz\r\n+jv48TI8EdZRPPRwATxyO0c8OI7SO5JZ7DtCHOU7B2IPPBZYWjzHJ9E7sAqPO2oG8zvqEjw8BSUF\r\nPO4hRzxfuAE8NJkAPK1n0ztdNhY8rjwNPAzcgDyzhuI7QijMPKLrUDxhexw89j4FPEdgBDzwCCE8\r\nYqxUPDeV+DvBsT48FBrtPHne1js8NRc8Rr0CPGxJZjyWmT88VpEUPEdQAzzFxQg8kpMYPDTdSTyY\r\nBtY7FHAcPD0DMTxFYP47rR7oO9wKUjyy9/47yoKkO2p5UTyX50g84KakPEWfiDsrC747fOLtO9XS\r\nIjyCqfU7Dqn0OwemPjx6ePw7IaIcPGQQLTxg0Ko7g9t3O7ZlmzxH0p88XIQyPIAEJTxMhnk746va\r\nOwWWBDyHWOE7CT2pOwDCPDy3FZo7qr1JPE47bjyaVC48VIaJPHZCWDwERkg8ujJmPEltiTzUV348\r\n1nADPIYKiTyIj4s/MXFEPPS7+jtib308AGkwPDfYwTse3hY8IEtJPPahLTw/LoI8KHu9OzkbKjyM\r\nJjY8LsJkPGu42Dxo6QU8Xan2O3ibgDwjNwQ9Mre3O1D6zTsYNIw7aNXtOzsM6juVVQk8KgI9PK8x\r\nrTt6/w08VW0GPLoMGTz2XQY8YsHDO7KQEjy/22w8tnbdOyyrEjx6oH48Ov47PDGIGjwcqLM7+24a\r\nPOSGZjz2Myw7+wkTPAQ6HTzERP87kUcPPO2SazxyWHg7/GC8O7YhETz66uY7tLgBPNZ3IjxMeQ88\r\nyV4NPIiuNjzcjGc8wj0VPANHBTwHZow84DRUOwrLIDx5Qpo7KqU6PG0BMjwSpJY74BLnO8THXjyz\r\n8Qs8cs2/O6i++ztw6ks8vkxgPOBIxjwadIk8gp6DPFf/4TvHhxA8JNm3OzJ9CTxJvgQ8RPzbO6ov\r\nfDyHaLM7dmkmPGjkljv6JxA80i7IO5A6GDzaSnQ8TJgIPDKI8zyDoSw8hqoyPI+NmDs0uKo8HPOF\r\nOytLdTyGz3I8QmRCPMRHIDxeDfk79xgVPFxiyDsu1A48KdgYPOVjcjzZ0tU7AR4JPNV48Tt3jA08\r\nYlavO68KUjzec2A8JQvhO6gpLTwexxc8rvSXPK6hRDzkuQg87fkBPCsOFTyyDNw70ocJPMTR8Dtq\r\neSI8MmE1PCmHeT1ERzA9XDv+PE8VrzwgKyo8ZVqXPDtC4TvmLFc8Zjw9PEGNLTxa4go8Sr9dPDhM\r\nkDseeAg8OdT2O5Ed7Ts/3Nw7vJzoO4/ELTyFxo88kIWmPB2l8TwkPkI9Y85RPKxjXTzplOE7DVGU\r\nO/YoLzzxo5U85Uj9O1mBUDw3t6o7fNgjPPvlAzwmShU8cnneOxH4CTwT9Vg8asAKPHCKrDyRBhY8\r\njKsePGHxPjxTo3k8AE8CPZ4lCTwmmaM8qJvxO4KiaDylb5882YMDPOYMvzuQUIw7RTUEPA5OezuI\r\nCCQ8bUpsPH4G5DuSyiY8UTaAPHImJjxsNe078l0lPC+FUjxz3wc8/yg3PKFeJDwuCJs7KNCvO9rt\r\nLDzrNRc8kEjzO4iFkDtUr+M7U9NjPFcU3TsMHEk8YS6KPKsOzjv12Dk7v6iRO4y5fDxHV/c7Ie9p\r\nPJvTDzxGKY87jkXhO45WCjzzNPk7iZq/O+THODy0opw7bzeDPIJfhzzbjBg8Jk0zPNx3JDxmAT08\r\nIba4O5LOmTsSNXs7JJXDO2FWgjvRupM7m+IJPIjiHTswxZ07EI8FPFT4UDt3JZE7RQW7Oy/lsDth\r\ncxU817ApPH7Lqzz+tzA8P4uPPGyLjTsQ5m07ph9vPJiKoDvRWbk7fWX2OwGJxjuWXfE7WcEUPBue\r\nDjyOeXQ7LkuYO7LrDzxCO+c7236gPA59hTvBYaw7eY0SPPeeADz8AD08LmzVOxKyoTvpGsE70jQk\r\nPO+dtTsQdOs7uz+TO4TS0TszAcg7YKELPGCzEzzMDI07bJ4BPCUvBTz8HiU8mJPnOwR6UjvigJhD\r\nFoAxQvx2gEFgyY1ASgOmQdGUg0A+V1dAChkOQcwUxkFU1ElCDJcDQ7/V0ULKVCVCtD2HQMBxnD/R\r\nz7E/sI4RQEBe1UAaisVAGaToQaAAU0INW/NBSLt8QHhZUkCXSaxApiYxQdrpG0OmwXtC4kR+QLoj\r\nBEGuGvI/yITZPh2mlD+im3g/H+sDPzHdRT95K88+NUMCPqn+lz4lNXM/63UfP3usGT8S0A8/kshj\r\nPxWWeD/GpWdAKM9GP4ks1D+EIaZA0jupP/5KST9W+BdA7l2ePx/otT9BjjpA/IDPP06zkD8+W2E/\r\nylQDPymAmT5nOKk+RP1gPx7d9T5pc5M+sBrsPSZxKD5Yv3A+i2QiPhYvaj22IlQ942PxPebgpT5c\r\n6FQ+7kVHPlHt5j2w1OY9Vhc8PkGEDz+yKAA/fCu9P1iU0T9RAII/2DCpPiZ9vj5KQSY+8mi1PwwO\r\nhD/cYN0+ttO1Pn3oRT8BzNE+sQuiPnXkVD56Fok+S7ohPrUiID5yeqs9VlrIPgQlKD4wkIw9NLVA\r\nPuKiNT1iEjA9oAeUPTKJIT2o8gc+/XxbPulwRj7hlmQ+ZZWdPX1zaj3ZgLE9ht8nPQyTVz3kKKA9\r\nuRCcPeUcGz7nFjk9ti0iPRserD30P38+JX6xPSw3+z1EPA8+M263PcQP8j4rQqo+dtZrPuT20z7U\r\nvdI+xXAyPo0XWz+zp45AvP47P47g7z48Mac/Wk4UQI51ij8edp4+cI4sPakcnD3WkjE+azwPPuS8\r\n5z0ohLE98cEYPY06MD2GEjA+uiM6PndrDD1mOxA9whMsPSlCNj1MpXE9jZqiPHBoqT26dZ49atY6\r\nPunZTz6yKIM+0gJYPVFGWD0Ce5U8ADmbPD4e6z3b2pA9JHOyPKjKtzwYd5Q9aSqmPZbTBz72ww0+\r\n1CQkPruXID16KZA8pbGIPTibTD3TYqA988Q+PZkxtD3YO509Y/edPtQoCD54D5A9Xfo0PdXsjT2b\r\npqc99lF3PYJFWD30ww8+06WmPsAwWD78H+89UuGcPQYSgj61Y0Q9W1TXPUZH4zwCcPA8U0+kPXwg\r\nsT0Gl4E9+SAoPeZZ6DzG0NY8eKqBPBd6SD02EHg927uvPFYiAz3nbUI9Td/1PBNCqTxtvwY9JDlA\r\nPXwE5zz9m3E8bqkvPOtJZzzSSW486hiZPKq+pTxH4NQ8nwMOPdwMYD3Ay3E8eOxSPBADqDwPs1c8\r\nbbllPC6zXjwri5w8w82bPEbHcjx7Z4k8dZCPPGKeOTyvxgQ9sv2jPLZ/9DuEShI92mBiPJMBjjwE\r\n+pM84oDQPF6t3zxHZsY8sWrzPFjc2zwuajk8m5erPO/rJjz8pkE8ItbsPEEPvzy8KIQ8SOaFPHfU\r\nsDwiIUg8e+MYPRDrmzzxBi09l8okPZ4lOjxsWaI8sOXDPDhfGDywwyk8pkzJPKQwBD2I8l09s+G6\r\nPECgZDxydsc8xy3PPIexmTwh02Y8hBzmO4DcAz17CLQ8+QzHPALa7TvQSVY8RaFcPAw7LTzWeak8\r\nbdnqPDRBCzxFh5U8ZpekPN5zejxLtGM8SC6qPE7BZTyQSYc8+CtbPLljZTx1Ccs81BprPABx0DsY\r\n1QY87lRCPLuNoTzmA8k8SXpbPMH+nDwGFB094hkiPHjPLjw+wjE8toIPPJBcNjyNG588YLl+PPOz\r\nXTyOAa481nFVPAh+azxdI4w8EcaiPJgK9DtmofM7/BKHPFQCDTz0v+c7Rh+XPHgpoTybpLU83Tay\r\nPFEB4jsyG0E8NoRvPHpPGTzZti88lHKDPFQDCjzUuiY8cyJIPOg3dDw+F2k8uGYuPMLePTxt3JE8\r\n5rtCPUbK3zy2T0886RSFPDoSHDyvhEA8YiufPPWbvjwd9p48hCAZPUvhzTzRvIU8STyFPJJ7NDyA\r\nIYw8fC1WPLyTQT1Iwt88Zjf/O8dsKz0cwFo9keVAPHGRvzydmgc9LttvPT7TUT2NmYQ9ZpsFPntj\r\nXD+/pWo/+U05PuGrrz07YAk9+T2GPVUDcD2y15I9Z80DPSo0rTxUZ6g8ggydPCIrhTw6pr88as7A\r\nPPrCXjxHVIg86y6ZPId47zxiKbg8R3pHPB5CxDzZHGw8P8+aPNrkNjy+D6U7ezC3PHDVujz0www8\r\nIl2CPI5Thjwn4208CpWcPNz2DT1Nfvk8vn9uPDgaNTwszw08bxo6PBqJRjzX9hw8PBxQPD9+szty\r\nWZQ89hD3O+URcjxkhyI8DJsmPECWSjyki/Y7FBwUPBAMdzzli5A8vBsWPOEbOzwO7HY87Mt8PdVy\r\neDx+Zf87jayDPC1NYDyG8IQ8212OPCq8HjylUHw8A8DDPO/oLjyaszI9ySY0PB89hTw4iRw95uQs\r\nPP43pDwzFh88nOZ3PIdYYzyBz088pu+NPF4Rwzv4Wxg8tssPPLu5CTyRtPQ7BNPhOzRqazylAoA8\r\nwa87PLDlujuZlMs701VJPBtAuDxkQlk8rpkcPIb/gDxQJTI81MjKO2GwzDt1obI7etZRPPUNGTwf\r\nhqE7lhfdPOR7azzF0Dk8szjVOydBATyEZJU8F9JDPO0rgzycFAM8/1UxPBzddTxGcYo8tPnPPD+6\r\nEDzjBSc80NqEPFPTlzwIIg088BgvPEBAjTxvsSY8yXRBPN9EAjzOtDM8eJY4PBQtVjyXYB88aniW\r\nPPDsVjzRd7o89PoOPDKIMTwEcAI8dGUQPG8bCjxqSds73DgDPN5+FDxbtVI8G7F3PFVjMjzZDwU8\r\nfZ3fO6LN6Du8YcM7zYegO5ygCDwTZYM8vpc9PfgUhzy7oIo8giqrPG/GoDsvNQU8c4lIPLikJjw2\r\nqh08PU2+PJ7TSjy3NoI8hkgsPN+CFDzK4108/fw4PN+iCTyZLkw8dNlSPNEUPDyIqzE8DA6uO4vF\r\nZDxm1hE8dRUqPDq5Bjya7jM87jy1OynLDzyCRZE87saSOxIlCDyBF7E8urYnPEh6KzymxK87trxM\r\nPLwHDTyOY6M7hLwQPIMH1TsMNl48PHYSPNaqqTtY7IU86Hj0O4rFNDxQUy08SsBIPPj1tjyrVTw8\r\nuUtLPKb1ujukjDk8T44OPKuG5TvIZn88Zw7+OzFDXzzoOw08lh5PPOrCaDz5DEk8FeFXPCb2lDsV\r\n6FU8CIMOPLQ2PTy++CU8SyXnO+gxeDzI1ko8yeTDPIoZ1DwFOMc8Wo6BPL8ZBDy8CVk8J6oWPGT7\r\n7zuB+eo7H78vPKqgaTujjYI80o0HPBZyijxS9Zg8U2AgPJljCDwj++s7hpLqO2L3yDxIGTc8fvl4\r\nPNAhCTxXA+M80FEzPEafSDxmVi88fiQJPOFupTzPBg889WvnO+94Gjz4Swk8pzV0PK/v/DvoxCw8\r\nhH51PI5wNTwUvNY8fMi4PDck9Tsw5TI8k6I/PNXNNzyI/H481MZaPD1LHjwX78k7Efm0O0H5ijw9\r\nTxY87mFRPIoU6jso2DQ8x2xEPDzr1jugvls8SmpdPOkAIjzQNP074J4HPEJ8hjx0ajc8cE+CPI95\r\nmDy3cQ482MvkO1wZ3DuUYLw7mprvO5wqxju7cDI86iIaPLZZ4TvTUgk8iIX8O/hsWzzYB7I7bp2a\r\nPDrkVzwzUSk8fLQUPIyZMjwWLHs8fqqkO8pRFjwI9Z08dqUAPNZhXzyqGug7FgRKOyeVFzyiTSE8\r\n50T1O6LlEjyFvhE9fn8CPPgxQjz4mBQ8W44ZPAkiszugavQ75fSPPKvnNzwuWCM8Op2fOxqZfjuT\r\nrNo7CCb2O+yLDzwKrww8djDhO48zNDz2p+M7jxwkPOt+gjzqVkQ85QPDO+L8Izxj2OI7PxANPD6w\r\nmDtuKCc8vz1dPBQUqDsTNjo8NA4QPJdlCTwRqOU79XtBPDYsHjzO6x88nophPN8d7Tvjfpo7rmwb\r\nPJbvRjxqGsE7cXTLO/l88zt9hpw8ejqtPO6mqDxuwjo8YDB6PKoZyDtWxOI74CS2PAwIrDxjvSQ8\r\nQgNdPEMNlT80LWk8Yp+RPHQibTxNASs8iHFjPIk6MDxt2Vs894l2PCDPUDxwlz08aKX1O752GDwU\r\ntGA8djWZPPHNLjzwWCo8ohN7PN7b8jzTQRY8GWeLOw5WZjxVqcM76ihJPJ5ASjxYNUI8sEUpPGB7\r\n1DuMwXc8hO7WO1VFFjxABiM8isxKPDUKLDxgY7Y7ZKDXO/iiSzzauRU8oRi+OyB9yzs71j08K+0B\r\nPHrbrzs4vNk7qRgKPHy46zv7mTI86Z9RPFjEzDtsPQA8s86mO5LzWzwgpIg77EYnPAKN4zumJqg7\r\nySFJPFCSMTy71Qg8iy+sPKJxWTxkSbQ7hZTwO5gerjvQZLA7ByMgPDWqnTseLyM8xiraO6i5OTxC\r\nLS48vKItPFsPEDy/KD48Pv2aPPQ0YDxQC0k8ikIfPCU8gTzWlQ08Tfa/O9iZrTv+e2c8slB7PJoV\r\n3zvyvBo8dJGhOxgwDjxQ5o07OhetOyTuIDx26Fc86kHyPAAl3DuDCbI7Fj4SPNi9JjwruAw8zelX\r\nPNgcJTxWw7Q7fpaoO5rEkDvtfBU89onLOwlzljtNRcw7WPglPLyYDjyCQbM7nbQDPBX+0juX8cU7\r\n1GpTPHk4JjzXP2A8Ur2PPElBTjzy+fc70KUBPGTQdDzwSz08Ib+fO62cxDsEzfU7gWT0O7696Dv3\r\nEAE8I5yUPZAECj3iEFg8of6sPG4C3jte5Rg8GkiJPBVTKzx/RHE8otf5Ow6+xDs414A8uZzWO/UV\r\nYzyys3g76lBAPLR8wDuXTiU8vtgRPAEMDjw6jL08ki33PHMIHz3Dh0Q8zpv0O019AjziqO87pAhf\r\nPP7yNzweZgA8Op0mPJ6IxTs1yxs8XjMEPKZ+BDxKYRI84PQUPBLfiDzdfRg8xHcEPcAitTsbZR08\r\nNxMDPP3vHDxOdYo8WnoiPPq6RjwmYAQ8OuAhPNSvojyk+Co8XxdCPEgL9zvXv2s7Ugh+O59mEjz9\r\n72k886YQPE6NCDzoYP47a1DGOyAs/TueuDc885YWPBrV3DvIIe07VzESPIIvxDvU2Pc7uGjFO2J7\r\nNzyVE2M8YKW4Ow6E/Du+2Dw8tGDRO8DtnjtYRAw91xnVO1/IuDsH8HU7XrTVOzzuCDx9Ovg7eGIV\r\nPPBKBDyo/Wc7eV4CPHhT0TunSho81drYO4w04Dtw5JQ8XQ+vPIaGNDxj4JA8UfyrO5aJRzyqNyk8\r\nlId2Oxb3iTv106k77akxPEHLHzyTdSA8wG0FPHzdGDymxeU7zI0sO0HPhDtgIQA8AuHtO18kjDuU\r\nLBg88BGXPEAYczw0ay88KjGIO/sokDuDSgg8iyCTO5beaztSNcI7UwqyO8uQ/Dub+1071ny7O4bP\r\nejsN58U7B09eOzppszt/IZQ88s5cO/mNpDu04o8701GnO7QqAzxu2Mc7yCW4OznSyztZX8s7hxrT\r\nO5ji+DsiuU87aNPEO9J3SjuuIwk8au2YOxyrtzthUzQ8Q+jjO+RczjsdN5A7QMQhPA==",
                                  "noiseTrainingType" : "default"
                                },
                                "metadata" : {
                                  "effectIndex" : "0"
                                }
                              }
                          ],
                          "start" : 6542,
                          "duration" : 1199,
                          "mediaStart" : 274,
                          "mediaDuration" : 1199,
                          "scalar" : 1,
                          "animationTracks" : {

                          }
                        }
,
                    "start" : 6542,
                    "duration" : 1199,
                    "mediaStart" : 0,
                    "mediaDuration" : 1516,
                    "scalar" : 1,
                    "metadata" : {
                      "clipSpeedAttribute" : false,
                      "default-translation1" : -324.0
                    }
                  },
                  {
                    "id" : 57,
                    "_type" : "IMFile",
                    "src" : 8,
                    "trackNumber" : 0,
                    "trimStartSum" : -62,
                    "attributes" : {
                      "ident" : "ui"
                    },
                    "parameters" : {
                      "scale0" : 1.00635087719298,
                      "scale1" : 1.00635087719298
                    },
                    "effects" : [

                    ],
                    "start" : 7741,
                    "duration" : 165,
                    "mediaStart" : 0,
                    "mediaDuration" : 1,
                    "scalar" : 1,
                    "metadata" : {
                      "clipSpeedAttribute" : false,
                      "default-scale0" : 0.673684210526316,
                      "default-scale1" : 0.673684210526316
                    },
                    "animationTracks" : {

                    }
                  },
                  {
                    "id" : 58,
                    "_type" : "UnifiedMedia",
                    "video" : 
                        {
                          "id" : 59,
                          "_type" : "VMFile",
                          "src" : 4,
                          "trackNumber" : 1,
                          "attributes" : {
                            "ident" : "Rec 12-22-19_003"
                          },
                          "parameters" : {
                            "translation0" : {
                              "type" : "double",
                              "defaultValue" : 602.0,
                              "interp" : "eioe"
                            },
                            "translation1" : {
                              "type" : "double",
                              "defaultValue" : -285.764705882474,
                              "interp" : "eioe"
                            },
                            "scale0" : {
                              "type" : "double",
                              "defaultValue" : 0.25,
                              "interp" : "eioe"
                            },
                            "scale1" : {
                              "type" : "double",
                              "defaultValue" : 0.25,
                              "interp" : "eioe"
                            }
                          },
                          "effects" : [

                          ],
                          "start" : 7906,
                          "duration" : 1588,
                          "mediaStart" : 199,
                          "mediaDuration" : 1588,
                          "scalar" : 1,
                          "animationTracks" : {

                          }
                        },
                    "audio" : 
                        {
                          "id" : 60,
                          "_type" : "AMFile",
                          "src" : 4,
                          "trackNumber" : 2,
                          "attributes" : {
                            "ident" : "",
                            "gain" : 1.0,
                            "mixToMono" : false
                          },
                            "channelNumber" : "0,1",
                          "effects" : [
                              {
                                "effectName" : "NoiseReduction",
                                "category" : "categoryAudioEffects",
                                "parameters" : {
                                  "denoiserAmount" : 20.0,
                                  "denoiserThreshold" : 0.0,
                                  "noiseProfile" : "fcFsQ6f95kH0411BCF+VQJQTkEEPMx5AJ4FcQMuJIkDHRjNA6dR6QT9qpkJYK2VDJAewRPlG1kSR\r\n971DdaagQgFghkG5GgtB4XflQBGodUCbOYJAebwaQlRi70Ig4O1CVDIQQBESqEEMscZAHh0RQFD5\r\n3UA+QFZCn8+WQPiB50B2EdpClBZqQvbuXkP4C6pCZy8HQUBG5z9ZM11AASATQUK+u0Dm3YxBxSzL\r\nQQy3BkM3zvJCuUIXQ4v0CUKGoJdBvkeYQPxNtUCHk5xA8Px4QJ+sr0CLKytBDOtZQW5hyEGWobNB\r\nlfapQul8rkGfAadAiilPQKF010C4P6U/qQZwQCUhs0FUrXFCbFNBQfV6tECaUFVBpsjrQAhWnkDc\r\nqj1Ao1ogP8qOTj8zR8I+jlmDQG8RW0BcqoY/CsozP/4cKkCQYctApDi1Pwkiyz6oiCA+OfPHPSWw\r\nnz6ofa8+pzGDPvbtVD4ChzI+d4+EPmzHCD81YTU/jwaIPr4J7z2OKqc9ZLchPto29j5OV4Q/+4fy\r\nP/sbvT/J6mg+pBa+PkSk8j1rjK494+aZPerEjT1G9I494DkjPszpkz68m4E920aWPkyRtD5eYhA/\r\nP5aKP4T3BD8etL8/UXj6PmGUej6w80s+3bnFPXyBGT/Ub7M+UNxePloMzz61GMw+8N2wPwrvhkB7\r\n3YRApwItQLE0P0Awu6Q/oySRPz4Orj5sIYs+1u4JPv0mUz015Dw9UF4nPZf+wz3i35M+5mkKPiSr\r\nDT6INQY+IoT/PThnBj2TBEI9L+6yPTfMsz0ktVo9Bv+sPjMSOz7KxR494v1cPSFf/TysfDU+dRCJ\r\nPar0vD2S/jE+HcCAPZFchT7Ulqo+pJDZPej3pT21enk9visFPYbGYz3C8gQ9vLyPPU613j14phc/\r\nMkS5PpsFoT7cvK89RKXnPGhS5j3K2s09OAQOPXZ3nTzCwag81yWdPTE/Ez2aWkk9In0+PbOhAD1m\r\n6rQ9S+U3Pp5mtD1W+Dk+PWcqPpWgAT4qohg+65sAPr5Ppj4ef0U/OXVNPsaCLz9/w8c+/73iPtFf\r\nwj8JlnY/+C/mPobc5D4mCNE+SCy6PsQnJz+e1Cc/5gkBPuvSrD5y0iM+cElkPZrDBD44NXw906gR\r\nPoCdsDwW19w9ogMdPuwVSj2cCMI9vocePuPePD2C5Mg8mB+hPVqhJz2kY988PCG9PCTNKz1cbFA8\r\n6PFWPJshqDw8rZs9kyUDPVIqjDzrEQc9CyXZPKctujzGwwE9RvefPA42gDyin+Q8cYERPWj5fz4U\r\nalU+3p1oPgzaFj5UZKs9fxqwPetpEj3oMsU8inLhPNx7lTwVgTY9vjLKPAyf7DxOnPM8wIJJPEJy\r\nKj00vaQ9aEaFPbYFvT2qyLQ9FC22PM1P6Txh5Ko8pcRBPU1v4jx6VBk91L73PFKA5zx9J9Y890Fc\r\nPeqxqT3H14M8nwCPPFQVkzyKT8Q8IOrSPEcngjz4md48X22rPPgXYTwRzXo8FOW1POoGsTyBQUc8\r\nQmGgPNQk1DzTwtI8CGLwPHF3eDyWZiQ8Y/46PKZ7Rzx3+Nk7h6lKPGWxED080P08HUSwPNApYjzA\r\nPFQ8kJ5tPEgn8Tvu+JQ8nFiHPKMRQT0TuyQ8FOjiPMbdCD2bXSY8OHx2PF+aljwEzIw8uw/kPNpO\r\n3DsCxpI84jGNPKU4QzwPo3U8JlysPH6KwjxsOrU8AXlEPNw1Ezxk4408DnFYPFzyDz3tma48su87\r\nPLgISTxCkl48beQuPHGRDj2ZW688YOApPLNqXDw+Fw89CGELPZbD5DxnJ8Q8AnrgPGfRQD3wM4c9\r\nOZWGPawpyzzCTpM9yw3dPCjikT0bQe89pkp+PTp6dz3bvY896n+GPdCx5z2xKyQ9sOYGPSFSejxy\r\n34c9LayJPZuwID1FND09fxGzPJklfzws8Uc9aEE1Pa1YlDykEO48Oo4APeiMij0+8V49VDbJPadF\r\nFD4oiVw/SFeGP3/RIz78qZc9TFUhPeMKIT0F4Zc9aHUQPQ1B9jyJKps8MFo6PYTHnTzaFZo83pcp\r\nPTeu8zyHmF88VhbNPG3A1TxuOnU8oi+EPCB0Rz0U7c87HgwePAxskjwmVFw8b2IdPKto+judzYk8\r\nMkyNPGIQGjyz2KI8lyMwPcp8yjwIVJ48IWx8PG4IATzEdc48zDJEPCbxhjziggs8yFdSPOwzIjx0\r\nIqk8ySjDO9sL0zs8UHw8NDCGPPMIbjyXwQw8jFMaPCbOYDyySko8PNFQPEj3kzz9gKE8pjUKPDEm\r\nNDxul9Q8jM4vPI1MJTxoW2k82W5iPOvlJTy6i7E8GV30PK31PTz6Do08pSGgPNMwZTzcnXE8vmwl\r\nPHyygzyfE2U8kkKzPIeKPDw12K48PlpTPGyT/jvKrcE8PE9LPNSdWTxh2Xk8+plfPNQ0Gjy29qs8\r\npsjNPCHWEzxIpK87nLGKPLA0Qzyi5GY8ocCuPMIVRDy2yCY8H9y6PI+3UDxJul08eXI1PQA+kjx6\r\na508A7JePHbkHDyJnoE84dwhPMr6nTxfHLg84tFzPIotejxy2gw9s0OhPGJk/T3UJ/88znehPENT\r\nyzxlRtI8+rRQPNaNBTyI3J88oRh5PO+I4DzAk1U9KAsiPJzvGzwsAWM8OiMwPGzEODzPIic8/AsZ\r\nPArxsDyAvKQ8l2j7PFqabTw+j6c8NbdOPDVkkTz2Uvs7L2TUOyl7fzzvuW484IIAPFQJTjwSoKk7\r\noFNyPLldizyAuXM8YvExPF0JmDxz4jI8F+wfPN9Fij02NC09IoCnPN73iTy1qmY8Ig8OPcvwLTxq\r\nuas8BiCcPMWx/DtC1+c7IZOaPNCXhTxf00A83JUZPMoOSDwaeUU893AbPBq9rDyTJTA8T5YJPLsF\r\nCjy4LwA9G8otPP8NzzwTv/c7oOqcO7zqXTw6v/A7ayVlPDRVijy0ezU8vAYRPMXI/DxGA5I85I9U\r\nPNzJNzxXTls8nEwJPJZIiDy65h48pisnPJp55zuTLSg8fSxDPFWBdTx5aR88nCNTPMw3izzMS0c8\r\n9nv+O3dirjxv5Ec8Zb8ZPLWqljymsXA8opOEPKwGiTz/RTw811NYPKfjATxWhLI7kDZMPKIoTjx2\r\nTSo8TmhAPGB5HjxbyR88L/w/PCPKIjwIBzY8i3wVPNe5VjwKgBI9gwlJPCOwqTzQkoM8ip8fPIfw\r\nDzxpzgE8y4aFPNY2Njz6qPM7KU0TPNHZRjzP7u474eYUPNxOUTzx5j08wjMKPN91BD1K6lM8DTkB\r\nPNdolzxFl4A8JGn3PGqD4js+VFo8Eny1O9g2ETwWojg8GpNRPACVcDzcD847PJ9nPHy2Qjz+QuI7\r\ncjcMPJtibjy3l807ml65POB6RDw+Els8bl6KPEeeZjw6l4c7XKdoPBEFFzxYoUA8TFKaO4ShOTze\r\nEBM85UdYPMu3LTzWZyc8adgCPCSqqDtaKwU8mRxXPNNdLzyWo7E7bdeQPJFTWTwENic8AULxO8ms\r\nNTyM4gU8OqgePKwEjTu6ua87qhghPD4xzjvR1BI8kvMsPNKq5zvQd0g8n/dxPF8LzDsbjJs8Melr\r\nPPp19ztQLbg7tRFhPKJkOzxWIoU8jEEvPAtxUjxC28k7QH8EPNK3CTy0asA7i+6ZO0zWlTuhQAI8\r\nR4FZPFfQ3zvMnos8puh2POyvLzxdkYs7pdkQPD9EHzzC0MA7bvHbOzDGJzxSsq07hb6MO9YGuTt6\r\n8XA7RrCZO1SVHjwZRrs76G+4O2r7xTvzuLE7Gsh5O1UO/DuIS8s7zzATPEeXpzvYQ8A7njSRO+t4\r\nVzx0DhA87NtaPJkh9Tv+EwQ8w+4XPIvEZjyOGhU8Sj7pO/HDSDx4R088hUmrPFI+Ijzvevg74C71\r\nO3k2Izxidg08+OJTPGjuXjxtXzU8SHWuO0KPOzxU4E08k7WtPPxaJTxDKDk8DyJBPFJQsjylto08\r\nRCeCPBOBrjyUEJY/ph1rPFcEpDxCtpc8LlmYPMP2SDyAQRY8GjlhPINzjzwI2Uc8/dCiPB4knTzZ\r\nI8g8dpoCPJNezzskNvs7vBFHPIuK/TtS2Ns7hu3CO+X7uTy3EU08psouPFJ8UDx4+/U70+j4O3+f\r\nPjxV2ec7ZtbvO7ZMCTwFtxo8XiqFPApfBjwzwA88XISzO/wr7zutltA8LadFPJT6NTye+sA70xCq\r\nOw+yxDvK9kQ82N9uO/o2VzwyC7E7AhaWOzqlezzKrpo7o3l4O8svDjwfptM7JhN2O6h/9jsK+DU8\r\nwVoePCRC/Ts8WqY78eSRPE6xvjsZjAQ8z6LTO08OgTxAxDw89MGpO1D98ztCZ5U7HLXjOzO2WjzP\r\n4OQ7aoiOPDgBtjsHcJs8ddM7PBNXNjyRkUM8bmU/PMhdzjtt8N87YPzKO6GNvTtx5i48FXsQPIL8\r\n5zuBwhc8V3zAO+p2Djy2xRo8MQkqPLI6CjxVFFw7V3sQPCEwtjyRKqg7mYrCPIQF5zuPnZk8UgIE\r\nPLZ1PDyWdkA8B8UOPG72yzt5qPY7SXg5PNgVzDt6I2I79/zLO5QJXTy6Ye47GRMfPMffJjzyUyA8\r\nrF4BPEKkujygxHA8OClbPKZKIzxnb5s72JYYPLa4Bjxba+Y7f81fPPYbzzsWwR88iNwPPLrUbTw/\r\nOAo85kC2PLXwRj3gINA8FqdVPBP6iTxBEzM86c6vPCxGbjyq1DA8NimsOz+csTutaB88bkjKO9ca\r\nfTwl2d87whsnPM92Rjw5dw48EtguPHEFtzuovng865azPJvt0jysYmo9R8eePAhPhzxGEQk8jU77\r\nO1iwjDsGow08u7syPIEQWjzCnWI80tTAOyTC3juI1yM8qLagO0MmMzzEpgc8OeVFPC9SBj3anU88\r\nXS84PCWrUDx5Tlc8kgJ0PAujLDx9Dh88Ve4iPJA05zsD/JU80saFO1pBHzwlpao8XvA2PFqIKTzY\r\nGIY7ZXETPDgUsDuOQAE83r9pPDapKjzs0g08xv20O7c5jjsSDAo88T+IOwR1AjyQTJs7EOisO8Aq\r\nBDy62Yw8chQmPBN6VTzYV4E82/iEPP20RTy5F/g7367HPH3fBjzhtNU78ZwvPDF0jjvOfQ88mt0R\r\nPOXjkTvpGfo7QlYJPGnn0DuxojA8oioOPIbsNDwRsSc85R41PJLyUjyEQhE8sdocPGaQHTyvccY7\r\nILB1PP72jjvjtt07/QcSPKdktztw6ys8vTmwO93QDjxFPY47aiKtO0PfEDwSx5k73ooVPMFt5TuI\r\ntPE7jG7TO6TO+DxrFKY7CQNAPPWOhzxy0tQ7tsI1PNHo4ztOPB08L3GjO6T/hDtug8A7b//UO44z\r\njjuKUmw7C0HQO+7ziDsubM07/hZcPCpmAjxCegQ8kkVTO4/nEDx8s9s7XjwbPP2v2jtclck7Bj8j\r\nPL3y7Dtg1Rw87+SOO+a/rzvm9P87SGG0O4zQSjzSc8w7D9CGO2p3lDsr1rI7dmxUO4ga9TuHwGxD\r\n4vfiQXTtZ0HRgqNAGu2UQURfF0DyblVAV/ggQLvsQEBLDHdBj6WmQlw+ZUPZR7BEtWrWRMAlvkMa\r\nuqBCfnCGQVRRCUHmUedAkBZ8QPV2hkDncBpCttHuQrL47UJslQpA6kOmQX2ux0AjxBNAbEHfQI0s\r\nVkLsgZZA2ajnQKbI2UIQI2pCjfJeQ5AQqkLBdQlBFsLkPw8ZZkBvmBNB9Hu9QGrDi0FlD8tBT7MG\r\nQ2GE80KqRRdDBwoKQvixmEHIIJVA4rm1QFdpnUBcOIBAiguwQM1SK0Fuw1lBqvXHQQxLs0Gi6KlC\r\nOIquQaUtp0DNVE9AmzTbQK6tpT/oWnRAh1+zQZFWckJYPUFBpQK1QMUwVUGtqetA6KmeQCRwPkDu\r\nkCA/jaRPP+OpxD43RIZA+tZZQGiziz/aOTY/fTMqQNoEzkBGhLo/7tD0PnId3z3SxLA9lpWNPuOZ\r\nrD6aLaY+2nZbPvhoSj4SC4o+Kg8QP1BYNT8SKZg+vOflPdOr3z1M4w4+ePYHP7WpdD/UCvk/srnQ\r\nP04LWD5AztU+C4cBPhbspD3M54I9/raNPYGrpT23yAI+LNqEPhyCgz2JHYo+XMrPPsX1Gz94fYY/\r\neS0EPwJ1tz8ET/M+DgySPvY7RT7+1to9erkgP9b+qz7CPXk+oCrTPu3H0D7tJbk/X+qMQMbrh0Dy\r\ngCdATulEQP1ioD9HcpA/P4KyPm7Fkz4LFBo+gfFGPTD2OD2d2089MKb3Pb4dpD45uh8+XNEfPmZp\r\nIj51B/k9JpHzPKoEiD1nlp89rXXEPWcCfz3h96c+08ArPg6qPj2ifkw9nJP/PMyjRz5MIXQ9vG6g\r\nPbQ0Fz7q+2U9+oGCPoOhrz4BO8w94QihPbJrWz3fMU89DdJVPbQlJj3RQ5k9YqblPU4THz9gfcc+\r\n0weaPhiLzD214gM9kqz0Pb80wT3O2Cg9odS+PLGQ5zzlO8E9mAYvPSeLjD3q/UQ9owAhPRLI7T11\r\nax4+8ha1PbmKOT7qGjE+R6z+PcGmGT7rrBA+EbalPmpDST+p52k+hGY2P+qU0T57Dd4+fSzDP0Yg\r\neT+1EN4+YJHRPl+YuT4cWrc+vMAiP1zKLj9FhAg+sCCXPihVKD5sL3c96BgdPmeHlz3EHhY+wDTh\r\nPN+OBz6yfA4++OVXPX7w0z0AKzU+h9NOPSJR1TzQMIA9fC4aPW8owjys1kE8xYwpPSCLTDywElc8\r\n8G7lPCcygD15pBg97DKyPOiaGT38H8w8veAWPTRokTwKmOo81NK1PNL2Pj1kfx09letWPiGiWT5i\r\n7UY+PcL2PQu2gj1JdbE9CQrVPL8UHj0J+ME8IoqxPM+qRz0yIL08lGPwPHJFAT0DB808Y7lRPRzj\r\niz1WMIw9hknEPU6loD1qX548iB4bPQtgGz3EF5s9bpMDPUz4LT1hGB09X2WlPP6owTxGaUM934Wr\r\nPQJ+gDxrMYk8XsehPFPt8jyKvqI8EZQ6PBDx8TxsQM08ftpZPGB+CDx8kqc8Gp2/PH6qhjy8GU08\r\neLMZPYKjvzzqWrI8L42LPN9bjjzuHVY8mGavPNnRIjyfW4E8PcDiPE0W4zzf1ao85pmvPGMPGzxG\r\n4YU8fjD9O1vorDwFMpY8MhZUPVqIgTzZQ748ZZYIPSwQXzzPV7Q86AuAPCqsnzz7y6k81XcZPLjp\r\nKzywpbQ8CgtGPCQZaDySsUg83kWdPPuxiDybwy082+8HPFzwgTy/oKY8n9DrPKZ2bTxBzjw89Vch\r\nPNs8bTznQYc8KpTmPNJhkTzTXCk8tquNPAi53jzkzQQ9u1INPak7+DwG28I8pqQdPbYgQT2cJlc9\r\nNqrGPJDTrT1L2/Q8xsyrPZyS6z29q5I9sDBpPV2/mT1bx6s9cKbGPYzhFj3GJg49PmirPGfPhz1Q\r\nYWc9oQUePX67Kz0ijMg895iQPN7CLz2yTXI9NjR2PMOMET3A7wE9dTJxPZu1gj12Zdk9to8hPrb6\r\nXT+q94o/ptEJPtr+qz2ITzI9QvQZPRuFgT26Stk87KMwPcOI8zzktQk9POarPNSxwTxEPBM90fTr\r\nPDEvlTzytck8KqKTPK/1szw0g3k8BEobPd9HAzyljRQ8faVoPOVORDwIReU7ZskoPNhQXTzbPbQ8\r\ncyeLPLz5Gj2XZ1Q9SnwDPWA/jDxbbII8Ew0FPC0snTxEmTw828tpPMAjSDxOZE88mCQnPLeBqjxU\r\nMhc8pjaiO3TDrDwcTbY8szspPNLRAjz26TI8PhGEPK3OYjyCVVU82ZG0PM/SozxTEwI8PA48PLgt\r\n1Dw3uSo8onX2O0foEjxgbIU8XQz3O+1e/TzdWhg9cAdePJJpsDx9bJk8I11gPJXYejwPIAc8yFMr\r\nPA3GSDx8JLA8jOhpPEfoyzx6Q488rkDjO80FkTzVb7U8Yd4JPE5gkjxA90c8PDsUPEqA2jzDaX48\r\ngsXvO+Ah/TuyRqM8noU9PKIGcjwahm883XgePPdIGDzdL6Y8GkbWPEbuLjzRDQU9CgGrPPZpxjxg\r\nmKM8vKRMPNim9zu1MV88iXNnPDJzmTypkGE87AqAPEagKz2N2YE8q5H6PeSiSz2IiKM8DtzaPHLB\r\nqTxbHSk8iONTPJ2XsjwFxBA89pndPN2MOz32oKw8g26BPMjFhzwfYHo8zCwpPNrhnjyDLhM8WZQR\r\nPZLPuTz/EOE8cKg6PGkNYzy4BDU8fspbPAs8JjxbcDQ8FrWHPDBuYzxsovY7Crg7PO5vgDzK+FA8\r\nmFmlPM2AHDycWzw8wQNqPH9t3jtllAc84RiWPXgQED1sxZk8RISLPJz3YDxPrCM9OJLqPNjsyjwZ\r\niGc8NB14PIAwMTwOMVs8AAOBPFIDJDz5rkc8rq4tPCiTHTwqdkc8M81sPBBqeDy0rQQ8zJsBPCLW\r\n1DxG/ZI82FeTPA9j8DuVrKc7DqxoPCKU2DulRJU8SPeIPAxxUDwDIlA8jBvvPLilpzwAR5g8HugR\r\nPJaqNTz3L3Q84kiNPGVvMzwpdQ08d+nrO3CnETyz6xc8ZrbCPMwaLDwCNGo8ZMF1PPsfxDuOT8I7\r\nw5f2PKqqljxYhB48sNqUPKmDtzysMug8xq6MPJa7hTz0rnk80rqQO2VqsjvG+zE8KF8dPEd2FTyU\r\n8t87Avs7PHf6Ozx8qAU8jaZEPNSqRjzzmf87x+s6PAoSAj0XUFM8K96DPNUFoDytKoA8IGMAPFZs\r\nQTy0eJk8dVr4Oz473Dts3Kw7o19KPFybIDx4Fc07hfJGPPTUrjvpu9M7lc/iPCIomDwQEuE7cLAT\r\nPEMXajxq39U8gbLKO1KziTy9YBE8zofNO+ZlJjw43vY7n/0kPBC/DTyd81Q8LXtBPMabADwIGfI7\r\nkZMiPBjzCDwnZ5s8HvMKPPPzczxNT9E8+WdVPBADoDtgh5g8YyhjPLSQKDzCy5w7QEbQO5QCiDzU\r\nZiU8ko8LPNqVDTxvA9M7K2zWO8waljtvOCQ8lawnPJQUCDwhbHc8eBkbPN0U6DstCbs7Wx6RPHki\r\nwztlwqo7oqeeO/Xi7ju3My88yrfuO96xITzDoQc8XooFPH74tzv9OUk8Irn/O1+WNjx4FcU858gT\r\nPFK5Rzz020s8v2cnPF/bYTxzBwc8HfawPMVmVjw5e747C+ZrPAgIzjuP1Bs8xfn/OyQVhjvey6o7\r\nbiPTO5LTOTxmL2M8tpwJPFyrCjxUc347R4/gOzSb6Duuq+I7vYwuPEJwHjw1Fdk7xChLPGScrTuO\r\nFg48mFIVPPriEDzHFy48QJ3OO3UFJzzIKpk75U8PPMPmPTyPCgE8H9ANPF+g1TuSY7o72LMxPNza\r\nFjygWS48XJs4PGyfAzxssoM8LTezPHjMDTy+jL87KsInPAxQFDxF9Qs8MbsUPHyrEDy4aPM7NrRi\r\nPDCcZzxhsBU8W3oqPD5SrDtwAUk8NQcoPPW+UTxJQRg9pQFtPJNpyjug65w8YiWoPO8Evzx4wW48\r\nT0iIPD9BlD8cEEc845LBPFY1TDy1rBs8wY6DPDaRTzzveJA84xPmPPhBOzzTKKA8Ly1/PHw3Ejwy\r\nvBs89F0CPPpHATwmhjE89P/OOydR8jsAZxY8Mng1PLS2MTz+p/U7cuS+OzDqLDxQwwE8lLRhPHOG\r\nljuIGAo8Lc7FO7/E3TtkrDU8ZwR5POCtZzwqXLY7BNzWO+6JMz3OwRQ8pIpnPPb2tjtA2wY8mnHk\r\nO7vNHzzXNL87jbUPPMLfBjzMjjU8rjuBPEqQwjtuSqc7GhHkO/6UvjsWZ7U7VfesO8cwMTyEc8k7\r\n67MZPByhCzx45wQ8JBb5O1m61Du+BJE7vD+CPNOJqDyr2fY7yKUKPK9lUTuM9no8I34GPOY/ETw+\r\nzAI8LGAaPGtSeDyj47A8BBiDPAYvmTzuHwg8je7uO2GJBDxi+g48jCo4PKJZzDsJp7Q7UKHJO/7c\r\nDDzq+sI79p83PI31LTzzXjE8BrKHO7R9+zve+w08cOP1PKXs4DvJE2A86KP0O942ljxRrwg8tiGA\r\nPCIJRzzHYdk7zKDqO1EEyztOeto79omuO7SFmjumUv47XstGPBWX7Ds/axY8LvP+OxgDXTyAlOo7\r\nvCDaPETIUTy9zqE7DqY1PEvhCjyHwwc8OHsqPPuZDTwTtQY8/fVqOyQm9jsXVFQ8THUDPIioQjwE\r\nwoY8lHWIPQL59TzenUY867fTPDXuKzzTzTU81FYvPBTy2DvSM907JiGwO37AbTypabM7N9VqPNXE\r\nBDy+oFI8ND5SPEDwJzzqGBY8y3T7O57kPTyPJpg8zcwBPSF/mj1HlM88HhC9PBdkHzwbez882L3d\r\nO04zKDzRsqY7f0EhPLKISjxzJDE8ShUHPPPX5zvsRsU7w6IdPB0EMTwzhMs7kLG7PKaKdzzdADI8\r\nxgg2PDRBsDsqfVI8Ig4LPCCbKTy0RqU7rBw8PADRsjy34xg8aB6HPAU6mTyQNu47mDQxPJY7gzs4\r\nSMU72qVtPMF2Ajyo5Kc8ES7tO7vhETyNZ9s7BCf2O3dNITzwNJg7NyazOyGMqjuDuF48YkivO8gE\r\nITyeB2M8otFDPIgk2jsLrC484asLPBpm5DtC4Zk8osbWO7BzxjvgEDw8WDhyO/Bb5Du82iA8eqfR\r\nO7THHTx80y48hHy3O1OcUDwxx3o8E9wVPMKmhzxnjxA8LrxUPM/7BzwsNlY88pCHPEMG6juhkfc7\r\nlcjNO4d51Du4Ndw7v1cWPM1nEzx+cv87oMnSO6MlwTtrW1c7pS1GPBcCjzt6Ddc7hObXO3y5ozsX\r\nrg48TNWZPPzorTsHkk08iuEIPFPCvjt6TDs8PED6O4rnZzzXvN47Y9DeO3FfIDzMiSI8h+fyO2hg\r\n5TvEE8A76LjiO635HzxYF108ftKcOwND+jsaT6072qvCO5uazzvOVTE8mitJPFMNzzsAtQI8rdkk\r\nPNddHjzRVjk88n+rO0Y6tDv/8go8mH4HPOAGcDsateI7foSyO6SAiTvo5487kIp5Ow==",
                                  "noiseTrainingType" : "default"
                                },
                                "metadata" : {
                                  "effectIndex" : "0"
                                }
                              }
                          ],
                          "start" : 7906,
                          "duration" : 1588,
                          "mediaStart" : 199,
                          "mediaDuration" : 1588,
                          "scalar" : 1,
                          "animationTracks" : {

                          }
                        }
,
                    "start" : 7906,
                    "duration" : 1588,
                    "mediaStart" : 0,
                    "mediaDuration" : 1846,
                    "scalar" : 1,
                    "metadata" : {
                      "clipSpeedAttribute" : false,
                      "default-translation1" : -324.0
                    }
                  },
                  {
                    "id" : 61,
                    "_type" : "IMFile",
                    "src" : 14,
                    "trackNumber" : 0,
                    "trimStartSum" : 0,
                    "attributes" : {
                      "ident" : "5"
                    },
                    "parameters" : {
                      "translation0" : 1.3369572116062e-10,
                      "translation1" : -6.05382410867605e-12,
                      "scale0" : 0.898585848813294,
                      "scale1" : 0.898585848813294
                    },
                    "effects" : [

                    ],
                    "start" : 9494,
                    "duration" : 98,
                    "mediaStart" : 0,
                    "mediaDuration" : 1,
                    "scalar" : 1,
                    "metadata" : {
                      "clipSpeedAttribute" : false,
                      "default-scale0" : 0.673684210526316,
                      "default-scale1" : 0.673684210526316,
                      "default-translation0" : 0.0,
                      "default-translation1" : 0.0
                    },
                    "animationTracks" : {

                    }
                  },
                  {
                    "id" : 62,
                    "_type" : "UnifiedMedia",
                    "video" : 
                        {
                          "id" : 63,
                          "_type" : "VMFile",
                          "src" : 5,
                          "trackNumber" : 1,
                          "attributes" : {
                            "ident" : "Rec 12-22-19_004"
                          },
                          "parameters" : {
                            "translation0" : {
                              "type" : "double",
                              "defaultValue" : 602.0,
                              "interp" : "eioe"
                            },
                            "translation1" : {
                              "type" : "double",
                              "defaultValue" : -324.0,
                              "interp" : "eioe"
                            },
                            "scale0" : {
                              "type" : "double",
                              "defaultValue" : 0.25,
                              "interp" : "eioe"
                            },
                            "scale1" : {
                              "type" : "double",
                              "defaultValue" : 0.25,
                              "interp" : "eioe"
                            }
                          },
                          "effects" : [

                          ],
                          "start" : 9592,
                          "duration" : 1230,
                          "mediaStart" : 144,
                          "mediaDuration" : 1230,
                          "scalar" : 1,
                          "animationTracks" : {

                          }
                        },
                    "audio" : 
                        {
                          "id" : 64,
                          "_type" : "AMFile",
                          "src" : 5,
                          "trackNumber" : 2,
                          "attributes" : {
                            "ident" : "",
                            "gain" : 1.0,
                            "mixToMono" : false
                          },
                            "channelNumber" : "0,1",
                          "effects" : [
                              {
                                "effectName" : "NoiseReduction",
                                "category" : "categoryAudioEffects",
                                "parameters" : {
                                  "denoiserAmount" : 20.0,
                                  "denoiserThreshold" : 0.0,
                                  "noiseProfile" : "vPGZQ+wJaULGWTFBSUGfQM0TdEE3GFZAYEB9QKCUfT9766s/vs0EP4xekj9+BUg/e5UeP37NKz98\r\nF+o+XlGNPuSUqT5AGFI+V2BJPpMqcD4gzBg+wykXPnOMHj45YfE90KmtPckzsD34WL49X/3hPTOQ\r\n2D3vuYc9JncFPltdtD2+L7g9daScPVzrjz3Ba0c+sJkfPlhiwj1qSrg9IojNPa8/kT3/3jk+DoX/\r\nPmbZxD6kTak+EmEOPiy/tz2gjUc+sXbgPe082z0PQZg9PpKnPRKmSD4SW4c9g3g2PbFxcD2NCeg9\r\n80aAPXj2cz1Iadw9Ni3WPQzsTj2f8aA9IDNMPmCGlT3TBSQ9BzyzPdo5HT04IoE9ZkUHPZ+jdj2N\r\nvS09A7EJPZZn9DzCLbA9rws9PXtNXT2rUAg9Cr1qPaylFT31uRM9MqeFPdeOTT323UI9Vi8bPuhx\r\nKT3KngQ9h+ATPZwRhT05KpQ9a/A7PVEmGz0AgcE9nySTPD0MWz2E6YA80TINPcZJOT0XvjI9HFG1\r\nPAW9uzzetc48gNe/PApXhjwAOJU8tSq2PDUl6zxJJIQ8sF2TPK82GT0iP9M8hWShPJWPCz2wXpo8\r\nW5jhPOnGNDwqBoM8XqYGPUNgcDy8C6s8Kg66PP1I2Dw0P9Y801AKPWfmkTx3dwY9ILyIPMJNoDyq\r\ngQk9yQ0ePa3cET1on+486DdxPNQQ5TyNLrc87UCkPPG6qTx4isc8CDzsPALW1jwus6s8DudVPIwQ\r\nlzz7pFI8c3WhPJuRxTzAb1U9ITvLPAHgZjwMGUc96Cy4PJu0hzy0ddQ8Hi9uPJ2efTymmIg8q6pB\r\nPN8quTzAMOw8sx6bPG7Pdjw8KY88NLLTPOIMXT0iTFo8q0a2PDQn/zstqnM8Y0cQPBwE7TzwcYE8\r\naD5mPFCLQjyMpQA8dFBOPNW5XDzB9J888t3cPIJ7cDxYBBw8qdZGPDdayjykgtQ8rvWAPLobhjzH\r\neHc8i+R3PApJoDtQGs48zq2VPDOORTw/YWo8HWkpPJvVQjyCrs88LkCrPDKmMzwMQLQ82PdfPO5M\r\nvzwqV4g8NhrEPG+IeTyTkkQ8L5N9PHASiTyILGs8do0/PIfxRTz63Gw8WbAXPH/+Bzx/hQ088m4x\r\nPJ8VnzwusRY8d9I0PNVnRTxl7U88tFc3PMtdiTyZ61s8RR1GPCwJhjwHVxU8ZskyPHlWbzwN2y48\r\njpo+PM49KzyMsh88jlCHPINKcTxYZ0s8JJjrOzBQHjzYKxU86JhWPKdabjzziic8tGQOPCjPJjwh\r\nj8w82DcfPFTomTxwr5Q8+DWCPOBBSDwX3yA8irdmPNXCvDtBNcM8D844POpeeTw26VI8IWYPPGve\r\nrDz4eBA8Sjx0PMhoKTzgKpE86pnJPI1XPjyLLiU8UL89PBqgbjzvOqE8jmnBPJnoRjyR/zk8qEdx\r\nPLCGCDzt3iw8+lhgPAuHCjzNPPU7cVw6PHQb+zuyGQQ89X7vPGf4ljy/qS48boEUPJnf0DsQigk8\r\nalFxPBwFTDxY3G88QhK4PIS1Czx64RQ88y3LO8HfiDyBmEg84ioLPG81Ejx3Iko8Xr9BPHaCpzwI\r\nm6o82rZ9PJxXPzybQDY8ZsDTO1x5wDsmUyU8wFWgO+gABzwS7Gw87iYYPGRXgDygNuM7gcAbPPWi\r\n9zusvzw8E8SHPGWBSzxqDi885hFFPEMTjzwLtds7zETRO0JGUzyy+PA7D2McPIkhNjzgjTA8gpNW\r\nPD9nLjy6sw48epUcPLDxhDxpxpA8A9+nOxahlzwcfW08q8OIPFIEzDu6X847VPgDPJXa+jvJHoY8\r\nN6gbPL1NMDyAVZ08GRY5PHMtNDzPuC480DYkPNrJkjy/GjY8wzAUPI4fCTza7xY8ocFlPFLjgDws\r\nTHs8L53cO+Si0TuqdrM8b8lnPG9CDjz/FyA93PJVPU+MgzywlW48bwodPVbz9jzyyx89hgtsPWjN\r\n1T29iUI/ypFpPyLy8D29NZ89U1UKPXxOPD3q0hc9EkgUPdQ1+TyzoaI88aeLPDbwCzxBh6w8/6WM\r\nPKzD0zwuFk084WhUPKh13zv9oaQ8IpCRPIcs0jt/hu87rRRDPALYAzwEioQ7RHwrPFFlfzwMkvE7\r\nQPI4PIT7NTxPqew7EkcWPAh0PDzV+SU8wJMVPKLbfDzl9WM80ofbO72+LzxN/RQ87zcKPIXMFDyg\r\nZSA89mE0PLAKITwmfIM8RqFTPIOqmDwwhag7QskjPMumHzwayEY8Y2kMPACHczxpcJA8BYkMPHq3\r\nkTwHuFw8xISlO1RE2DuEiKw7Lt4iPDUtzTsq9w8885oxPO8zLTyGMXw8Cg4cPOXtYDzGUfs7zPcC\r\nPLau+zv6cD08P2wcPHdYQDzrpCM82jrpO4fMCzyIdsc7OpDqO0IagzwsNJI8EMHwO15wGjyqFl88\r\nFffzO6QGNDw/yEU8H1mdO33IdDz5dB08R9KpO7yI1DuGemQ8FeOgPLcoGTzTnKc7LoS5O8Ccvzu+\r\njpw8DCNAPIxqGTy2E7Q7gZSWPEYSiDs8Gc47vq0hPCRAoztYDF08/bj9O3HSADwEYVE8OUOZPBpb\r\nYzzc62k7uLcDPDJFNjzD2R88JKU3PJTxSTyZums7JVyIO4En8TttNIY8eyvnO7lWMTyu9gw803m5\r\nPDRzqDy9tKs8prLuPB3rizwvt6I785n3OxFcATx0cQk8dluYOyEOUTzRRPI7JtiuO0C9DzxNfAA8\r\ngJbxO2E4JjyeMzw8E+jsO1k0Zjzz3Go8zLACPKTRXj1tzoU8DPdCPOdTyDzdk747JQ1kPP7HMjyg\r\nobQ7UIgLPBsNNDyAtHc8ABACPKO6HDzrq4g8NFNQPHYCWzxFlkw8UGJoPOc2gTxgx/U7pLKnO8lV\r\nADybcys8q5YBPGSZizxWWi48L4EBPG5nTzxl9Yw8GIcDPL9l7TtYfo47BFIvPKK+4TvAjf07wxlf\r\nPJF0gTxGmTA8kU9hPJY8ADyhxZ48bh8APER2lDsU0io8MZouPD+dlTukkcE7pBl4PL1fwjuXBws8\r\nDZ0lPAjsTTyi1as76WKTOypVCDyGlFM8X8lIPMzFKTya65U8FfvCO+j+2Ds+9x88H4TjO6l77jvE\r\n4P47RGPJO3PI4TseYwo8mHtOPPKo5zs76vI7Ijl/PPiFnDwIlAY9MHq/PH84hjx4/T489f82POn/\r\n1jtvRVM8PBR6PLeSNDzQOfw7Mp8VPGhBRzz2a9U7V8KWPP+rLDzW0+I7LEKBPOK3SzzqtdY7TCNC\r\nPBFhYTymUj08zwy4PB9nYjxxAB48t/QrPOhrXTwwmUI8QkLdO3Z7XTzmUP075T8wPMjNkzw01rE7\r\nt4f+OwQFUjw8uUA8l56PPI4KTTxii188B+PlO1q7FzxwDKc71noiPHzsIDwGmwE8tDIGPPOQ9DuH\r\nHzQ8XPWdO8zFdDwZcVA8+tQhPHFAGDwAyQE83xj2O9AJlTyy2ys8EL1vPNzu8ju019078c0TPMgf\r\nfTtPAFE7VjzfO+Ndrzun4+87zDYcPLHH5zuRZ9A7F0tLPHT78Tv4Sag7gXXfO5wJHjxRnx48q5vQ\r\nOzwIlzyiEcU783mzOzyLJTxlYk88B2G+O2qeGjzqfrM8tdd9PJrMJDx/YSI8CDtVPHhxQzz0b4A8\r\nNwNyPHuTKzw7GzE8OB2iPE73OzyxsBA8YEMFPD6jpzs+cPI7jgZJPA3/iTt8paI7LBAGPEngnjwa\r\nGY079xPgOy9uJTxgp3A7ehwdPA5YiDvNJUw8cu7yO7MSOzxC92k8LnUDPPg0BTwZtRg80eEEPN2p\r\npTssn7k7jAm6PFd45DtwjbA74FRLPL29ZzxxGeU7N79KPA4toztiXw08wVefOxTCCzwQuRw8jX4R\r\nPGgAAzxjTQU8fjb6Oxvdqjum5gg8ohWNPHqsWjxsRXw8FFdEPL56tDwjOdA70A9TPPFLyTzgdJM8\r\nLgzzO+H9hzwY934/qjp2PLLqTDyIJpI8kr/ZPD5n7jvBDZE8s0d9PItMVzwHNDc8n4tWPGomQTzU\r\nAgM8A8O9Oxq6Fjw4+Q88OpeNPKa7PDxerXk8t+yWPGXQzjuk56E75h7NO+HNtzunAME7kOMVPFFY\r\nwTtTEOs7rGU+PK2YEjyaigE8xhBtO2moDDw4LAk8NKe/O4jvcTziCOg8nD8XPHW8YDxlIPM7m04G\r\nPJJk8Dv3jqU7cpkEPIT/Ljyb7CE8JekUPIbfyjxRaw482Kp6O4G2ADzqQQQ8rjCLO0SSkDt2rWI8\r\naHz4OxaJTjwTjSs89hUxPLQj9Tsw7Rw8HoxyPFEGHDx2KWg8fDm0O0WyGTzASTQ8sIPyO7wlgjxE\r\nyW88yGncO8XjOTzTUkM8tCiXPMoVgTy3yNc7c5v7Oy7mhzsOP9Q7aB/zO41LEDy+DCM89LcCPCmO\r\nAjxiBNE7XRrQO/SZRDxGEA88KAX2Oz3nzztiRMk7NlRdO6XobDxjTB08PNF6PDJgfDx4ROU7EB+U\r\nO9+BrjsaoHk7t4dFPB5jnzsQImc8gnApPEO1hzxzATg8DkR2PJGhMTxP0gM87HM6PCi8wjuS2ng8\r\nQBmwPPJLnzzyD3A8hX/vO5pMOjx0JNI7N6oEPJe04juO8Rs8TngBPJUnDzxufIA79EfHO9LVGDx6\r\nBBY85iI+PCIagj3SPcU8jg0/PHO2CDzkMoc8Pvx4PEl1MjwGphU8XassPFpR3zv8Ugs8+pAAPCi5\r\n7DvcX+M7WWeSO3n/AzzXgyE8Cd3WOw5FGzy4li48EtZePB5YFj2AJDk98RqDPCEncjxwzoI8d4YB\r\nPGZXDDzz5BM8+NoyOwTSzTtQAwE8xLC/O51WoDysKWA8eskNPBhqFDxvKyw8i4CDPBk5lDwBjdQ7\r\nWRPKO4ojKTwN5q078vfmOww1tzvWm1Q8l18jPA/xcDv44HY8AF0IPAO4HTx14tc70gGbO+IYsDtr\r\n3Jg8iD/wO/6W5DvoiBU8NiOOPO5h2ju0+cM7dIQfPPnfrDsk2Uo8Re/MO8DF5jsimrs7+thzPMpE\r\nHzymvVc8tBZiPGZsBzx9RCY8922BPCdIRjx4V5s74DicPPQJ3DtX2wI8JGfcO7gmqTt4OAU83Gay\r\nO2bUKzzKjbY74pzqO/u1ATxrzZ87xPzVO3oOITwNAOg7X5eJPKVmfzxEy0A8TwdmPDfgCjwSBh88\r\nYWsnPCSo6zu1JAA81giWO2lKrDtpgvg77K7rOwbODDxQEDQ7J4nMO9JYGDy0wyM8zNLROySiuzvi\r\ne7s7A+eJPECzUjxmDRc8/pNbPFuN5DvNaeI7dMknPBuV1Tvi1dQ7t9coPAkezDscL8I7BPyDOz49\r\n7TsI3Oc7eGLFO6zjzTs5kew7HEcXPP+FVTzxNu47aoTmO84QVzw5vM07OZ2cO+1sHTyWrzQ8MTvN\r\nOx+/KTs7zm47QGM2O7TStDu8Src75FFEPCdihDsNtWI7nNcHPI+UzzsG3S07ZO/DO8Q7ajwpIZhD\r\nAC5cQgZYKUFUOKRANlR1QTzCb0AKHoJAgoacP+H0vD+F9QU/8OOQP4gjVz/2xSE/aUgxP7edzj6U\r\nHKg+nsmmPm3IMD4U9nw+iNQ8PuScEz4S8Bc+BukRPvqkpz1B5so9PgQcPmnV0T0qk+o9tz0IPvg1\r\ndT3PVPg9zE4HPpxkvz1CPok9NliYPbd0Qz4GWy4++fgCPoGYsz3wXMM94NGZPZw5VD6nlwY/AOva\r\nPlJ+nj56aR0+gtvIPds9Kj6f+dU9BYIHPplcqj0/5MQ9KNV/PgnSlD1trms9jG5SPQ2w6D2a4VE9\r\nRApYPcMzjD1IGrc9q2KlPTzJrT3phlo+P6pcPWNXaD2fSqE9NCQ/PVX7kT1yEis9iPhOPc22Ej14\r\n2xg9bjr5PIWMmD16in095t90Pd/ExTyv9XE9nTMkPVYqUD1fgY09+S0zParFbD25iPI9Fp12PXUw\r\nVD34ghU9BamJPX5MrD15lUE9dhALPaSXrj1eWuQ8C4JyPZBXojwA/A09OuwuPVbFcT2XgKk847jv\r\nPAdSxjzNmqA8vNguPCEpsjxDF4E8EYEOPS7NmTzb9J88koogPfoNlTwimpc8EgMEPXI5ozwvucI8\r\n4QWTPPpSfDzUwt88pJd8PDrhczyytlk8Y3ouPay88zzukTo9GAbXPNKmDT1aq488dAidPMUk5zyV\r\nAic9L9kzPUvx+zzcuKs8HlWNPID5/TyKqsw82OvDPFJmkTzUrb88+5jAPORFZDxJZog8VfSFPOw1\r\nUjw/eqg8xCB3PMb4Kz0RRtc8FASVPIoIJz1N95A8GjSjPIym8jy43bY8sgXLPKzsyDyum4885EKP\r\nPFbVojwWFJw8cwt3PM7oNTwm7dQ8blgQPd1igzzcYs88ik1uPLQUmjwtPV48egMgPaBBQjxGlr88\r\nT2A/PNt6gTy2HB08QBSEPBVz2jwppck87M2zPDx37jtG4Gw80mzsPL7NqTx8HUo8Ta9kPBw+bjxF\r\nPLI8QfABPGqYwDzpPFo8p0JzPO8iKDyOkEs8tuctPGQwvDxi/KA8iXhsPH8MfTwigIs8CwLBPCtp\r\nQjxSP5w8fFg9PMI1CjzUSYI8dEC2PDJPQDxIQ1E8eY8VPFlFPjw4Qwk8ykS3O0Z6BTzo4KQ8XkPK\r\nPIAIAjx55S08yhgNPPRuXDx/KwA8V9J+POyaijwOUU08uuOoPOKYxTv70zA810atPFuVPzxlj+o7\r\nZ4W5O1PdgzycS6U8NkJHPCCgNTxruCg8U1ncOwPHIzwm2xM8UtqDPDeXcjzhAAE8p/BdPEtbmDzM\r\nIxY8Qp7yPGBKtjywu2A8sG9FPBaMJTykfnc8dCsLPIjPzjyL9Ac8uSRePAwADjySglQ8dPaFPOCg\r\nPzwP0Dw84UWEPDO05Tyenas8VrtEPJJydTzLHSE8orrvO8oXjTwOmsw82pB2PHpY7Tu0hEc8RAFj\r\nPB6kQTwHk3Q8GzkAPKYlMjyqJBw877MRPHofAzyncxg9VlVkPK5YJTxevRI8/OsrPJAqCzzaIh88\r\nBsYoPI/2hTyZPY08EAv9O1cgOjzxDA08sxCKPF/FUDw5eMQ7RLwOPKtfTjx9HHk8HWZJPDmuJDzK\r\nuFY8y/CXPN33WTw//G08ZyWGO9bVAzyelMU7f+oHPLbrZTyYElc8d/w2PJMigTtqJnw8NnXiO8xA\r\nOTzw9Y08sRUjPEp1qjs+KIg8slG3PIaaMDwVggI8DFYcPHeOATx2lOQ7vh+oO6JFFDyifS08H65v\r\nPGS71jsNAOo7NMKFPNrVODy298Y7XtWAPEhLpzw45z08Nd4lPG37vTvAO088In7QO/QUYjx7TAM8\r\nRrLtO4Y0lTzPwJ48ASspPPwgTjwzK1c8G9ZTPP60Bjz/d+s7PAAsPLxMkjz3a8E8ekmZPJxJuDyo\r\n5Co8BCUyPMfNpzwhz4Y85+X1O+qnIz2EmWc9zjaTPB1tgTzjHy09TvgAPcQDAT3J+YE9LA76PQKs\r\nVz8Rb3Y/KaoYPjbkXz27jRk94REePardGz2sABk9siekPNQYojx+/pY80UUxPEhJijz5aYU81BXD\r\nPBSCmjzLAMk8nnEfPDJFxjwMpaY83S4GPPn+FDzp3w08h7zRO/KLBjzHsws88nqJPG7vZDyVrRQ8\r\nbvXvO63BvDtdIyU8saU+PMLNJjyvw4I885FIPCLsHzz6iFQ8f2gRPNSfITyAFzA8U/cwPPiuGzwB\r\nQmU8hd5fPJfQrDweGDo83OrHPLHz6Duaqd070iJuPCIKjDwMYx88l4CgPPNjhzyxLEI8UP4fPNjG\r\nbzxDgtc7rmG+O3PgjzvEJTQ8pTmsO7emITxE1Sc8qWYVPG60Qjw+DQU8hiJ4PDYXMTz2Mv47OPsZ\r\nPFxVaTziaAg8vsZWPDTDPDyNNKg76glPPExuyDtMw0I8AWMEPNPWNTwIZyE8etwtPKbKRDy+/bY7\r\njKUePEN6FDw5RZA7bW9EPFkPMjwJeho85TjQO80tXzz6hYY8FhsxPDiBDTyeb+47nVHxOwkMUzwh\r\nfnA8tnPHO1JjEzyezKc8ohnOO2MYCDzomSQ8IPubO9JcVzwi0Cs8fkAaPE6WSzwiuV88D9OhPLzO\r\nkzt1JBg8JPDeO2w3LTwA/BY8ZPc0PNudQjujsRI8q2PQOxdrMzxQfSg8G6Y4PDe5WDy2goc8QJvI\r\nPGd7qjz7lgs9CF1EPNhGejspdhE8DJEDPBAUwjuHdgI8EmBxPObYWDxkop875y2UPEQlsDs+mfE7\r\nfHrtO4epSzwwXfI7rvh4PFHDmTxgDww8UA5EPTjIdjxi5EI8SFa1PJTB8Ttn/TA8le6GPHBmtjuM\r\nOxg8bUcyPOHkmzyLWXM8kMR/PPCfMDzLay88hvu6PKXb/jt7EWA8P6ZiPKbbBjwL0gg8jF8bPDTJ\r\nDTzDKEc8UgdLPFTRVTzoWfg73MTdOzdpQDw91gA8QFfTO5hm8zv8ewQ82e4gPGJRJzwJQRg8hkU/\r\nPLtCAjysr2Q82ZL+O04LSTyO1yY8fl6rO3bgKjzDPfo7KTTCO80exztQbVw8d+K9O173qjtOOig8\r\nGEd/PMi4Yzu7RdY7jDDuO102QzylA2c8UFPyO0VS7jy26TI8MBn4O6FHWDxfnxA8x+FMPACzUzzH\r\n1hY8wailOzgcATxR4no8IV7wO482aDxa57M87uXCPL88+TybRGo8rhSbPKgHkjuIRyA8spgCPLr9\r\nUTwXbo48M4rdO2XI6TuW2x8807FqPP7qGjyO3D480nNEPJy9ajxVqIc8ir9BPM/3GzxRGmk8M08n\r\nPNzvrTyorL48/M2qPEktTjyeABg8zQF4PEzfhzwABKo7S+wJPHTF7jv9viY8HJNPPGHL2zsE4ic8\r\nEiAFPDvUcTwE91w8ST11PGM/ZzxSOig85CMGPJ9HhjxVgZQ74+5/PKcTlDvghfI7dt+LO1RhZTy4\r\nP7I7d9YVPHiVVjyXBiU8kivfOz4ABTxseAY8dimTPAgyfTzR8F48M4IiPAoGEzzX9rA7oKHEOyeA\r\nzDtSjg88whHpOwrWMDzmhhg8Gl3xO8/DzTv41xY8dIetO0PhqjtUeTI7HCwRPKxHCDzmHCA896Of\r\nPIJLvDvYR4I84xfXO15WTTycbzE83E0mPEadtzz4iS48kM85PJ+c3DvOOTA8kn+ePO95UTxCzlU8\r\nUBTgOxJkCjxAUM88IuVMPEMbRzz9gtg7mn+uO+6BDzyZQHc8EqtlPNXHNDxHZ/A7EVRcPJ6DsTuX\r\nd5k7+R8wPCD7EzwpzC88YxSmOxClkzxMgJ07HlBqPIP8kjzzXRY8j2kaPKFgGDzj8987b5K/O+DB\r\nKTwUVJk7ZJPhOxX04ju9xQs8QLVQPNhDBzxJOgg837zsO4reRTzavhc8GMT8O/MsLzxcN3Q89vhX\r\nPMD0MTw+Czo8lUO0O6OC4TvFZU08Ch8mPLSwlzwNN4Q8jlrUPHQIQTyWei48hj+HPMoHkzxs0RY8\r\nvpN4PHkciD858ZE8n0hoPKLrojz3teA8sx2/O/ASizwnQS48xt12PKSb4zs7VGE8JRI6PADWDTyK\r\nKJQ7J28yPH18IDzcqlU8XANWPCg8HDzwh7g8QFm2Oyj5nTvtDMg7Y3jGO4ZXxzuvmhY8z/iNO0Dq\r\nVDwgSEU8+JsZPOaF9ztsRAs85/1cPAOMhjsWrRM8fFmVPAR56jyrOzA8FBdmPHKfqjvZtKc7nnPP\r\nO2wq6TuW+Ck8Yl4APOV87Tuc0kU8AEtnPDDn1TtjxQQ8H6yYO1IjcjzaHng7vtCJO/BmCjwA5Pw7\r\nzPRpPHvHBDyoW+M7PhQCPJ1P0Tt0gz08usCuO+20TjxECIU7xhvVO+X/IzxiDCw8H46sO7sP8zv4\r\nK/k7JnYNPFr4NjzC6sc8bXiZPJicDTz8zvs7iZfZO3Ryuzs8d5w7UfnqO3iZezzTCto7WcTWO23S\r\nJzxtkR08rsZCPH7YADwOFhg8JSwXPNvvVzzxR5g7eSO1PPGr9Ds2ze07TyMwPOGz+TvSLsI7vGAw\r\nPAEVoTt2UOo7m+oYPDDpOTxrxxM8qLgYPLnKNDxiHqk8Y+V2PJFjzDsybwk875ybPLhRiDyhRE08\r\n2SDSPHQ9CTw0vQA8ujH2O9GTADy/y9w7INPLO1/vBzxi1Og7VAWtO/MLmDv4Buw7eoCzO+qVKzy4\r\n7WU8otKhPbGvKz08y1c87aYzPCd/OTwgztg8slMdPE2DCzy/qAk8CT8GPBAdGTzO1PA7GzAFPPUe\r\nrzs9xgc8hDg9PNBuOjxE9uk7HjKLPOK3zzvU3Ks8DpIePWYuQT1lckY8hY9qPPj9cDyQHyo8rMjC\r\nO5gYsTxC/Ac86Ai8O1TXcjy6ERA8jWVRPJj0QTwimjE8E1AHPHdCTjwHUjo8jFy3PEDw0ju6s3I8\r\noo8PPOIarDvY+Dw8GdTCO1PzjjwMFBQ8IEAiPFX6wzxe8/I7pm4mPHIFpTsygxs8Lc7iO1PMEDwr\r\nlP87uu3EO5K9ijxRK0882mTHOx01ejtmZUY8lma/O7Da5DsOUKc72B0nPFwW7juiqBc8FoCTO8TY\r\nNzz+Szk85bLTO14e0Tvkbs87At7xOziAjDvZhYw83UoYPCl6vDsjxw485scCPJpFzzv8I7g747VG\r\nPKhGCzwGbEk8qjCUPBaBPDww3OA7yVHdO/77Ujyau188VHn2O2rvTjzXgBY8FAxfPKzmSDyoZCI8\r\nPmzeO/MXfzt75dc7A2++O2NL6zsa57M7AIPpO8/KQDu55sc7OOkoPBevozs0u5I7EnHNO8hw4zuk\r\ndBk81cMlPMYyDTwr2Y88uUf0O0taADxskRQ8PunZO5uSqTsANu474b5aO5x53DtgtBY8YkSuO1Sv\r\nBTzoIwQ8cmHDO3w7RDshmIM8SMm2OwqEIDwEjhU8HZwzPC4rhjtuO5s7uVcMPF3QMTxZRtQ7Y7NQ\r\nOxZltjv6lYk77iOVO95WmTtv1UM8CM2mOw/Ohzt/FhE8lHuPO/BncjvuUfY7eetuPA==",
                                  "noiseTrainingType" : "default"
                                },
                                "metadata" : {
                                  "effectIndex" : "0"
                                }
                              }
                          ],
                          "start" : 9592,
                          "duration" : 1230,
                          "mediaStart" : 144,
                          "mediaDuration" : 1230,
                          "scalar" : 1,
                          "animationTracks" : {

                          }
                        }
,
                    "start" : 9592,
                    "duration" : 1230,
                    "mediaStart" : 0,
                    "mediaDuration" : 3106,
                    "scalar" : 1,
                    "metadata" : {
                      "clipSpeedAttribute" : false
                    }
                  },
                  {
                    "id" : 65,
                    "_type" : "UnifiedMedia",
                    "video" : 
                        {
                          "id" : 66,
                          "_type" : "VMFile",
                          "src" : 5,
                          "trackNumber" : 1,
                          "attributes" : {
                            "ident" : "Rec 12-22-19_004"
                          },
                          "parameters" : {
                            "translation0" : 602.0,
                            "translation1" : -235.76470588252,
                            "scale0" : 0.25,
                            "scale1" : 0.25
                          },
                          "effects" : [

                          ],
                          "start" : 10822,
                          "duration" : 298,
                          "mediaStart" : 2774,
                          "mediaDuration" : 298,
                          "scalar" : 1,
                          "animationTracks" : {

                          }
                        },
                    "audio" : 
                        {
                          "id" : 67,
                          "_type" : "AMFile",
                          "src" : 5,
                          "trackNumber" : 2,
                          "attributes" : {
                            "ident" : "",
                            "gain" : 1.0,
                            "mixToMono" : false
                          },
                            "channelNumber" : "0,1",
                          "effects" : [
                              {
                                "effectName" : "NoiseReduction",
                                "category" : "categoryAudioEffects",
                                "parameters" : {
                                  "denoiserAmount" : 20.0,
                                  "denoiserThreshold" : 0.0,
                                  "noiseProfile" : "vPGZQ+wJaULGWTFBSUGfQM0TdEE3GFZAYEB9QKCUfT9766s/vs0EP4xekj9+BUg/e5UeP37NKz98\r\nF+o+XlGNPuSUqT5AGFI+V2BJPpMqcD4gzBg+wykXPnOMHj45YfE90KmtPckzsD34WL49X/3hPTOQ\r\n2D3vuYc9JncFPltdtD2+L7g9daScPVzrjz3Ba0c+sJkfPlhiwj1qSrg9IojNPa8/kT3/3jk+DoX/\r\nPmbZxD6kTak+EmEOPiy/tz2gjUc+sXbgPe082z0PQZg9PpKnPRKmSD4SW4c9g3g2PbFxcD2NCeg9\r\n80aAPXj2cz1Iadw9Ni3WPQzsTj2f8aA9IDNMPmCGlT3TBSQ9BzyzPdo5HT04IoE9ZkUHPZ+jdj2N\r\nvS09A7EJPZZn9DzCLbA9rws9PXtNXT2rUAg9Cr1qPaylFT31uRM9MqeFPdeOTT323UI9Vi8bPuhx\r\nKT3KngQ9h+ATPZwRhT05KpQ9a/A7PVEmGz0AgcE9nySTPD0MWz2E6YA80TINPcZJOT0XvjI9HFG1\r\nPAW9uzzetc48gNe/PApXhjwAOJU8tSq2PDUl6zxJJIQ8sF2TPK82GT0iP9M8hWShPJWPCz2wXpo8\r\nW5jhPOnGNDwqBoM8XqYGPUNgcDy8C6s8Kg66PP1I2Dw0P9Y801AKPWfmkTx3dwY9ILyIPMJNoDyq\r\ngQk9yQ0ePa3cET1on+486DdxPNQQ5TyNLrc87UCkPPG6qTx4isc8CDzsPALW1jwus6s8DudVPIwQ\r\nlzz7pFI8c3WhPJuRxTzAb1U9ITvLPAHgZjwMGUc96Cy4PJu0hzy0ddQ8Hi9uPJ2efTymmIg8q6pB\r\nPN8quTzAMOw8sx6bPG7Pdjw8KY88NLLTPOIMXT0iTFo8q0a2PDQn/zstqnM8Y0cQPBwE7TzwcYE8\r\naD5mPFCLQjyMpQA8dFBOPNW5XDzB9J888t3cPIJ7cDxYBBw8qdZGPDdayjykgtQ8rvWAPLobhjzH\r\neHc8i+R3PApJoDtQGs48zq2VPDOORTw/YWo8HWkpPJvVQjyCrs88LkCrPDKmMzwMQLQ82PdfPO5M\r\nvzwqV4g8NhrEPG+IeTyTkkQ8L5N9PHASiTyILGs8do0/PIfxRTz63Gw8WbAXPH/+Bzx/hQ088m4x\r\nPJ8VnzwusRY8d9I0PNVnRTxl7U88tFc3PMtdiTyZ61s8RR1GPCwJhjwHVxU8ZskyPHlWbzwN2y48\r\njpo+PM49KzyMsh88jlCHPINKcTxYZ0s8JJjrOzBQHjzYKxU86JhWPKdabjzziic8tGQOPCjPJjwh\r\nj8w82DcfPFTomTxwr5Q8+DWCPOBBSDwX3yA8irdmPNXCvDtBNcM8D844POpeeTw26VI8IWYPPGve\r\nrDz4eBA8Sjx0PMhoKTzgKpE86pnJPI1XPjyLLiU8UL89PBqgbjzvOqE8jmnBPJnoRjyR/zk8qEdx\r\nPLCGCDzt3iw8+lhgPAuHCjzNPPU7cVw6PHQb+zuyGQQ89X7vPGf4ljy/qS48boEUPJnf0DsQigk8\r\nalFxPBwFTDxY3G88QhK4PIS1Czx64RQ88y3LO8HfiDyBmEg84ioLPG81Ejx3Iko8Xr9BPHaCpzwI\r\nm6o82rZ9PJxXPzybQDY8ZsDTO1x5wDsmUyU8wFWgO+gABzwS7Gw87iYYPGRXgDygNuM7gcAbPPWi\r\n9zusvzw8E8SHPGWBSzxqDi885hFFPEMTjzwLtds7zETRO0JGUzyy+PA7D2McPIkhNjzgjTA8gpNW\r\nPD9nLjy6sw48epUcPLDxhDxpxpA8A9+nOxahlzwcfW08q8OIPFIEzDu6X847VPgDPJXa+jvJHoY8\r\nN6gbPL1NMDyAVZ08GRY5PHMtNDzPuC480DYkPNrJkjy/GjY8wzAUPI4fCTza7xY8ocFlPFLjgDws\r\nTHs8L53cO+Si0TuqdrM8b8lnPG9CDjz/FyA93PJVPU+MgzywlW48bwodPVbz9jzyyx89hgtsPWjN\r\n1T29iUI/ypFpPyLy8D29NZ89U1UKPXxOPD3q0hc9EkgUPdQ1+TyzoaI88aeLPDbwCzxBh6w8/6WM\r\nPKzD0zwuFk084WhUPKh13zv9oaQ8IpCRPIcs0jt/hu87rRRDPALYAzwEioQ7RHwrPFFlfzwMkvE7\r\nQPI4PIT7NTxPqew7EkcWPAh0PDzV+SU8wJMVPKLbfDzl9WM80ofbO72+LzxN/RQ87zcKPIXMFDyg\r\nZSA89mE0PLAKITwmfIM8RqFTPIOqmDwwhag7QskjPMumHzwayEY8Y2kMPACHczxpcJA8BYkMPHq3\r\nkTwHuFw8xISlO1RE2DuEiKw7Lt4iPDUtzTsq9w8885oxPO8zLTyGMXw8Cg4cPOXtYDzGUfs7zPcC\r\nPLau+zv6cD08P2wcPHdYQDzrpCM82jrpO4fMCzyIdsc7OpDqO0IagzwsNJI8EMHwO15wGjyqFl88\r\nFffzO6QGNDw/yEU8H1mdO33IdDz5dB08R9KpO7yI1DuGemQ8FeOgPLcoGTzTnKc7LoS5O8Ccvzu+\r\njpw8DCNAPIxqGTy2E7Q7gZSWPEYSiDs8Gc47vq0hPCRAoztYDF08/bj9O3HSADwEYVE8OUOZPBpb\r\nYzzc62k7uLcDPDJFNjzD2R88JKU3PJTxSTyZums7JVyIO4En8TttNIY8eyvnO7lWMTyu9gw803m5\r\nPDRzqDy9tKs8prLuPB3rizwvt6I785n3OxFcATx0cQk8dluYOyEOUTzRRPI7JtiuO0C9DzxNfAA8\r\ngJbxO2E4JjyeMzw8E+jsO1k0Zjzz3Go8zLACPKTRXj1tzoU8DPdCPOdTyDzdk747JQ1kPP7HMjyg\r\nobQ7UIgLPBsNNDyAtHc8ABACPKO6HDzrq4g8NFNQPHYCWzxFlkw8UGJoPOc2gTxgx/U7pLKnO8lV\r\nADybcys8q5YBPGSZizxWWi48L4EBPG5nTzxl9Yw8GIcDPL9l7TtYfo47BFIvPKK+4TvAjf07wxlf\r\nPJF0gTxGmTA8kU9hPJY8ADyhxZ48bh8APER2lDsU0io8MZouPD+dlTukkcE7pBl4PL1fwjuXBws8\r\nDZ0lPAjsTTyi1as76WKTOypVCDyGlFM8X8lIPMzFKTya65U8FfvCO+j+2Ds+9x88H4TjO6l77jvE\r\n4P47RGPJO3PI4TseYwo8mHtOPPKo5zs76vI7Ijl/PPiFnDwIlAY9MHq/PH84hjx4/T489f82POn/\r\n1jtvRVM8PBR6PLeSNDzQOfw7Mp8VPGhBRzz2a9U7V8KWPP+rLDzW0+I7LEKBPOK3SzzqtdY7TCNC\r\nPBFhYTymUj08zwy4PB9nYjxxAB48t/QrPOhrXTwwmUI8QkLdO3Z7XTzmUP075T8wPMjNkzw01rE7\r\nt4f+OwQFUjw8uUA8l56PPI4KTTxii188B+PlO1q7FzxwDKc71noiPHzsIDwGmwE8tDIGPPOQ9DuH\r\nHzQ8XPWdO8zFdDwZcVA8+tQhPHFAGDwAyQE83xj2O9AJlTyy2ys8EL1vPNzu8ju019078c0TPMgf\r\nfTtPAFE7VjzfO+Ndrzun4+87zDYcPLHH5zuRZ9A7F0tLPHT78Tv4Sag7gXXfO5wJHjxRnx48q5vQ\r\nOzwIlzyiEcU783mzOzyLJTxlYk88B2G+O2qeGjzqfrM8tdd9PJrMJDx/YSI8CDtVPHhxQzz0b4A8\r\nNwNyPHuTKzw7GzE8OB2iPE73OzyxsBA8YEMFPD6jpzs+cPI7jgZJPA3/iTt8paI7LBAGPEngnjwa\r\nGY079xPgOy9uJTxgp3A7ehwdPA5YiDvNJUw8cu7yO7MSOzxC92k8LnUDPPg0BTwZtRg80eEEPN2p\r\npTssn7k7jAm6PFd45DtwjbA74FRLPL29ZzxxGeU7N79KPA4toztiXw08wVefOxTCCzwQuRw8jX4R\r\nPGgAAzxjTQU8fjb6Oxvdqjum5gg8ohWNPHqsWjxsRXw8FFdEPL56tDwjOdA70A9TPPFLyTzgdJM8\r\nLgzzO+H9hzwY934/qjp2PLLqTDyIJpI8kr/ZPD5n7jvBDZE8s0d9PItMVzwHNDc8n4tWPGomQTzU\r\nAgM8A8O9Oxq6Fjw4+Q88OpeNPKa7PDxerXk8t+yWPGXQzjuk56E75h7NO+HNtzunAME7kOMVPFFY\r\nwTtTEOs7rGU+PK2YEjyaigE8xhBtO2moDDw4LAk8NKe/O4jvcTziCOg8nD8XPHW8YDxlIPM7m04G\r\nPJJk8Dv3jqU7cpkEPIT/Ljyb7CE8JekUPIbfyjxRaw482Kp6O4G2ADzqQQQ8rjCLO0SSkDt2rWI8\r\naHz4OxaJTjwTjSs89hUxPLQj9Tsw7Rw8HoxyPFEGHDx2KWg8fDm0O0WyGTzASTQ8sIPyO7wlgjxE\r\nyW88yGncO8XjOTzTUkM8tCiXPMoVgTy3yNc7c5v7Oy7mhzsOP9Q7aB/zO41LEDy+DCM89LcCPCmO\r\nAjxiBNE7XRrQO/SZRDxGEA88KAX2Oz3nzztiRMk7NlRdO6XobDxjTB08PNF6PDJgfDx4ROU7EB+U\r\nO9+BrjsaoHk7t4dFPB5jnzsQImc8gnApPEO1hzxzATg8DkR2PJGhMTxP0gM87HM6PCi8wjuS2ng8\r\nQBmwPPJLnzzyD3A8hX/vO5pMOjx0JNI7N6oEPJe04juO8Rs8TngBPJUnDzxufIA79EfHO9LVGDx6\r\nBBY85iI+PCIagj3SPcU8jg0/PHO2CDzkMoc8Pvx4PEl1MjwGphU8XassPFpR3zv8Ugs8+pAAPCi5\r\n7DvcX+M7WWeSO3n/AzzXgyE8Cd3WOw5FGzy4li48EtZePB5YFj2AJDk98RqDPCEncjxwzoI8d4YB\r\nPGZXDDzz5BM8+NoyOwTSzTtQAwE8xLC/O51WoDysKWA8eskNPBhqFDxvKyw8i4CDPBk5lDwBjdQ7\r\nWRPKO4ojKTwN5q078vfmOww1tzvWm1Q8l18jPA/xcDv44HY8AF0IPAO4HTx14tc70gGbO+IYsDtr\r\n3Jg8iD/wO/6W5DvoiBU8NiOOPO5h2ju0+cM7dIQfPPnfrDsk2Uo8Re/MO8DF5jsimrs7+thzPMpE\r\nHzymvVc8tBZiPGZsBzx9RCY8922BPCdIRjx4V5s74DicPPQJ3DtX2wI8JGfcO7gmqTt4OAU83Gay\r\nO2bUKzzKjbY74pzqO/u1ATxrzZ87xPzVO3oOITwNAOg7X5eJPKVmfzxEy0A8TwdmPDfgCjwSBh88\r\nYWsnPCSo6zu1JAA81giWO2lKrDtpgvg77K7rOwbODDxQEDQ7J4nMO9JYGDy0wyM8zNLROySiuzvi\r\ne7s7A+eJPECzUjxmDRc8/pNbPFuN5DvNaeI7dMknPBuV1Tvi1dQ7t9coPAkezDscL8I7BPyDOz49\r\n7TsI3Oc7eGLFO6zjzTs5kew7HEcXPP+FVTzxNu47aoTmO84QVzw5vM07OZ2cO+1sHTyWrzQ8MTvN\r\nOx+/KTs7zm47QGM2O7TStDu8Src75FFEPCdihDsNtWI7nNcHPI+UzzsG3S07ZO/DO8Q7ajwpIZhD\r\nAC5cQgZYKUFUOKRANlR1QTzCb0AKHoJAgoacP+H0vD+F9QU/8OOQP4gjVz/2xSE/aUgxP7edzj6U\r\nHKg+nsmmPm3IMD4U9nw+iNQ8PuScEz4S8Bc+BukRPvqkpz1B5so9PgQcPmnV0T0qk+o9tz0IPvg1\r\ndT3PVPg9zE4HPpxkvz1CPok9NliYPbd0Qz4GWy4++fgCPoGYsz3wXMM94NGZPZw5VD6nlwY/AOva\r\nPlJ+nj56aR0+gtvIPds9Kj6f+dU9BYIHPplcqj0/5MQ9KNV/PgnSlD1trms9jG5SPQ2w6D2a4VE9\r\nRApYPcMzjD1IGrc9q2KlPTzJrT3phlo+P6pcPWNXaD2fSqE9NCQ/PVX7kT1yEis9iPhOPc22Ej14\r\n2xg9bjr5PIWMmD16in095t90Pd/ExTyv9XE9nTMkPVYqUD1fgY09+S0zParFbD25iPI9Fp12PXUw\r\nVD34ghU9BamJPX5MrD15lUE9dhALPaSXrj1eWuQ8C4JyPZBXojwA/A09OuwuPVbFcT2XgKk847jv\r\nPAdSxjzNmqA8vNguPCEpsjxDF4E8EYEOPS7NmTzb9J88koogPfoNlTwimpc8EgMEPXI5ozwvucI8\r\n4QWTPPpSfDzUwt88pJd8PDrhczyytlk8Y3ouPay88zzukTo9GAbXPNKmDT1aq488dAidPMUk5zyV\r\nAic9L9kzPUvx+zzcuKs8HlWNPID5/TyKqsw82OvDPFJmkTzUrb88+5jAPORFZDxJZog8VfSFPOw1\r\nUjw/eqg8xCB3PMb4Kz0RRtc8FASVPIoIJz1N95A8GjSjPIym8jy43bY8sgXLPKzsyDyum4885EKP\r\nPFbVojwWFJw8cwt3PM7oNTwm7dQ8blgQPd1igzzcYs88ik1uPLQUmjwtPV48egMgPaBBQjxGlr88\r\nT2A/PNt6gTy2HB08QBSEPBVz2jwppck87M2zPDx37jtG4Gw80mzsPL7NqTx8HUo8Ta9kPBw+bjxF\r\nPLI8QfABPGqYwDzpPFo8p0JzPO8iKDyOkEs8tuctPGQwvDxi/KA8iXhsPH8MfTwigIs8CwLBPCtp\r\nQjxSP5w8fFg9PMI1CjzUSYI8dEC2PDJPQDxIQ1E8eY8VPFlFPjw4Qwk8ykS3O0Z6BTzo4KQ8XkPK\r\nPIAIAjx55S08yhgNPPRuXDx/KwA8V9J+POyaijwOUU08uuOoPOKYxTv70zA810atPFuVPzxlj+o7\r\nZ4W5O1PdgzycS6U8NkJHPCCgNTxruCg8U1ncOwPHIzwm2xM8UtqDPDeXcjzhAAE8p/BdPEtbmDzM\r\nIxY8Qp7yPGBKtjywu2A8sG9FPBaMJTykfnc8dCsLPIjPzjyL9Ac8uSRePAwADjySglQ8dPaFPOCg\r\nPzwP0Dw84UWEPDO05Tyenas8VrtEPJJydTzLHSE8orrvO8oXjTwOmsw82pB2PHpY7Tu0hEc8RAFj\r\nPB6kQTwHk3Q8GzkAPKYlMjyqJBw877MRPHofAzyncxg9VlVkPK5YJTxevRI8/OsrPJAqCzzaIh88\r\nBsYoPI/2hTyZPY08EAv9O1cgOjzxDA08sxCKPF/FUDw5eMQ7RLwOPKtfTjx9HHk8HWZJPDmuJDzK\r\nuFY8y/CXPN33WTw//G08ZyWGO9bVAzyelMU7f+oHPLbrZTyYElc8d/w2PJMigTtqJnw8NnXiO8xA\r\nOTzw9Y08sRUjPEp1qjs+KIg8slG3PIaaMDwVggI8DFYcPHeOATx2lOQ7vh+oO6JFFDyifS08H65v\r\nPGS71jsNAOo7NMKFPNrVODy298Y7XtWAPEhLpzw45z08Nd4lPG37vTvAO088In7QO/QUYjx7TAM8\r\nRrLtO4Y0lTzPwJ48ASspPPwgTjwzK1c8G9ZTPP60Bjz/d+s7PAAsPLxMkjz3a8E8ekmZPJxJuDyo\r\n5Co8BCUyPMfNpzwhz4Y85+X1O+qnIz2EmWc9zjaTPB1tgTzjHy09TvgAPcQDAT3J+YE9LA76PQKs\r\nVz8Rb3Y/KaoYPjbkXz27jRk94REePardGz2sABk9siekPNQYojx+/pY80UUxPEhJijz5aYU81BXD\r\nPBSCmjzLAMk8nnEfPDJFxjwMpaY83S4GPPn+FDzp3w08h7zRO/KLBjzHsws88nqJPG7vZDyVrRQ8\r\nbvXvO63BvDtdIyU8saU+PMLNJjyvw4I885FIPCLsHzz6iFQ8f2gRPNSfITyAFzA8U/cwPPiuGzwB\r\nQmU8hd5fPJfQrDweGDo83OrHPLHz6Duaqd070iJuPCIKjDwMYx88l4CgPPNjhzyxLEI8UP4fPNjG\r\nbzxDgtc7rmG+O3PgjzvEJTQ8pTmsO7emITxE1Sc8qWYVPG60Qjw+DQU8hiJ4PDYXMTz2Mv47OPsZ\r\nPFxVaTziaAg8vsZWPDTDPDyNNKg76glPPExuyDtMw0I8AWMEPNPWNTwIZyE8etwtPKbKRDy+/bY7\r\njKUePEN6FDw5RZA7bW9EPFkPMjwJeho85TjQO80tXzz6hYY8FhsxPDiBDTyeb+47nVHxOwkMUzwh\r\nfnA8tnPHO1JjEzyezKc8ohnOO2MYCDzomSQ8IPubO9JcVzwi0Cs8fkAaPE6WSzwiuV88D9OhPLzO\r\nkzt1JBg8JPDeO2w3LTwA/BY8ZPc0PNudQjujsRI8q2PQOxdrMzxQfSg8G6Y4PDe5WDy2goc8QJvI\r\nPGd7qjz7lgs9CF1EPNhGejspdhE8DJEDPBAUwjuHdgI8EmBxPObYWDxkop875y2UPEQlsDs+mfE7\r\nfHrtO4epSzwwXfI7rvh4PFHDmTxgDww8UA5EPTjIdjxi5EI8SFa1PJTB8Ttn/TA8le6GPHBmtjuM\r\nOxg8bUcyPOHkmzyLWXM8kMR/PPCfMDzLay88hvu6PKXb/jt7EWA8P6ZiPKbbBjwL0gg8jF8bPDTJ\r\nDTzDKEc8UgdLPFTRVTzoWfg73MTdOzdpQDw91gA8QFfTO5hm8zv8ewQ82e4gPGJRJzwJQRg8hkU/\r\nPLtCAjysr2Q82ZL+O04LSTyO1yY8fl6rO3bgKjzDPfo7KTTCO80exztQbVw8d+K9O173qjtOOig8\r\nGEd/PMi4Yzu7RdY7jDDuO102QzylA2c8UFPyO0VS7jy26TI8MBn4O6FHWDxfnxA8x+FMPACzUzzH\r\n1hY8wailOzgcATxR4no8IV7wO482aDxa57M87uXCPL88+TybRGo8rhSbPKgHkjuIRyA8spgCPLr9\r\nUTwXbo48M4rdO2XI6TuW2x8807FqPP7qGjyO3D480nNEPJy9ajxVqIc8ir9BPM/3GzxRGmk8M08n\r\nPNzvrTyorL48/M2qPEktTjyeABg8zQF4PEzfhzwABKo7S+wJPHTF7jv9viY8HJNPPGHL2zsE4ic8\r\nEiAFPDvUcTwE91w8ST11PGM/ZzxSOig85CMGPJ9HhjxVgZQ74+5/PKcTlDvghfI7dt+LO1RhZTy4\r\nP7I7d9YVPHiVVjyXBiU8kivfOz4ABTxseAY8dimTPAgyfTzR8F48M4IiPAoGEzzX9rA7oKHEOyeA\r\nzDtSjg88whHpOwrWMDzmhhg8Gl3xO8/DzTv41xY8dIetO0PhqjtUeTI7HCwRPKxHCDzmHCA896Of\r\nPIJLvDvYR4I84xfXO15WTTycbzE83E0mPEadtzz4iS48kM85PJ+c3DvOOTA8kn+ePO95UTxCzlU8\r\nUBTgOxJkCjxAUM88IuVMPEMbRzz9gtg7mn+uO+6BDzyZQHc8EqtlPNXHNDxHZ/A7EVRcPJ6DsTuX\r\nd5k7+R8wPCD7EzwpzC88YxSmOxClkzxMgJ07HlBqPIP8kjzzXRY8j2kaPKFgGDzj8987b5K/O+DB\r\nKTwUVJk7ZJPhOxX04ju9xQs8QLVQPNhDBzxJOgg837zsO4reRTzavhc8GMT8O/MsLzxcN3Q89vhX\r\nPMD0MTw+Czo8lUO0O6OC4TvFZU08Ch8mPLSwlzwNN4Q8jlrUPHQIQTyWei48hj+HPMoHkzxs0RY8\r\nvpN4PHkciD858ZE8n0hoPKLrojz3teA8sx2/O/ASizwnQS48xt12PKSb4zs7VGE8JRI6PADWDTyK\r\nKJQ7J28yPH18IDzcqlU8XANWPCg8HDzwh7g8QFm2Oyj5nTvtDMg7Y3jGO4ZXxzuvmhY8z/iNO0Dq\r\nVDwgSEU8+JsZPOaF9ztsRAs85/1cPAOMhjsWrRM8fFmVPAR56jyrOzA8FBdmPHKfqjvZtKc7nnPP\r\nO2wq6TuW+Ck8Yl4APOV87Tuc0kU8AEtnPDDn1TtjxQQ8H6yYO1IjcjzaHng7vtCJO/BmCjwA5Pw7\r\nzPRpPHvHBDyoW+M7PhQCPJ1P0Tt0gz08usCuO+20TjxECIU7xhvVO+X/IzxiDCw8H46sO7sP8zv4\r\nK/k7JnYNPFr4NjzC6sc8bXiZPJicDTz8zvs7iZfZO3Ryuzs8d5w7UfnqO3iZezzTCto7WcTWO23S\r\nJzxtkR08rsZCPH7YADwOFhg8JSwXPNvvVzzxR5g7eSO1PPGr9Ds2ze07TyMwPOGz+TvSLsI7vGAw\r\nPAEVoTt2UOo7m+oYPDDpOTxrxxM8qLgYPLnKNDxiHqk8Y+V2PJFjzDsybwk875ybPLhRiDyhRE08\r\n2SDSPHQ9CTw0vQA8ujH2O9GTADy/y9w7INPLO1/vBzxi1Og7VAWtO/MLmDv4Buw7eoCzO+qVKzy4\r\n7WU8otKhPbGvKz08y1c87aYzPCd/OTwgztg8slMdPE2DCzy/qAk8CT8GPBAdGTzO1PA7GzAFPPUe\r\nrzs9xgc8hDg9PNBuOjxE9uk7HjKLPOK3zzvU3Ks8DpIePWYuQT1lckY8hY9qPPj9cDyQHyo8rMjC\r\nO5gYsTxC/Ac86Ai8O1TXcjy6ERA8jWVRPJj0QTwimjE8E1AHPHdCTjwHUjo8jFy3PEDw0ju6s3I8\r\noo8PPOIarDvY+Dw8GdTCO1PzjjwMFBQ8IEAiPFX6wzxe8/I7pm4mPHIFpTsygxs8Lc7iO1PMEDwr\r\nlP87uu3EO5K9ijxRK0882mTHOx01ejtmZUY8lma/O7Da5DsOUKc72B0nPFwW7juiqBc8FoCTO8TY\r\nNzz+Szk85bLTO14e0Tvkbs87At7xOziAjDvZhYw83UoYPCl6vDsjxw485scCPJpFzzv8I7g747VG\r\nPKhGCzwGbEk8qjCUPBaBPDww3OA7yVHdO/77Ujyau188VHn2O2rvTjzXgBY8FAxfPKzmSDyoZCI8\r\nPmzeO/MXfzt75dc7A2++O2NL6zsa57M7AIPpO8/KQDu55sc7OOkoPBevozs0u5I7EnHNO8hw4zuk\r\ndBk81cMlPMYyDTwr2Y88uUf0O0taADxskRQ8PunZO5uSqTsANu474b5aO5x53DtgtBY8YkSuO1Sv\r\nBTzoIwQ8cmHDO3w7RDshmIM8SMm2OwqEIDwEjhU8HZwzPC4rhjtuO5s7uVcMPF3QMTxZRtQ7Y7NQ\r\nOxZltjv6lYk77iOVO95WmTtv1UM8CM2mOw/Ohzt/FhE8lHuPO/BncjvuUfY7eetuPA==",
                                  "noiseTrainingType" : "default"
                                },
                                "metadata" : {
                                  "effectIndex" : "0"
                                }
                              }
                          ],
                          "start" : 10822,
                          "duration" : 298,
                          "mediaStart" : 2774,
                          "mediaDuration" : 298,
                          "scalar" : 1,
                          "animationTracks" : {

                          }
                        }
,
                    "start" : 10822,
                    "duration" : 298,
                    "mediaStart" : 0,
                    "mediaDuration" : 3106,
                    "scalar" : 1,
                    "metadata" : {
                      "clipSpeedAttribute" : false,
                      "default-translation1" : -324.0
                    }
                  },
                  {
                    "id" : 68,
                    "_type" : "IMFile",
                    "src" : 15,
                    "trackNumber" : 0,
                    "trimStartSum" : 0,
                    "attributes" : {
                      "ident" : "6"
                    },
                    "parameters" : {
                      "translation0" : 44.1176470586696,
                      "translation1" : -4.6782133722445e-11,
                      "scale0" : 0.967801857584991,
                      "scale1" : 0.967801857584991
                    },
                    "effects" : [

                    ],
                    "start" : 11120,
                    "duration" : 122,
                    "mediaStart" : 0,
                    "mediaDuration" : 1,
                    "scalar" : 1,
                    "metadata" : {
                      "clipSpeedAttribute" : false,
                      "default-scale0" : 0.673684210526316,
                      "default-scale1" : 0.673684210526316,
                      "default-translation0" : 0.0,
                      "default-translation1" : 0.0
                    },
                    "animationTracks" : {

                    }
                  },
                  {
                    "id" : 69,
                    "_type" : "UnifiedMedia",
                    "video" : 
                        {
                          "id" : 70,
                          "_type" : "VMFile",
                          "src" : 6,
                          "trackNumber" : 1,
                          "attributes" : {
                            "ident" : "Rec 12-22-19_005"
                          },
                          "parameters" : {
                            "translation0" : {
                              "type" : "double",
                              "defaultValue" : 601.999999999796,
                              "interp" : "eioe"
                            },
                            "translation1" : {
                              "type" : "double",
                              "defaultValue" : -323.999999999977,
                              "interp" : "eioe"
                            },
                            "scale0" : {
                              "type" : "double",
                              "defaultValue" : 0.25,
                              "interp" : "eioe"
                            },
                            "scale1" : {
                              "type" : "double",
                              "defaultValue" : 0.25,
                              "interp" : "eioe"
                            }
                          },
                          "effects" : [

                          ],
                          "start" : 11242,
                          "duration" : 529,
                          "mediaStart" : 220,
                          "mediaDuration" : 529,
                          "scalar" : 1,
                          "animationTracks" : {

                          }
                        },
                    "audio" : 
                        {
                          "id" : 71,
                          "_type" : "AMFile",
                          "src" : 6,
                          "trackNumber" : 2,
                          "attributes" : {
                            "ident" : "",
                            "gain" : 1.0,
                            "mixToMono" : false
                          },
                            "channelNumber" : "0,1",
                          "effects" : [
                              {
                                "effectName" : "NoiseReduction",
                                "category" : "categoryAudioEffects",
                                "parameters" : {
                                  "denoiserAmount" : 20.0,
                                  "denoiserThreshold" : 0.0,
                                  "noiseProfile" : "NsNeQyYptEH4NNhAjj5qQU81ikGCm+w/XXSJP7txlz+ca10/FY3RPr934j7b+Jo+vLUlP9AAtT4l\r\nPb4+FGokPvWOED5ORzU+7K+rPv7eAD5WnZI+isIyPlCFdD5dFxc+atKnPhX9Ij3nPgo+v77HPcKQ\r\ngT1iFww+d7rcPY7lIj6w2DE+zMoaPh4Aiz6phAM+OT4gPqzcVD4Ppfs9nnwHPsXpqT3enqM9k+7o\r\nPiW1/D5LnQc/ELCqPhemOz4MY14+zPDlPXUSsz0IyO09ELmuPQiL1j38VZg9ABUyPtaN0z3qtgI+\r\nLE1sPY4ovD04V5M+Ub0jPgzZ7j0IX7A9jj+6PVu6wj3QzYI9nx+dPe8sRT1N2kc+xrHZPUDPtj2T\r\nTYs9BRgDPuAXxzwfFr09l1q3PWBF7z0fZZE9cCKgPW5Vvj1WeKo9M6zmPam5kz17EMA9zQQnPrtx\r\nzz3uLZQ+ErmCPaRvJT4C47Q9LxpJPctf1T2jTLc96jvaPWbzzj3d09k9ZiTsPY6Kjz1rArQ93oBd\r\nPQbs0j2DgSo9SAASPQujGD30iIo94LidPWjOtz1Q7Ro9YHk+PbpqbD2uNrQ+egQtPUBo/zy63j09\r\nVtwUPfH8Oj0cmJg8bio9PXFqiT1cIbc9QdYkPVZtIT2geCM9+fQfPbZ+iD14dhc9HoOtPVIKAT3K\r\nsIA9MDQJPRzLxTxI2xI9q4YjPZoYpjy4XQg9YecNPUZ08zyfDKQ8psT2PL2Q8jzWrXc8DPAIPTpq\r\njjzN+ZE8On3+POCz1zyOicI8+qkOPZbSmTxY8bs8EVA5PaHsCD2zM7I8jpTePIGz0jzWvxs9vi0S\r\nPWk1nDzyi6081uuAPHr6kTygvZg8AaHaPAT8XzxVmF48/gSCPHv+nDwP+4k9ly7yPGUfmTyCJOg8\r\n5J5OPJ62xDyKk5s8OJMsPK6J0jxhZsE8vAtKPGpD6Dw47b475JylPGcRyDwJ2tg8drKYPF0MnjzA\r\nv5g8MFvkPA9MrTwPhx89jYjdPEtFfzy/YNw8vDqXPJnSHjyEjQM8xjsgPd3NeDxOuEQ8mYP7PMUp\r\ngDwSWTw8Uk6bPFIixzzIhF086t/CPLqiBz3iAJY8njbFPNQMxDzU5KU8aeY5PJagtDxW3sI8fUnZ\r\nPMsv1Dz2VHo8mmJ5PDLYCT2XlFo88CLGPNPPOzyFP3Y8Ah9mPE02Lj3rv0U8pss6PEY8dzwIj/Q8\r\nhrcKPIS88js4TL473sYsPP5WcTzrRhA82PUIPA0RjTz4GHw8Lv8GPIqILzxlA6s8tIlSPJURsTw4\r\nNUU8ajCZPJKhajw8ajg83W5LPPKPdjyiKlM8qIEePB5cOTzCGko8fM3OPJgsETzgtCk8t5BIPBQF\r\nYjy6i+0735/gO9C0kjyBHwc9C6GgPHgLETy8MZk8yz5pPKjeGzwJ4Z48nn9JPLqMPDzAfQg8pXZS\r\nPJe5azzP8DQ8DmFsPK9mCTwy00k8PhJCPK+CGzzRlvw8F9cXPDNyEzyUGYY87LyIPFw/ADwZK9E7\r\nazr+O5f4kTzwyuM7lqgbPfPV7zvnHyk8sSavPLi7KjxOR248pnrWPC2AjjzAU4g8yu6iPDTDFjxd\r\nTWc8kDeLPPf9GDzmknE7FB9WPDhWmzz/+fw7zMF4PC2kUTyMCik8lkaaPN5zLjzAXxA8+YGZPI2Y\r\n9DvZTxI8xJFrPDJugzw3zT48eETMOxoHiTzPPNo7mFOvO4u+mTw87648o78aPEiykTx4Kvw76Jv9\r\nO5qK/jv0Xgw8UIhPPNEuDjwjyYA8toaHPP8MCTzmmv87bMRSPDowBjxUe6Y7TTbSPMyEMTzvyRs8\r\nEpmpPO7kTzx8Qiw8skS6O3ogIDw39Fo8jKaGPE4JGzzgisc7wMYtPHw0RTyGWHc8nAgaPLdmSDzy\r\nCFk85n0oPDyBLTyS5sw8UTCWPBDe+TuHl748OI6+PP2BvDycOa88Ti81PbkiLD1isRA9RCOIPZp6\r\nID4Nukg/koZkP+ivDD5dFo095OoiPWEuGD3CXk89AdCJPHzmUjypjWE9w38APYznTjxyyG48/ocj\r\nPDr1Gzy/BGk86gmFPJcsfDyx5xw83qsvPIWrHzzegCc8u96uO+VOQjxsm2Y8I+dQPIBQTzwdtBU8\r\nXnapO+slkDvBtw884zfkO1PpwTu+7y48PWIrPHb5HDw0KT88qrX9O5Y8iDyWk3I8Ft7lO6kgITwj\r\nQIw8UesBPJxyJTxuIjk8/AGgO0RdDzx5vfU7WSbeO/oJLTzEtuM7tPvuO9xF4TtKeQY8i4N/PFbF\r\nQTyDNxM8oRE9POhPFTwihs47hYeZO2dU3Tvf2H47jYDlO2ATEzxt7uA7jgzbO4RaZDzXlZo7ERDb\r\nO2vphzwDPBI8krnmO9xVlTut3YE8jGNyPLzTAjxnSHc81/1vPMUfvzu82Uw88k/MOwq9JzyIgQs8\r\nnYVbPHLTAzyzrAQ8ilQgPK044DuKaEY8uvc1PJ6eHzy8aRs8FppHPG1UPTy2bhk8XhjiOy3+Mjzk\r\nNAk8w1tGPO7azzu3FLs75fWiPBlyAjx2nTA85KljPK2KXzsjaFo87oHaO6pLGzwo7U08D992PPry\r\njTyIa587nMVnPO67HDxO8IM8U0kfPO4zdDyt+OI7PmiMOygK9Tv8Khg8xPXyO/RCPjzVFw08F8Ef\r\nPAod7TxhT1g8DlPIPCGXjzx07z88HEM6PIoEFjxLmbo8SPsRPMT9DDxpm/g7GllDPPMkPzxB/A88\r\nSNN2PLByOTxsp008jKguPIpXLDxwj7A7cUHzPHU8gz0pNZg89BujPLobzTx0i108Ddd0PH6FGDw2\r\nPh48t5ciPPEkATxOePU7KNUSPA9laTtFI/c7QN5FPHDieTxqzRg85qBpPOH3jDyIWbU7AeEdPBAf\r\n/Tvu8T88ZbLzO2O6kTybwYo836ZGPP8dvjtMb8g8uT3KOzXMMjyuYIo82AG7OwKrHjwbo8o74gQd\r\nPFNtDTwxXC087DIuPEr+RTzUUzw8Nw6+O1FdujvBu4076B20O0c7BDwn3xw8TGJyPCo/eDy9ARU8\r\nSGgEPe4NITww0jc8PgmJO4rLUzxHgyU8EjqaPFtUBTysTBw8uiccPJxxazystMc7NGAcPMhUzTt4\r\n7Qw8hpEmPKetZDxd1i887nU7PNQBZjw1xUQ8cnNzPChqMzxiDyc9KChYPBKIgjzd4Ok8FakNPChB\r\nnjv5mdE74CfRO8eNMDwoHnM86EzBO3R/KDyGLCw8kB6SPDihUjwEfKA7LgE1PMLlAzxYHsw7mzk3\r\nPPm+PDy8GJ08gzn6PFRL+jvsrKE7yQPPOw+IMjzg6MI7BZyAO1FO8DsbV+87Vwj+O8SU5jsigSQ8\r\neimNO3DXHzw79HQ8voE1PJoxuDt3lWs8pqKEPBiiBjzOyAA8pEE2PBrD7DuZwyQ8aLXtO352FDzt\r\n2As8+QKeO33PJDzytxQ8utMtPOKVgTsS6g08mTMMPNF8GTyExxE8POWBPEPHLTwW+BM8Jum6O/DK\r\nDzyQl6k7vIgzPJgv3Ds/Tto7aXbDOznv3jtH0C08XIL3O674+jtjbw48oHKDPHXCRjw3Uw48oN2Y\r\nO1kqkTxOSwA8u5wSPILHAzwCpkI8cgvxO51OQzzcZz08oEePPFDanjuSVAA8+IiKOx4Kmzsd0OY7\r\nrGPyO7BUBTxZG448A/anPJeHPzy42gs8oHGEO4R7Czw3vdc78bkfPFJmhjv1ZOI7bnIEPHt2YDzc\r\nI887QIH0Ow6aPDzZDeU7rjywO+ngczs6xtE7s4eMOwltzjssOFQ8w/C2O1uE3zuAP4I7gLX5O5d1\r\nZzzQYjM8130mPP9WrjvmGxY8a/SQO2ShwDsOL8s7mkq+OzWowDvCig88KMFxPJtYqDtYyhQ8KxoA\r\nPACeETxEs/I74eR6PL9T7ju7N0w86z4tPA2afzxmV7c8P3tvPLECMjwCbgI8c62cPKWgYDzEAD88\r\n54UvPLXdijyol5c/bf9zPHDMEDx+oZc8ih+0PNmgDTxUssk88tBCPLA6izz9xEU8d34+PDWZJjwf\r\n3e07r7BtPPSmIzwxLYc8iafOOyLoUDwGyW88FiR9O2DMGjyhdD08IcI5PBvi4js8nyI8IEEXPIXl\r\nPjyEmps8jobRO1lv4TsMJzY8i6gJPApLAzxMBqY78q5PPEi/4zu/qhc9kRqvPAq6EDx7Az08s0b0\r\nO9oYVDxQS6E7uObbOwpATzyOWwY8JsA+PEDKijz7Eb87IMdjPOOiBzxEN2c8MFccPEkvLzwQ8wc8\r\nNhszPAgKHzxTuvU70KF/PHfwgDv+GmQ8Xj5uPIrvBTxCvIA8CHZKPOHy+TvI4y48hkXNO0If7Dsy\r\n1B08RzKZPEiUPTxLZZA8n4KcPL+53TuFUT08rBuTO0ac+juENcs7RjzrO8FNRzzVv0o8aAylO93D\r\nNzyLnVU8J6xgPODtoDsnue87jO5VPASbKTzAppQ7ESYVPG20vTzq4yU8NkhSPPJt1TtHw/07CNYC\r\nPGPLejzFtKE7vqSFPNR9WTxmFA08IEhEPIC7IjyiVCw8nBNHPPhoETz1sdQ75VoUPEEXMzwiPuk7\r\nTbpwPNEUvTxBqME7pXHRO5JaujvFg/c7+kJ6PAxsMDx6/Fc8Mv09PB4OzDvECBM8C+hWPG0rEjzw\r\nqjs8twCNPINMoj3ZCeM8ysyUPDLUHDzNRto7h8efPKkKMTwbQBo8X0BWPKYlHjwc0kk8eNI6PIkY\r\nRDyxM+c7nCy6O3DOXjyeag48UqIZPEXKOTxrZAQ8OH1jPIMr9jxGRmg9d9kHPSJNezxUf1s82h8m\r\nPDiWkDxhukg8RsxjPNwTFTzLAxk856juO+hRDTwuXSs8kcwTPNdU0TvG2io8arBMPA8XuDwuJRM8\r\np/QFPIyASjwAWnI8BEpCPFxdpjyCvBA8Jb6XO60aMzy9mbk8RR0hPGZElDuABMw7x5OLOyZgJDwh\r\nYWI71VI/POZQpjvd7kU8wUCtO+Svfjzk6wk8T6u7O3iH4jutFAI8imWsO3HxEzxLYsI7YuR/PEm/\r\nETwPxh88EcRNPEq3BzwhtQo8PkYrPG6rHzzjBSo8G55VPA5q3jt0h8I7jHYPPObGHDwC9gM8T3js\r\nOwrEMjzkLDo88s4WPD1wATyZrhg8XbPTOz/aVTxA//0754qVPAeL9ztUiT48bYA1PLgsijsNvRs8\r\nlx8kPJMLhjws8ck7X9rIO3LkyDvyOTs8Yf2GO2rzFTyqm8c7xwV8O8xsSzxKOuM7+ZgRPOk8rjuu\r\n2Lk7brW+PKxNpjzyAeU7OS5UPCiETjzN+fw7O4A4PKADhDsiWdU7royKO0P37ztw3tw7+FbYO2C8\r\n1TsQU6A7fHA0PNFgBjwMhxQ8Rhc+PFR2CDwLA+U74fGeOzB93Tt8zYM7Zf0FPLvMJTzrVxI817kb\r\nO+2hazyJM4s7vvjTOwZV4zsWAxk8ojTJO56PAzyoaog72ZvQOx75Jjx1lPs7bjvaO2QeUTv3c1hD\r\nua/FQQ7y6ECqeWVBvMWOQReJ7T8en3k/p46AP9TbXj/HUAA/+jS4PlQOqT72CBU/kDnDPo2+wD7i\r\nERQ+s5MEPs18YT6IQ58+DL9FPuR3hj6f6iI+lxpBPoBd+j0rql4+ZBpePZZT/z2WP5Q9wC1cPeJV\r\nLD5H2Ow94nwyPqygGj5KVk8+xXY8PnBM7j0OwUQ+lLUtPq54AD7k0OE9rszOPWH7mz0mtfs+PAoG\r\nP8rnEj8meqc+MpAxPvyHXz5oKf897ZOEPfiYAT4GBYo9ab+zPenjjz31uAw+BXfiPTPeOD4Ydr89\r\n5heePTdxnj4G1Pk9cdIJPoLhgj24/689ZefVPTtElz1Zor49PF1LPTUjQT6EL9g99Rv8PWJzoz04\r\nBsQ9pxjkPIPC8D2NCKU9FN/xPUSYrT2pR8k9VnK8PYIkpj3VCPw9JwSFPeZIwj0oSAo+KXHLPUCE\r\njT7dlJA9sRIKPnUYpj00Txk9IdjvPeyDkT06LL89Z0DEPe0k/T07OAg+9O6oPSJOrT2o02Y97z2o\r\nPRTIDz0ODA89huRWPae4oD1kEq49B+CzPSJbQz0ciTM9dA9APaXSpz7SDzA9U73sPI64ET3lNmU9\r\nUY48PXbxoDwTYyE971qsPWgfuj19ulE9jLE2PXEJUz1KCh89AP93PbZz/Tysk8U9fXoWPVjDbT38\r\ngC490Je1POSbKz23cxk9wD+2PBriszy3dNA87CbTPNDkljzZ36M8uEEFPfwGVjzlLiY9tkWsPFoz\r\ngzycThU9gnq2PFh74zztSik9oty1PKhh+Dzk7B898qi1PHUrgjwfjRE9ftnQPE5oPD34Rq08oNLM\r\nPEstxDwLhp488hhOPAqHgzzgwuY88iYpPEujEDxEfpU8wE2CPA3wUj0Ctxk9OT3hPJ/3wTx+ySI8\r\nRtvhPJyTVTykSl08XQjHPPV9jjzyEak8dEPcPA219TvIZeg8jMGqPDsnHz1Rhok8QMuvPHWuSDzW\r\nhwk92N63PItrKT0ANzE9UTWPPFhOqjyL7co8VZ1QPIQZhTwK9EU9cCeZPGG9dzwaePA8MIStPACW\r\ngDy6yFk8xkLXPJuQVTzVNsY85vbSPATkkjwgecA8vDNlPASXrzyR01s8E6SvPCIbrzzttMg8VmOt\r\nPMHEhDwI1YA8x973PFdhXTz/gqk8lvRsPBnnKTzE+Lw8KIYZPcTEOTxweVo8mkeHPHBU4Ty5UCc8\r\nzvxLPIbs4DtgiB88136QPIzsBzyhnTA8XNmFPFbrwzx87h48VhE4PDNYMjwQ4nI8JdCqPEoy7zxi\r\nSpw8RO5pPAErGjzi9jg8Et9cPL2PTjygyjk8YmKAPCFANTyoppw806ItPGstDTzzSD08sjXrO4rR\r\nPDx5Gk08Vj6ZPLYE1DwKeis8Hc6CPMHsYzzKU4c8ICUqPAw1xTw5zBc8VuwdPIv3EDyX5KM8IJoR\r\nPBDkLzyYsXQ8CNF4PLtjozw9lhE8Cls5PElh6Dzc+Xs8xRi5O8T3BDyi4Ec8zY4rPEjF+DsHwhc8\r\n5tOYPGdKBDzgDho9VjY9PAdzWzwQV8Q8eOYPPJi5fDzbFec8fu+YPCZgITyws4o8lFcNPL0XgDyv\r\nJ388Oq3+O2HKETzsExU8/hxoPBfzpjsuPww8VyCDPHRsGDzgrV08tipUPJlDMDx1JYU83AQXPO6J\r\nLzxGyj08rnYIPHW1iTyO0Ss8nKgoPH+iOjwlLAI8Se7WPIzYjzyEnXc8HIX9PC1dPjwVKhw8BfQT\r\nPGtcHTxmFiA8RyJtPB4JHDzHVY08gfkRPMKtRTzTA4088eQ7PDJltDsMQAU9JRc8PN0bdjwpBok8\r\nmIM6PMRgODzIZ7s7IRkCPBL8bjzOunM8q4fYO/wP+TvPVjc8nvE0PIpijzwMKvs7hLo1PB9cQTzW\r\noDs80B+cPKMd7jy5rtU8W/IXPL/XjjyAyQw9hdC5PN1Q5DyOKzU97EMSPcrNKj28mJU9MTAKPo7u\r\nVz8htG0/CgsgPrnUdj1owBo9vDwWPavi6jyODH48hMCKPPZoJT0jcvk8F0FhPIOJpTwChGA8BYwl\r\nPJYFsjz8Pmc8/CiPPGCAHzy0Z1g8TNhRPIBQJDygOsw7FUZBPLwfbjxcDlU8BJiMPDRaSjwKMfM7\r\nYnKsO5ZBIDzCsMk70xa6O127ezxW6dc7v9M8PDh+6TsunSA85OFsPPe9bDzh+uE7UyGRPMHMlDxV\r\nHMw72NnaO078dTwsBcw7H9V5PHxpBTznYbg7+zcFPEPpODwYdto7sp5kPFWxDTxF+UQ89jQvPOYx\r\nFDzGnBY8ddzfO6J4CTyJO5c7RuQCPMqfwjuWHgg8wFLFO6LVmTtJvsY7ZtgtPAwrQTzCZrk7nSpR\r\nPI4E8DuVsNg7d7b6OxO7SjxQe4A8gfMRPGkYQjxlgx88C9AxPNx6gDzs3hM8pPLYO4PSSTz3RoA8\r\nBHAHPGm/+jv94zE8N97POzTPaTzupkk8vOcVPCABfzzMCC08hpJ5PHOxgTzBmNg7MH0FPFKBCjw6\r\nrSg8l6wPPPIn1Tt+1LI8HAmzO0JEdjzsx2Y8NigCPBz+cjz9ab07KHNvPN5ShjwSCIM8lATQPHLi\r\nszufInQ8ZaJMPH5IjjyKBvs7o4cmPCm+lTsuJ8I7k0pEPL4gGTwo/bE7RU1PPBMPBjwx/kY8lmb3\r\nPNieHzx+9wU9Ra+PPCQEgTz3+jU8utdpPIlTmTztcuA7bD+mOz5lVjxf7H08HvzIO1Ie9jvu3Jo8\r\nO4uEPI2/CDz7AAA8pDARPGXwmTtUUIg8zEWGPahVvjzZyMo8oEbNPIj/Rjz6G1c8sF/4OwzMTTys\r\npj48dSwwPKCWgzy6Bys8sKy0O2lC6TtMdjc80kaKPNRfWTwd2HI8Lo2VPBZWLjz32Tg8301YPKgE\r\nBzzO7g48UsuNPJLFGjyAGvk7hG/mO+ApsjxR6hU8lj8QPDZ4FTwCerA7J4e4O0wvyjuL/wo8huZN\r\nPJBK1Tz6o088zJ8uPFjGBjzVD8M7zfuQO9Pb3Tv0OA08qLnXOwLlgDyeM6Y8tFsbPO/IKzwX8uc8\r\nKz+BPLjBDTyRFOs7fqsnPJfe8jtM2bQ8AihJPL5WejxRNr4735otPAytrDvSjAk8a/KjO0z5ADxy\r\noRI8VSFdPDmUJzydJxg8oPxdPMeUCDwZUSQ8bNY4PFirJj0KFkw89tWBPCgZ4DwUixU8jYC3O7Ci\r\noDtFAxg8+QItPMRAAjy24+g7vPOBPLwdKDwxf3E8CPkOPMFHETz85Gc84egEPA0CzTvsWCM8gWVA\r\nPBO/lDxC+vw8p00iPLwyHjx4RSk8rprmO5rpujsWjHI7qkCcO1w0Dzzz0zA8M8KSOy0pTTxaoLs7\r\nRSgfPDA1NTwan108zkGPO/lDazx/83U8/M43PExtLjzAb388XDjJO13ZiDyfNSI8fiUvPCCu6zvN\r\nf7g7mHM6PG96OTw2XTY8PrejO1V2BzyaBzE8ryZ1PNDC/DtNJ6I8KPL9Ow2jtDtKuJE7ODKSO/S8\r\ntTvlNCQ8SkEQPD6yIzxj/rY7NpHpO8TU7DtKt5Q7OPY5PMKgwztdcHM8jZpVPN1ZCDyG3cY7TRWY\r\nPH/2OjzfLCE8z7j+OxYR0jv2XQw8vJD3O+ZoPTxiU5E8PZGRPJu8lzvodhc86IbbOxmL4jtBr3s7\r\n35QTPIjkcDy17oY8QHYQPHAm9Dv5MhA8+C8zPJrseTxWFFY8E5cEPDjTozuyMrM7ZWX2OyZPKzx8\r\nZAc8QO/kO+gx4DuUqoQ7n+jzO0SmmDv6lpg79zIcPFuQijz0gYE7LtLiOxrcjTs6SEI8sb3FO4pL\r\nHzxMfUA8oyfpO5zQ5TsccLY7Ps/mO4Kiujsycq47yM10PJ4n3jtc4NU7CCqUO4rFBjzwLS88Fn7m\r\nO+y1+DuOvyw8wvoQPPn0LjxorXc8oEmCPAB5UjxD6Us8O7CnPExZEjyorF481EiEPKi3nDzu9Xc8\r\nR8+wPIgglz+HJCI8Kz0EPP+hnjyswOY8nyTXO5xzijylHok8mmy4PMoJMzzgcW48Oc8+PF1zzzsF\r\nACM8UCMGPLWwaDwF0gE8nlE4PIfnSjwgDSo8af7qO8QtWDzjsQ08shYEPHNHUzwVJU48VAsZPPrX\r\nWjyACMQ7CmOnOwytyTspQT489INnPJPMFTyYLA08IJnZO95L/jxdYho8FPAPPAKECDzSHRU8UnIe\r\nPC1EujsNxF48WjhPPBh/OTyrZ6Y7qw81PHwTXzwtlkM8vqTkOzQZETy8AO07buMNPF6BKzwDthg8\r\n9Zf3O0g37TuymRw8Uty4O9E1mTzsFhY8aE3iO0lPijsJPAY81DsUPElHRzwIWBI8WkzZO7aEOTy4\r\nFoE8xtmeO5t2jzz8Lss8mZDwO8SLODyFyfI7HcShOyqEmjuKowM8vIw9PO0wFzyG2eU73vYnPNBj\r\nvzyAQGA8MTEmPN7zLjzCmRA8eBgzPJNFiTs+ThQ8hPjMPJpqQjwVX408PIYMPIRD6DvgyBM8bGfJ\r\nO3dm9Tukxak8Bgp3PDxdBjyIihU87LUqPPF0QjzsAgQ8ZeUSPFziPjzOyv87fPYVPJswhTyCSPg7\r\nCvGbPMqDCzwqXaE7a8UtPBADXjykm1086eZlPOrNWTzK4k489zRIPB6e9TuQqhw8tC8CPDwFiDyV\r\nlJM8xGizPUA7Hj3V2Xs8zyVVPHlaOjwy3TI8DRgTPGRstTs2Gw0814EmPDC8ZzuiQrI7eGqxO3Uc\r\nFzztjgc8zIAxPNexRTwke/c7QeJDPC1sBzwYHdY8STMLPWaBoz1P+9Y8okOgPFzcbDwq/CE8GlyI\r\nPELglDy+yoQ8sn9ePPKvIzwmwDo80gYTPBK6IzwVzz08KoK/Oy0pAjw/54g8NPE7PSVFDDwleN47\r\nfI0CPCQqljwogH48OIWPPFMNMDyZCQI8C2ZnPNmdyTx55U88zEOzOyULEzwhjcI7rX0DPM9TFTxa\r\naS88am/3Oy1pMDwb4vE7G/4RPIxbwzsnmso7kPTWOz7QXzyzZLw7Q2QFPGaodzzbZTc8ZX8JPGmZ\r\n2TspGlg80N/KOxZf/TtQJws8sOzZOz/cQDxDnq08NOxZPA7hHjwT2w48KJodPDfG8DsgHRw8BA31\r\nO6SyBTzDaPk7JYgLPPVC4jsopoY71HkBPdQgoju2WaQ8FRElPJZ1Ejxiq2U8sWA+O7K2qTtAsK08\r\ngW2IPMBiwTsperA7tVPcO/sxnTxT1qc74ETWO2PuDDwxJak70ZjQO81hTjxycQI8fsQTPJc5jjsg\r\ni1Q8+ke4PIErzDsE0jI8mdqHOy7/HjxwEDU8UdnCO++H3DvYK0s7QH/aO34OazzuSeE7bdkGPOoc\r\nIDz8Sho8bFhzPBDwpju50I48nU3/O1Q8+jtzGYQ7ehxdPKUFPzsgDec70k0DPJyLhjsi1yg7W/JJ\r\nO4AJuDvfdIk7HPXJO+ekvzvPQQE8Do+uO/KojjvtyMk7BbX4O6IarDsKebo7EKAPOw==",
                                  "noiseTrainingType" : "default"
                                },
                                "metadata" : {
                                  "effectIndex" : "0"
                                }
                              }
                          ],
                          "start" : 11242,
                          "duration" : 529,
                          "mediaStart" : 220,
                          "mediaDuration" : 529,
                          "scalar" : 1,
                          "animationTracks" : {

                          }
                        }
,
                    "start" : 11242,
                    "duration" : 529,
                    "mediaStart" : 0,
                    "mediaDuration" : 749,
                    "scalar" : 1,
                    "metadata" : {
                      "clipSpeedAttribute" : false,
                      "default-scale0" : 0.25,
                      "default-scale1" : 0.25,
                      "default-translation0" : 602.0,
                      "default-translation1" : -324.0
                    }
                  },
                  {
                    "id" : 72,
                    "_type" : "IMFile",
                    "src" : 17,
                    "trackNumber" : 0,
                    "trimStartSum" : 0,
                    "attributes" : {
                      "ident" : "7"
                    },
                    "parameters" : {
                      "translation0" : -2.04067873710301e-10,
                      "translation1" : 1.43757006298983e-10,
                      "scale0" : 1.00635087719298,
                      "scale1" : 1.00635087719298
                    },
                    "effects" : [

                    ],
                    "start" : 11771,
                    "duration" : 144,
                    "mediaStart" : 0,
                    "mediaDuration" : 1,
                    "scalar" : 1,
                    "metadata" : {
                      "clipSpeedAttribute" : false,
                      "default-scale0" : 0.673684210526316,
                      "default-scale1" : 0.673684210526316,
                      "default-translation0" : 0.0,
                      "default-translation1" : 0.0
                    },
                    "animationTracks" : {

                    }
                  }
                ],
                "transitions" : [
                  {
                    "name" : "Fade",
                    "duration" : 1,
                    "trivial" : false,
                    "reverse" : false,
                    "useAudioPreRoll" : true,
                    "useVisualPreRoll" : true,
                    "rightMedia" : 43
                  },
                  {
                    "name" : "Fade",
                    "duration" : 5,
                    "trivial" : false,
                    "reverse" : false,
                    "useAudioPreRoll" : true,
                    "useVisualPreRoll" : true,
                    "leftMedia" : 49
                  },
                  {
                    "name" : "SlideRight",
                    "duration" : 15,
                    "trivial" : false,
                    "reverse" : false,
                    "useAudioPreRoll" : true,
                    "useVisualPreRoll" : true,
                    "leftMedia" : 69,
                    "rightMedia" : 72
                  }
                ]
              },
              {
                "trackIndex" : 4,
                "medias" : [
                  {
                    "id" : 73,
                    "_type" : "Callout",
                    "def" : {
                      "kind" : "remix",
                      "shape" : "text",
                      "style" : "basic",
                      "height" : 250.0,
                      "line-spacing" : 0.0,
                      "width" : 617.647058823665,
                      "word-wrap" : 1.0,
                      "horizontal-alignment" : "center",
                      "resize-behavior" : "resizeText",
                      "text" : "Tasarım projeye nasıl uygulandı? Layoutu ve örnek bir sayfayı kod üzerinde anlatınız.",
                      "vertical-alignment" : "center",
                      "font" : {
                        "color-blue" : 1.0,
                        "color-green" : 1.0,
                        "color-red" : 1.0,
                        "size" : 96.0,
                        "tracking" : 0.0,
                        "name" : "Montserrat",
                        "weight" : "Regular"
                      },
                      "textAttributes" : {
                        "type" : "textAttributeList",
                        "keyframes" : [
                          {
                            "endTime" : 0,
                            "time" : 0,
                            "value" : [{"name":"fontSize","rangeEnd":93,"rangeStart":0,"value":45,"valueType":"double"},{"name":"fontWeight","rangeEnd":93,"rangeStart":0,"value":400,"valueType":"int"},{"name":"fontName","rangeEnd":93,"rangeStart":0,"value":"Montserrat","valueType":"string"},{"name":"fontItalic","rangeEnd":93,"rangeStart":0,"value":0,"valueType":"int"},{"name":"kerning","rangeEnd":93,"rangeStart":0,"value":0,"valueType":"double"},{"name":"underline","rangeEnd":93,"rangeStart":0,"value":0,"valueType":"int"},{"name":"strikethrough","rangeEnd":93,"rangeStart":0,"value":0,"valueType":"int"},{"name":"fgColor","rangeEnd":93,"rangeStart":0,"value":"(255,255,255,255)","valueType":"color"}],
                            "duration" : 0
                          }
                        ]
                      }
                    },
                    "attributes" : {
                      "autoRotateText" : true
                    },
                    "parameters" : {
                      "translation0" : 34.0000000000513,
                      "translation1" : 58.8235294117137
                    },
                    "effects" : [

                    ],
                    "start" : 540,
                    "duration" : 105,
                    "mediaStart" : 0,
                    "mediaDuration" : 105,
                    "scalar" : 1,
                    "metadata" : {
                      "clipSpeedAttribute" : false,
                      "default-HAlign" : "center",
                      "default-LineSpace" : 0.0,
                      "default-VAlign" : "center",
                      "default-translation0" : 0.0,
                      "default-translation1" : 0.0
                    },
                    "animationTracks" : {

                    }
                  },
                  {
                    "id" : 74,
                    "_type" : "Callout",
                    "def" : {
                      "kind" : "remix",
                      "shape" : "text",
                      "style" : "basic",
                      "height" : 282.352941176548,
                      "line-spacing" : 0.0,
                      "width" : 505.8823529413,
                      "word-wrap" : 1.0,
                      "horizontal-alignment" : "center",
                      "resize-behavior" : "resizeText",
                      "text" : "Projeyede veritabanı modeli ORM ile nasıl tasarlandı? Data contexti ve nesnelerin\rbağlantılarını kodlar üzerinden anlatınız.",
                      "vertical-alignment" : "center",
                      "font" : {
                        "color-blue" : 1.0,
                        "color-green" : 1.0,
                        "color-red" : 1.0,
                        "size" : 96.0,
                        "tracking" : 0.0,
                        "name" : "Montserrat",
                        "weight" : "Regular"
                      },
                      "textAttributes" : {
                        "type" : "textAttributeList",
                        "keyframes" : [
                          {
                            "endTime" : 0,
                            "time" : 0,
                            "value" : [{"name":"fontName","rangeEnd":87,"rangeStart":0,"value":"Montserrat","valueType":"string"},{"name":"fontSize","rangeEnd":134,"rangeStart":0,"value":96,"valueType":"double"},{"name":"underline","rangeEnd":134,"rangeStart":0,"value":0,"valueType":"int"},{"name":"fontName","rangeEnd":134,"rangeStart":89,"value":"Montserrat","valueType":"string"},{"name":"strikethrough","rangeEnd":134,"rangeStart":0,"value":0,"valueType":"int"},{"name":"fontItalic","rangeEnd":134,"rangeStart":0,"value":0,"valueType":"int"},{"name":"fontName","rangeEnd":89,"rangeStart":87,"value":"Arial","valueType":"string"},{"name":"fontWeight","rangeEnd":134,"rangeStart":0,"value":400,"valueType":"int"},{"name":"kerning","rangeEnd":134,"rangeStart":0,"value":0,"valueType":"double"},{"name":"fgColor","rangeEnd":134,"rangeStart":0,"value":"(255,255,255,255)","valueType":"color"}],
                            "duration" : 0
                          }
                        ]
                      }
                    },
                    "attributes" : {
                      "autoRotateText" : true
                    },
                    "parameters" : {
                      "translation0" : 0.0588235294926278,
                      "translation1" : 57.6764705881148
                    },
                    "effects" : [

                    ],
                    "start" : 4667,
                    "duration" : 153,
                    "mediaStart" : -38,
                    "mediaDuration" : 153,
                    "scalar" : 1,
                    "metadata" : {
                      "clipSpeedAttribute" : false,
                      "default-HAlign" : "center",
                      "default-LineSpace" : 0.0,
                      "default-VAlign" : "center",
                      "default-translation0" : 0.0,
                      "default-translation1" : 0.0
                    },
                    "animationTracks" : {

                    }
                  },
                  {
                    "id" : 75,
                    "_type" : "Callout",
                    "def" : {
                      "kind" : "TypeWinSVG",
                      "shape" : "",
                      "style" : "",
                      "DrawTime" : 1.0,
                      "borderColorBlue" : 0.0,
                      "borderColorGreen" : 0.0,
                      "borderColorRed" : 1.0,
                      "borderWidth" : 5.0,
                      "flipOnXAxis" : 0.0,
                      "flipOnYAxis" : 0.0,
                      "height" : 192.0,
                      "width" : 341.0,
                      "filename" : "C:\\Users\\fula_\\AppData\\Local\\TechSmith\\Camtasia Studio\\19.0\\Features\\Tools\\Annotations\\Defaults\\anim_drawnsquare.svg",
                      "name" : "",
                      "xmlContent" : "﻿<?xml version=\"1.0\" encoding=\"utf-8\"?>\n<!-- Generator: Adobe Illustrator 13.0.2, SVG Export Plug-In . SVG Version: 6.00 Build 14948)  -->\n<!DOCTYPE svg PUBLIC \"-//W3C//DTD SVG 1.1//EN\" \"http://www.w3.org/Graphics/SVG/1.1/DTD/svg11.dtd\">\n<svg version=\"1.1\" id=\"Layer_1\" xmlns=\"http://www.w3.org/2000/svg\" xmlns:xlink=\"http://www.w3.org/1999/xlink\" x=\"0px\" y=\"0px\"\n\t width=\"296.633px\" height=\"227.883px\" viewBox=\"0 0 296.633 227.883\" enable-background=\"new 0 0 296.633 227.883\"\n\t xml:space=\"preserve\">\n<path fill=\"none\" d=\"M2.662,1.793c8.266,53.25,2.802,171.963,5.305,226.067\"/>\n<path fill=\"none\" d=\"M1.031,222.146c67.199-9.078,213.034,6.17,279.931-5.306\"/>\n<path fill=\"none\" d=\"M290.581,0.007c-0.5,33.125-2.356,191.708-11.658,223.363\"/>\n<path fill=\"none\" d=\"M0.07,10.703C127.409-7.206,237.174,4.794,296.602,8.604\"/>\n</svg>\n"
                    },
                    "attributes" : {
                      "autoRotateText" : true
                    },
                    "parameters" : {
                      "translation0" : -322.580645161328,
                      "translation1" : 35.0967741935226,
                      "scale0" : 1.24595591713143,
                      "scale1" : 0.365591397849383
                    },
                    "leftEdgeMods" : [
                      {
                        "group" : "DrawPercentageFade",
                        "duration" : 30,
                        "parameters" : [
                          {
                            "name" : "DrawTime",
                              "func" : "FadeInFunc"
                            }
                        ]
                      }
                    ],
                    "effects" : [

                    ],
                    "start" : 5896,
                    "duration" : 320,
                    "mediaStart" : 0,
                    "mediaDuration" : 320,
                    "scalar" : 1,
                    "metadata" : {
                      "clipSpeedAttribute" : false,
                      "default-scale0" : 1.0,
                      "default-scale1" : 1.0,
                      "default-translation0" : 0.0,
                      "default-translation1" : 0.0
                    },
                    "animationTracks" : {

                    }
                  },
                  {
                    "id" : 76,
                    "_type" : "Callout",
                    "def" : {
                      "kind" : "remix",
                      "shape" : "text",
                      "style" : "basic",
                      "height" : 270.588235294194,
                      "line-spacing" : 0.0,
                      "width" : 520.588235294243,
                      "word-wrap" : 1.0,
                      "horizontal-alignment" : "center",
                      "resize-behavior" : "resizeText",
                      "text" : "Kullanıcılara göre yetkilendirme nasıl yapıldı? Kod üzerinden gösteriniz.",
                      "vertical-alignment" : "center",
                      "font" : {
                        "color-blue" : 1.0,
                        "color-green" : 1.0,
                        "color-red" : 1.0,
                        "size" : 96.0,
                        "tracking" : 0.0,
                        "name" : "Montserrat",
                        "weight" : "Regular"
                      },
                      "textAttributes" : {
                        "type" : "textAttributeList",
                        "keyframes" : [
                          {
                            "endTime" : 0,
                            "time" : 0,
                            "value" : [{"name":"kerning","rangeEnd":81,"rangeStart":0,"value":0,"valueType":"double"},{"name":"fontSize","rangeEnd":81,"rangeStart":0,"value":96,"valueType":"double"},{"name":"strikethrough","rangeEnd":81,"rangeStart":0,"value":0,"valueType":"int"},{"name":"fontWeight","rangeEnd":81,"rangeStart":0,"value":400,"valueType":"int"},{"name":"fgColor","rangeEnd":81,"rangeStart":0,"value":"(255,255,255,255)","valueType":"color"},{"name":"underline","rangeEnd":81,"rangeStart":0,"value":0,"valueType":"int"},{"name":"fontName","rangeEnd":81,"rangeStart":0,"value":"Montserrat","valueType":"string"},{"name":"fontItalic","rangeEnd":81,"rangeStart":0,"value":0,"valueType":"int"}],
                            "duration" : 0
                          }
                        ]
                      }
                    },
                    "attributes" : {
                      "autoRotateText" : true
                    },
                    "parameters" : {
                      "translation0" : 0.205882352937998,
                      "translation1" : 60.4999999998876
                    },
                    "effects" : [

                    ],
                    "start" : 6400,
                    "duration" : 141,
                    "mediaStart" : 0,
                    "mediaDuration" : 141,
                    "scalar" : 1,
                    "metadata" : {
                      "clipSpeedAttribute" : false,
                      "default-HAlign" : "center",
                      "default-LineSpace" : 0.0,
                      "default-VAlign" : "center",
                      "default-translation0" : 0.0,
                      "default-translation1" : 0.0
                    },
                    "animationTracks" : {

                    }
                  },
                  {
                    "id" : 77,
                    "_type" : "Callout",
                    "def" : {
                      "kind" : "remix",
                      "shape" : "text",
                      "style" : "basic",
                      "height" : 250.0,
                      "line-spacing" : 0.0,
                      "width" : 476.470588235415,
                      "word-wrap" : 1.0,
                      "horizontal-alignment" : "center",
                      "resize-behavior" : "resizeText",
                      "text" : "Admin panelinin fonksiyonlarını gösteriniz. CRUD işlemlerini içeren bir sayfanın tüm kodlarını\ranlatınız",
                      "vertical-alignment" : "center",
                      "font" : {
                        "color-blue" : 1.0,
                        "color-green" : 1.0,
                        "color-red" : 1.0,
                        "size" : 96.0,
                        "tracking" : 0.0,
                        "name" : "Montserrat",
                        "weight" : "Regular"
                      },
                      "textAttributes" : {
                        "type" : "textAttributeList",
                        "keyframes" : [
                          {
                            "endTime" : 0,
                            "time" : 0,
                            "value" : [{"name":"fontSize","rangeEnd":115,"rangeStart":0,"value":96,"valueType":"double"},{"name":"fontName","rangeEnd":53,"rangeStart":0,"value":"Montserrat","valueType":"string"},{"name":"fontWeight","rangeEnd":115,"rangeStart":0,"value":400,"valueType":"int"},{"name":"fontItalic","rangeEnd":115,"rangeStart":0,"value":0,"valueType":"int"},{"name":"fgColor","rangeEnd":115,"rangeStart":0,"value":"(255,255,255,255)","valueType":"color"},{"name":"underline","rangeEnd":115,"rangeStart":0,"value":0,"valueType":"int"},{"name":"fontName","rangeEnd":115,"rangeStart":55,"value":"Montserrat","valueType":"string"},{"name":"strikethrough","rangeEnd":115,"rangeStart":0,"value":0,"valueType":"int"},{"name":"kerning","rangeEnd":115,"rangeStart":0,"value":0,"valueType":"double"},{"name":"fontName","rangeEnd":55,"rangeStart":53,"value":"Arial","valueType":"string"}],
                            "duration" : 0
                          }
                        ]
                      }
                    },
                    "attributes" : {
                      "autoRotateText" : true
                    },
                    "parameters" : {
                      "translation0" : 0.26470588237467,
                      "translation1" : 55.8823529411358
                    },
                    "effects" : [

                    ],
                    "start" : 7741,
                    "duration" : 164,
                    "mediaStart" : -67,
                    "mediaDuration" : 164,
                    "scalar" : 1,
                    "metadata" : {
                      "clipSpeedAttribute" : false,
                      "default-HAlign" : "center",
                      "default-LineSpace" : 0.0,
                      "default-VAlign" : "center",
                      "default-translation0" : 0.0,
                      "default-translation1" : 0.0
                    },
                    "animationTracks" : {

                    }
                  }
                ],
                "transitions" : [
                  {
                    "name" : "Fade",
                    "duration" : 25,
                    "trivial" : false,
                    "reverse" : false,
                    "useAudioPreRoll" : true,
                    "useVisualPreRoll" : true,
                    "rightMedia" : 73
                  },
                  {
                    "name" : "SlideRight",
                    "duration" : 54,
                    "trivial" : false,
                    "reverse" : false,
                    "useAudioPreRoll" : true,
                    "useVisualPreRoll" : true,
                    "rightMedia" : 74
                  },
                  {
                    "name" : "SlideRight",
                    "duration" : 1,
                    "trivial" : false,
                    "reverse" : false,
                    "useAudioPreRoll" : true,
                    "useVisualPreRoll" : true,
                    "leftMedia" : 74
                  },
                  {
                    "name" : "SlideRight",
                    "duration" : 30,
                    "trivial" : false,
                    "reverse" : false,
                    "useAudioPreRoll" : true,
                    "useVisualPreRoll" : true,
                    "rightMedia" : 76
                  },
                  {
                    "name" : "SlideRight",
                    "duration" : 30,
                    "trivial" : false,
                    "reverse" : false,
                    "useAudioPreRoll" : true,
                    "useVisualPreRoll" : true,
                    "rightMedia" : 77
                  }
                ]
              },
              {
                "trackIndex" : 5,
                "medias" : [
                ]
              },
              {
                "trackIndex" : 6,
                "medias" : [
                ]
              }
            ]
          }
        }
      ]
    },
    "trackAttributes" : [
      {
        "ident" : "",
        "audioMuted" : false,
        "videoHidden" : false,
        "magnetic" : false,
        "matte" : 0,
        "metadata" : {
          "IsLocked" : "False",
          "WinTrackHeight" : "56"
        }
      },
      {
        "ident" : "",
        "audioMuted" : false,
        "videoHidden" : false,
        "magnetic" : false,
        "matte" : 0,
        "metadata" : {
          "IsLocked" : "False",
          "WinTrackHeight" : "56"
        }
      },
      {
        "ident" : "",
        "audioMuted" : false,
        "videoHidden" : false,
        "magnetic" : false,
        "matte" : 0,
        "metadata" : {
          "IsLocked" : "False",
          "WinTrackHeight" : "56"
        }
      },
      {
        "ident" : "",
        "audioMuted" : false,
        "videoHidden" : false,
        "magnetic" : false,
        "matte" : 0,
        "metadata" : {
          "IsLocked" : "False",
          "WinTrackHeight" : "56"
        }
      },
      {
        "ident" : "",
        "audioMuted" : false,
        "videoHidden" : false,
        "magnetic" : false,
        "matte" : 0,
        "metadata" : {
          "IsLocked" : "False",
          "WinTrackHeight" : "56"
        }
      },
      {
        "ident" : "",
        "audioMuted" : false,
        "videoHidden" : false,
        "magnetic" : false,
        "matte" : 0,
        "metadata" : {
          "IsLocked" : "False",
          "WinTrackHeight" : "56"
        }
      },
      {
        "ident" : "",
        "audioMuted" : false,
        "videoHidden" : false,
        "magnetic" : false,
        "matte" : 0,
        "metadata" : {
          "IsLocked" : "False",
          "WinTrackHeight" : "56"
        }
      }
    ],
    "captionAttributes" : {
      "enabled" : true,
      "fontName" : "Arial",
      "fontSize" : 45,
      "backgroundColor" : [ 0, 0, 0, 191],
      "foregroundColor" : [ 255, 255, 255, 255],
      "lang" : "en",
      "alignment" : 0,
      "defaultFontSize" : true,
      "opacity" : 0.5,
      "backgroundEnabled" : true,
      "backgroundOnlyAroundText" : true
    },
    "backgroundColor" : [ 0, 0, 0, 255]
  },
  "metadata" : {
    "AutoSaveFile" : "C:\\Users\\fula_\\AppData\\Local\\TechSmith\\Camtasia Studio\\19.0\\Auto-Saves\\WEb30a454.autosave.tscproj",
    "CanvasZoom" : 31,
    "Date" : "2019-12-22 03:28:41 PM",
    "IsAutoSave" : "0",
    "Language" : "ENU",
    "ProfileName" : "",
    "ProjectDimensionsChanged" : "1",
    "Title" : "WEb",
    "audioNarrationNotes" : "",
    "calloutStyle" : "Basic",
    "canvasDetached" : "False",
    "canvasPositionHeight" : "0",
    "canvasPositionLeft" : "0",
    "canvasPositionTop" : "0",
    "canvasPositionWidth" : "0"
  }
}
